<svg width="24" height="24" viewBox="0 0 24 24" fill="none" xmlns="http://www.w3.org/2000/svg">
<path fill-rule="evenodd" clip-rule="evenodd" d="M1 12C1 5.92487 5.92487 1 12 1C18.0751 1 23 5.92487 23 12C23 18.0751 18.0751 23 12 23C5.92487 23 1 18.0751 1 12ZM6.75 12.75C6.33579 12.75 6 12.4142 6 12C6 11.5858 6.33579 11.25 6.75 11.25H15.3636L11.235 7.29526C10.9339 7.01085 10.9203 6.53617 11.2047 6.23503C11.4891 5.9339 11.9638 5.92033 12.265 6.20474L17.765 11.4547C17.915 11.5964 18 11.7937 18 12C18 12.2063 17.915 12.4036 17.765 12.5453L12.265 17.7953C11.9638 18.0797 11.4891 18.0661 11.2047 17.765C10.9203 17.4638 10.9339 16.9892 11.235 16.7047L15.3636 12.75H6.75Z" fill="black"/>
</svg>
