<svg width="24" height="24" viewBox="0 0 24 24" fill="none" xmlns="http://www.w3.org/2000/svg">
<path fill-rule="evenodd" clip-rule="evenodd" d="M20.78 5.22007C20.9205 5.3607 20.9993 5.55132 20.9993 5.75007C20.9993 5.94882 20.9205 6.13945 20.78 6.28007L10.28 17.7801C10.2094 17.8507 10.1253 17.9064 10.0329 17.9441C9.9404 17.9818 9.84133 18.0006 9.74148 17.9995C9.64163 17.9984 9.54301 17.9773 9.4514 17.9376C9.35979 17.8979 9.27704 17.8402 9.208 17.7681L3.208 12.0181C3.13684 11.9475 3.08053 11.8635 3.0424 11.7708C3.00427 11.6781 2.9851 11.5788 2.98601 11.4786C2.98692 11.3784 3.0079 11.2794 3.04771 11.1874C3.08752 11.0955 3.14535 11.0124 3.21779 10.9432C3.29022 10.874 3.3758 10.82 3.46946 10.7844C3.56312 10.7487 3.66297 10.7323 3.7631 10.7359C3.86323 10.7395 3.96163 10.7632 4.05247 10.8054C4.14331 10.8477 4.22476 10.9078 4.292 10.9821L9.762 16.1771L19.72 5.22007C19.8606 5.07962 20.0513 5.00073 20.25 5.00073C20.4488 5.00073 20.6394 5.07962 20.78 5.22007Z" fill="black"/>
</svg>
