<svg width="24" height="24" viewBox="0 0 24 24" fill="none" xmlns="http://www.w3.org/2000/svg">
<path d="M16.2197 16.2197C16.5126 15.9268 16.9874 15.9268 17.2803 16.2197L20 18.9393L22.7197 16.2197C23.0126 15.9268 23.4874 15.9268 23.7803 16.2197C24.0732 16.5126 24.0732 16.9874 23.7803 17.2803L21.0607 20L23.7803 22.7197C24.0732 23.0126 24.0732 23.4874 23.7803 23.7803C23.4874 24.0732 23.0126 24.0732 22.7197 23.7803L20 21.0607L17.2803 23.7803C16.9874 24.0732 16.5126 24.0732 16.2197 23.7803C15.9268 23.4874 15.9268 23.0126 16.2197 22.7197L18.9393 20L16.2197 17.2803C15.9268 16.9874 15.9268 16.5126 16.2197 16.2197Z" fill="black"/>
<path fill-rule="evenodd" clip-rule="evenodd" d="M1.75 3C1.28587 3 0.840752 3.18437 0.512563 3.51256C0.184374 3.84075 0 4.28587 0 4.75V19.25C0 20.216 0.784 21 1.75 21H9.25C9.66421 21 10 20.6642 10 20.25C10 19.8358 9.66421 19.5 9.25 19.5H1.75C1.612 19.5 1.5 19.388 1.5 19.25V10H22.5V11.25C22.5 11.6642 22.8358 12 23.25 12C23.6642 12 24 11.6642 24 11.25V4.75C24 4.28587 23.8156 3.84075 23.4874 3.51256C23.1592 3.18437 22.7141 3 22.25 3H1.75ZM1.57322 4.57322C1.52634 4.62011 1.5 4.6837 1.5 4.75V8.5H22.5V4.75C22.5 4.6837 22.4737 4.62011 22.4268 4.57322C22.3799 4.52634 22.3163 4.5 22.25 4.5H1.75C1.6837 4.5 1.62011 4.52634 1.57322 4.57322Z" fill="black"/>
</svg>
