<svg width="160" height="156" viewBox="0 0 160 156" fill="none" xmlns="http://www.w3.org/2000/svg">
<path d="M124.378 5.66573C113.311 2.9324 100.204 5.6257 90.1908 12.7057C83.5241 17.4257 75.2708 26.1991 73.8175 41.1324C73.7375 41.9324 73.2442 42.639 72.5375 42.9857C71.8175 43.3457 70.9642 43.2923 70.2842 42.879C60.3108 36.6257 49.0574 34.2657 38.0974 35.9991C36.2974 36.2791 34.5242 36.679 32.7508 37.1857C21.8308 40.2924 12.4175 47.5724 8.20421 56.1724C-0.0891218 73.0924 11.5775 95.239 37.2442 111.306C58.8842 125.719 100.191 130.186 118.257 131.479C128.617 117.786 150.937 85.7057 152.524 61.3724C155.297 32.879 143.991 10.5191 124.378 5.66573Z" fill="#799E5C"/>
<path d="M34.7374 115.186C25.4041 109.346 17.804 102.679 12.1907 95.6923C18.1373 105.626 27.4041 115.439 39.4041 123.986C61.8441 140.852 102.524 148.252 122.111 150.959L117.657 136.066C99.0707 134.719 57.1107 130.092 34.7374 115.186Z" fill="#48632C"/>
<path d="M121.951 134.266L126.057 147.986C136.244 131.986 153.897 100.772 154.551 75.4656C147.937 98.0523 130.737 122.652 121.951 134.266Z" fill="#48632C"/>
<path d="M152.524 61.3721C150.937 85.7055 128.617 117.785 118.257 131.479C100.191 130.185 58.884 125.719 37.244 111.305C11.5774 95.2388 -0.0892659 73.0921 8.20407 56.1721C12.4174 47.5721 21.8307 40.2921 32.7507 37.1855C34.524 36.6788 36.2973 36.2788 38.0973 35.9988C49.0573 34.2655 60.3107 36.6254 70.284 42.8788C70.964 43.2921 71.8174 43.3455 72.5374 42.9855C73.2441 42.6388 73.7373 41.9321 73.8173 41.1321C75.2707 26.1988 83.524 17.4254 90.1907 12.7054C100.204 5.62544 113.311 2.93214 124.377 5.66547C143.991 10.5188 155.297 32.8788 152.524 61.3721ZM126.057 147.985L121.951 134.265C130.737 122.652 147.937 98.0521 154.551 75.4655C153.897 100.772 136.244 131.985 126.057 147.985ZM39.4041 123.985C27.4041 115.439 18.1373 105.625 12.1907 95.6921C17.804 102.679 25.4041 109.345 34.7374 115.185C57.1107 130.092 99.0707 134.719 117.657 136.065L122.111 150.959C102.524 148.252 61.8441 140.852 39.4041 123.985ZM156.204 38.1454C152.484 19.0254 141.417 5.11877 125.497 1.1721C113.151 -1.86789 98.604 1.10547 87.524 8.93214C77.9373 15.7188 71.6973 25.6521 69.684 37.1721C57.6973 30.6788 44.2707 29.0921 31.484 32.7321C19.164 36.2521 8.89737 44.2521 4.04404 54.1454C3.45737 55.3454 2.95073 56.5721 2.5374 57.8121L2.45732 57.9721C-5.98268 79.1321 7.77735 107.172 36.684 127.719C61.2973 146.212 106.511 153.639 124.804 155.985C125.031 156.012 125.257 155.999 125.471 155.972C126.097 155.865 126.671 155.519 127.031 154.972C136.684 140.439 159.151 103.479 159.191 74.1988C159.497 64.5321 159.231 50.4788 156.271 38.3721L156.204 38.1454Z" fill="#040606"/>
</svg>
