<svg width="287" height="364" viewBox="0 0 287 364" fill="none" xmlns="http://www.w3.org/2000/svg">
<path d="M239.844 104.938C240.02 106.275 239.844 107.674 239.305 109.06C238.991 109.866 238.547 110.646 237.98 111.391C244.455 111.104 256.439 109.062 263.16 98.4818C262.401 99.0551 261.597 99.5938 260.751 100.098C253.583 104.355 244.608 105.24 239.844 104.938Z" fill="#E06575"/>
<path d="M167.577 245.494C169.568 246.734 170.38 249.121 169.753 251.867C169.548 252.747 169.188 253.667 168.68 254.587C166.025 259.387 161.316 262.334 154.279 263.601C153.779 263.694 153.281 263.601 152.861 263.361C152.44 263.134 152.095 262.761 151.904 262.281C149.244 255.641 149.239 250.094 151.888 245.294C152.405 244.374 152.989 243.574 153.628 242.947C155.619 240.947 158.069 240.374 160.18 241.401C161.544 242.067 162.576 243.307 163.108 244.841C164.688 244.481 166.3 244.694 167.577 245.494ZM95.836 255.774C75.5547 244.614 66.7987 221.454 76.316 204.174C85.8334 186.881 110.076 181.894 130.357 193.067C150.636 204.227 159.392 227.374 149.875 244.667C140.357 261.947 116.115 266.934 95.836 255.774ZM57.684 212.521C57.1694 212.627 56.6547 212.534 56.2227 212.294C55.7867 212.054 55.4347 211.667 55.2494 211.174C52.7894 204.641 52.8787 199.147 55.5187 194.387C56.036 193.454 56.612 192.654 57.232 192.027C59.212 190.014 61.6307 189.401 63.7053 190.414C65.0427 191.067 65.988 192.254 66.496 193.721C68.016 193.374 69.5627 193.601 70.78 194.334C72.7387 195.547 73.512 197.921 72.8507 200.681C72.6427 201.547 72.2787 202.454 71.7693 203.374C69.128 208.147 64.52 211.134 57.684 212.521ZM140.973 173.694C108.093 155.587 68.8413 163.574 53.476 191.481C38.1107 219.401 52.36 256.827 85.2413 274.934C118.124 293.027 157.376 285.054 172.741 257.134C188.107 229.227 173.857 191.787 140.973 173.694Z" fill="#799E5C"/>
<path d="M83.1693 278.694C48.2146 259.454 33.2053 219.4 49.7133 189.414C66.2213 159.427 108.089 150.68 143.045 169.92C178.003 189.174 193.012 229.227 176.504 259.214C159.997 289.2 118.128 297.934 83.1693 278.694ZM229.696 180.56C209.449 182.92 200.079 168.707 194.48 160.214C193.564 158.827 192.735 157.56 191.957 156.534C188.104 151.414 184.619 151.48 179.797 151.56C175.735 151.64 171.124 151.734 165.965 148.48C160.443 145 159.896 141.214 159.456 138.174C159.076 135.547 158.813 133.827 155.368 132.067C153.713 131.24 152.173 131.134 150.661 131.747C147.933 132.854 143.739 136.934 139.252 150.014C138.133 153.28 135.545 155.467 132.331 155.88C129.507 156.227 126.844 155.067 125.384 152.854C124.308 151.214 123.008 147.6 126.411 141.84C131.319 133.547 135.649 125.187 134.128 120.347C133.659 118.856 132.648 117.784 130.925 117.014C130.26 116.71 129.621 116.714 128.853 117.028C122.604 119.591 115.48 138.28 112.439 146.267L111.515 148.68C109.171 154.72 103.505 156.387 98.932 155.36C93.424 154.12 89.8626 149.427 90.2693 143.974C90.656 138.814 93.548 134.654 96.3466 130.64C99.3147 126.374 102.381 121.974 102.896 116.042C103.236 112.136 102.353 109.126 100.276 107.098C97.4573 104.346 92.3306 103.227 85.84 103.944C82.8253 104.278 80.1 103.264 78.164 101.098C77.2987 100.13 76.6067 98.9496 76.0987 97.6203L6.55065 287.627C6.53865 287.947 6.45332 288.28 6.28532 288.587C6.12532 288.867 6.07732 289.254 6.13999 289.707C6.19332 289.84 6.23332 289.987 6.25732 290.147L6.28665 290.347C8.07599 296.2 23.7547 311.734 55.9373 329.454C92.2893 349.467 115.029 353.174 117.024 349.547C117.197 349.227 117.439 348.974 117.719 348.787L242.712 182.4C242.208 180.587 242.143 178.547 242.255 176.734C239.439 178.24 235.248 179.907 229.696 180.56Z" fill="#BA8D5C"/>
<path d="M165.568 250.907C165.664 250.48 165.832 249.467 165.301 249.134C164.781 248.88 163.656 248.947 162.676 249.734C161.997 250.28 161.057 250.36 160.293 249.934H160.289C159.527 249.52 159.095 248.667 159.196 247.814C159.34 246.587 158.881 245.574 158.345 245.28L158.307 245.254C157.745 244.987 156.969 245.68 156.661 245.987C156.311 246.334 155.96 246.814 155.644 247.387C153.845 250.64 153.717 254.36 155.271 259C160.028 257.854 163.117 255.774 164.92 252.507C165.231 251.947 165.456 251.387 165.568 250.907Z" fill="#E45B3C"/>
<path d="M68.5093 197.974C68.088 197.707 67.0893 197.787 66.0613 198.64C65.3813 199.2 64.428 199.294 63.656 198.867H63.652C62.8787 198.44 62.4467 197.574 62.5627 196.707C62.7347 195.4 62.244 194.507 61.8467 194.294L61.824 194.28C61.5027 194.12 60.9027 194.414 60.296 195.04C59.9507 195.387 59.5987 195.88 59.276 196.467C57.484 199.694 57.2787 203.36 58.6613 207.88C63.2227 206.654 66.2187 204.534 68.0133 201.294C68.3307 200.72 68.5573 200.16 68.6747 199.68C68.8773 198.827 68.812 198.16 68.5093 197.974Z" fill="#E45B3C"/>
<path d="M5.82393 297.747C5.48927 299.214 4.97725 300.814 4.20925 302.44C3.79992 306.067 18.9333 321.2 51.0146 338.867C84.2573 357.16 105.48 361.534 107.067 358.654L107.284 358.334C108.108 356.987 109.021 355.84 109.927 354.867C95.6386 353.614 71.1413 342.72 53.8653 333.214C36.7466 323.787 14.6906 309.107 5.82393 297.747Z" fill="#BA8D5C"/>
<path d="M156.051 24.0017C157.115 23.147 158.249 22.5284 159.419 22.1724C162.58 21.207 165.661 22.0363 167.869 24.447C169.744 26.491 170.675 29.387 170.485 32.159C173.227 32.583 175.847 34.1297 177.429 36.403C179.297 39.091 179.429 42.2803 177.791 45.155C177.188 46.207 176.34 47.175 175.269 48.0337C167.136 54.5364 155.443 50.1124 151.6 48.659L151.324 48.531C150.736 48.2084 150.328 47.6243 150.233 46.9496C149.66 42.8816 147.919 30.503 156.051 24.0017ZM174.516 54.3377C192.261 50.0217 206.781 34.9923 217.751 9.62165C210.169 14.9977 196.235 21.8497 175.099 21.0603L168.993 20.8204C139.857 19.651 118.615 18.795 114.273 35.1483C119.632 39.643 146.984 61.0297 174.516 54.3377Z" fill="#E06575"/>
<path d="M177.737 89.3843C187.807 96.1963 198.919 102.304 210.525 106.33C210.423 105.232 210.372 104.092 210.403 102.931C199.015 100.136 187.904 95.1856 177.737 89.3843Z" fill="#E06575"/>
<path d="M210.92 98.6338C211.515 96.0338 212.672 93.5032 214.696 91.3258C215.636 90.3178 216.667 89.5431 217.763 89.0218C220.748 87.6058 223.925 87.9778 226.455 90.0325C228.607 91.7791 229.953 94.5085 230.172 97.2765C232.891 97.2952 235.652 98.3965 237.543 100.332C237.905 100.291 238.283 100.342 238.64 100.498C239.919 100.905 251.296 101.266 259.533 95.7911C264.488 92.4991 267.269 87.7445 267.803 81.6631C269.257 65.0738 254.441 57.6059 248.991 55.4365C246.819 59.5685 239.009 71.9872 221.387 77.2045C200.96 83.2512 175.224 77.5005 144.809 60.2351C160.064 73.5112 184.944 92.0832 210.92 98.6338Z" fill="#F68C97"/>
<path d="M277.573 133.36C275.017 136.107 272.263 138.56 269.356 140.694C269.949 142.747 269.673 144.92 268.517 146.947C267.919 148 267.068 148.974 265.991 149.84C258.375 155.92 247.616 152.414 243.135 150.76C242.977 150.814 242.809 150.854 242.635 150.88C189.815 157.014 123.445 100.351 120.644 97.9365C120.428 97.7498 120.257 97.5298 120.135 97.2884C113.467 97.7204 106.944 94.5844 104.295 93.3111C103.567 92.9551 103.123 92.2711 103.08 91.4884C102.971 89.4098 102.747 85.1778 103.68 80.7604C90.4506 66.1991 89.0546 55.2311 90.0226 48.8325C85.7879 51.9191 82.0919 55.6485 80.1786 60.0018C78.2853 64.3111 78.3493 68.7178 80.3773 73.4351L81.596 70.1098C82.0026 68.9965 83.2373 68.4231 84.3506 68.8312C85.4479 69.2378 86.0373 70.4711 85.628 71.5858L79.8573 87.3498C79.8586 87.5124 79.8413 87.6778 79.8039 87.8444C78.8559 92.0338 79.4693 96.1111 81.3666 98.2351C82.3973 99.3898 83.7066 99.8578 85.3653 99.6751C91.3853 99.0084 96.5519 99.7778 100.321 101.854C101.432 102.464 102.421 103.19 103.277 104.024C106.32 106.995 107.631 111.164 107.176 116.414C106.56 123.48 103.007 128.587 99.8706 133.094C97.1773 136.96 94.8519 140.294 94.5519 144.294C94.2653 148.147 97.0213 150.52 99.8786 151.16C102.452 151.747 105.995 151.04 107.512 147.134L108.427 144.734C113.664 130.987 119.868 116.072 127.225 113.055C129.076 112.296 130.973 112.312 132.709 113.106C135.544 114.418 137.391 116.402 138.227 119.06C140.352 125.827 135.151 135.494 130.108 144.027C128.489 146.774 128.077 149.12 128.975 150.494C129.527 151.334 130.607 151.76 131.795 151.614C133.344 151.414 134.615 150.294 135.191 148.614C139.269 136.72 143.801 129.907 149.043 127.774C151.735 126.667 154.515 126.827 157.303 128.24C162.797 130.987 163.284 134.64 163.707 137.56C164.099 140.28 164.411 142.427 168.251 144.84C172.335 147.414 175.92 147.347 179.717 147.267C184.88 147.174 190.22 147.08 195.388 153.947C196.213 155.04 197.095 156.374 198.067 157.854C203.447 166.014 211.576 178.347 229.197 176.294C238.667 175.187 243.567 170.72 243.616 170.68C244.309 170.027 245.447 169.88 246.163 170.387C246.98 170.867 247.393 171.827 247.173 172.747C246.415 175.934 246.053 181.347 247.689 182.88C248.279 183.44 249.352 183.48 250.871 183L250.895 182.987L251.139 182.867C278.667 170.534 278.892 144.534 277.573 133.36Z" fill="#F68C97"/>
<path d="M224.663 62.1873C221.331 59.7833 211.189 52.4739 212.12 42.1099C212.241 40.7446 212.58 39.5006 213.124 38.4166C214.619 35.4606 217.351 33.8086 220.623 33.8832C223.391 33.9419 226.125 35.2752 227.996 37.3299C230.199 35.6419 233.127 34.8206 235.863 35.2499C239.092 35.7632 241.491 37.8726 242.433 41.0433C242.779 42.2219 242.891 43.5046 242.765 44.8673C241.835 55.2246 230.552 60.6113 226.844 62.3819C226.215 62.6819 225.484 62.6566 224.883 62.3259L224.663 62.1873ZM245.525 52.7606C245.52 52.6312 245.528 52.5006 245.547 52.3673C248.468 32.67 230.421 12.4979 223.908 5.9486C212.164 35.8899 195.891 53.5699 175.509 58.5153C166.951 60.5926 158.515 60.2353 150.699 58.5513C178.22 73.4126 201.916 78.4433 220.063 73.1153C237.355 68.0406 244.395 55.0619 245.525 52.7606Z" fill="#F68C97"/>
<path d="M105.201 75.9937C106.385 73.3604 108.175 70.9217 110.863 69.1297C112.015 68.3657 113.196 67.8524 114.379 67.6004C117.612 66.9151 120.609 68.0084 122.604 70.6017C124.292 72.799 124.968 75.7671 124.539 78.5097C127.231 79.167 129.712 80.9324 131.091 83.3404C132.717 86.1804 132.572 89.367 130.691 92.0857C130 93.083 129.069 93.975 127.924 94.7404C127.493 95.0284 127.052 95.2884 126.609 95.5217C139.469 105.218 154.617 114.059 170.816 121.323C170.56 119.983 170.473 118.576 170.611 117.111C170.743 115.731 171.087 114.49 171.635 113.416C173.135 110.47 175.872 108.828 179.145 108.914C181.915 108.986 184.643 110.326 186.505 112.384C188.716 110.704 191.648 109.892 194.384 110.335C197.616 110.858 200.001 112.98 200.928 116.152C201.272 117.318 201.38 118.604 201.248 119.975C200.829 124.467 198.46 128.027 195.608 130.747C212.028 135.814 227.176 138.12 240.685 137.574C241.269 133.334 242.901 128.894 246.777 125.8C247.852 124.947 248.984 124.334 250.143 123.974C253.309 123 256.388 123.84 258.604 126.254C260.405 128.227 261.335 130.987 261.229 133.654C267.125 133.72 272.573 131.28 276.665 126.72L276.817 126.574L277.001 126.267C289.225 109.438 277.255 94.7777 271.377 89.1284C265.343 118.462 233.487 115.635 233.151 115.602L232.828 115.544C225.879 118.976 217.177 117.079 213.909 116.367C213.144 116.204 212.531 115.628 212.307 114.876C212.045 113.987 211.661 112.687 211.307 111.12C167.213 96.8857 130.871 54.0964 126.663 49.007C119.005 44.6137 113.509 40.1617 111.377 38.335C108.816 39.1697 102.195 41.5004 95.5839 45.2644C94.4199 47.3644 89.8625 58.0684 105.201 75.9937Z" fill="#F68C97"/>
<path d="M196.808 117.362C196.229 115.38 194.797 114.751 193.697 114.575C191.576 114.231 189.161 115.246 187.955 116.987C187.512 117.624 186.761 117.975 185.989 117.903C185.223 117.832 184.544 117.351 184.229 116.639C183.729 115.522 182.788 114.567 181.669 113.951C180.852 113.5 179.94 113.231 179.033 113.207C177.921 113.179 176.397 113.528 175.46 115.366C175.163 115.948 174.965 116.692 174.887 117.514C174.413 122.6 177.588 127.667 184.581 132.987C192.441 129.054 196.499 124.654 196.972 119.571C197.051 118.755 196.993 117.992 196.808 117.362Z" fill="#E45B3C"/>
<path d="M238.315 42.2604C237.729 40.2911 236.295 39.6671 235.192 39.4938C233.071 39.1591 230.661 40.1818 229.461 41.9258C229.024 42.5658 228.275 42.9178 227.501 42.8484C226.729 42.7791 226.053 42.2964 225.736 41.5924C225.235 40.4818 224.297 39.5351 223.183 38.9217C222.359 38.4671 221.439 38.1951 220.525 38.1751C219.412 38.1511 217.891 38.5071 216.959 40.3497C216.667 40.9337 216.471 41.6778 216.399 42.4924C215.941 47.5858 219.131 52.6471 226.144 57.9404C233.989 53.9791 238.031 49.5684 238.488 44.4764C238.563 43.6658 238.503 42.9004 238.315 42.2604Z" fill="#E45B3C"/>
<path d="M173.903 38.8551C172.675 37.0858 170.268 36.0591 168.18 36.3991C167.415 36.5218 166.64 36.2244 166.157 35.6218C165.672 35.0138 165.552 34.1951 165.843 33.4765C166.636 31.5098 166.156 28.9338 164.704 27.3485C164.429 27.0498 164.083 26.7471 163.655 26.5111C162.911 26.1004 161.925 25.8964 160.672 26.2804C160.039 26.4724 159.371 26.8431 158.739 27.3524C154.737 30.5511 153.292 36.3551 154.321 45.0804C162.609 48.0071 168.589 47.8751 172.583 44.6818C173.223 44.1711 173.733 43.5965 174.061 43.0231C175.08 41.2351 174.537 39.7684 173.903 38.8551Z" fill="#E45B3C"/>
<path d="M234.535 103.4C233.063 101.834 230.532 101.166 228.512 101.808C227.775 102.046 226.969 101.868 226.397 101.335C225.829 100.807 225.592 100.014 225.772 99.259C226.269 97.2004 225.417 94.7217 223.749 93.3683C223.56 93.2137 223.343 93.063 223.1 92.9284C222.24 92.455 221.056 92.211 219.605 92.9017C219.009 93.1843 218.4 93.651 217.84 94.251C214.36 97.9923 213.78 103.947 216.079 112.43C224.703 114.108 230.6 113.1 234.083 109.358C234.641 108.758 235.063 108.116 235.301 107.503C236.049 105.582 235.297 104.212 234.535 103.4Z" fill="#E45B3C"/>
<path d="M127.363 85.4764C126.297 83.6097 123.988 82.3751 121.875 82.5337C121.103 82.5951 120.357 82.2297 119.925 81.583C119.496 80.9377 119.448 80.1097 119.8 79.4177C120.759 77.5297 120.507 74.9217 119.197 73.2164C118.897 72.8284 118.492 72.423 117.959 72.1297C117.281 71.7564 116.4 71.5617 115.273 71.8017C114.621 71.9404 113.939 72.2444 113.241 72.707C108.992 75.539 107.048 81.1977 107.315 89.9817C115.32 93.6137 121.291 93.9991 125.541 91.1671C126.224 90.7111 126.784 90.183 127.159 89.643C128.331 87.9484 127.917 86.4417 127.363 85.4764Z" fill="#E45B3C"/>
<path d="M264.632 140.654C263.408 138.894 261.001 137.854 258.905 138.2C258.14 138.32 257.368 138.027 256.881 137.414C256.399 136.814 256.279 135.987 256.569 135.267C257.363 133.307 256.884 130.734 255.435 129.147C255.161 128.854 254.812 128.547 254.383 128.307C253.637 127.907 252.651 127.694 251.399 128.08C250.771 128.267 250.097 128.64 249.457 129.16C245.469 132.347 244.023 138.147 245.049 146.88C253.339 149.8 259.321 149.667 263.309 146.48C263.952 145.974 264.461 145.4 264.785 144.827C265.809 143.027 265.267 141.56 264.632 140.654Z" fill="#E45B3C"/>
<path d="M240.405 141.88C225.82 142.4 209.473 139.76 191.792 134.04L191.564 133.96C190.521 134.654 189.501 135.254 188.567 135.774C205.673 143.254 224.003 148.307 240.703 146.76C240.548 145.414 240.407 143.734 240.405 141.88Z" fill="#E06575"/>
<path d="M174.211 128.814C173.784 128.227 173.377 127.614 173.003 126.974C169.34 125.4 165.72 123.747 162.164 122.027C166.009 124.32 170.04 126.614 174.211 128.814Z" fill="#E06575"/>
<path d="M128.285 196.827C110.079 186.8 88.4533 191.027 80.0786 206.24C71.7026 221.454 79.7013 241.987 97.9066 252.014C116.112 262.027 137.736 257.814 146.112 242.587C154.487 227.374 146.491 206.854 128.285 196.827Z" fill="#E06575"/>
<path d="M158.739 27.3525C159.371 26.8431 160.039 26.4724 160.672 26.2804C161.925 25.8964 162.911 26.1004 163.655 26.5111C164.083 26.7471 164.429 27.0498 164.704 27.3485C166.156 28.9338 166.636 31.5098 165.843 33.4765C165.552 34.1951 165.672 35.0138 166.157 35.6218C166.64 36.2245 167.415 36.5218 168.18 36.3991C170.268 36.0591 172.675 37.0858 173.903 38.8551C174.537 39.7685 175.08 41.2352 174.061 43.0232C173.733 43.5965 173.223 44.1711 172.583 44.6818C168.589 47.8751 162.609 48.0071 154.321 45.0804C153.292 36.3551 154.737 30.5511 158.739 27.3525ZM151.324 48.5312L151.6 48.6592C155.443 50.1125 167.136 54.5365 175.269 48.0338C176.34 47.1752 177.188 46.2071 177.791 45.1551C179.429 42.2805 179.297 39.0912 177.429 36.4032C175.847 34.1298 173.227 32.5832 170.485 32.1592C170.675 29.3872 169.744 26.4911 167.869 24.4471C165.661 22.0364 162.58 21.2072 159.419 22.1725C158.249 22.5285 157.115 23.1471 156.051 24.0018C147.919 30.5031 149.66 42.8818 150.233 46.9498C150.328 47.6244 150.736 48.2085 151.324 48.5312Z" fill="#040606"/>
<path d="M97.9067 252.014C79.7013 241.987 71.7027 221.454 80.0787 206.24C88.4533 191.027 110.079 186.8 128.285 196.827C146.491 206.854 154.487 227.374 146.112 242.587C137.736 257.814 116.112 262.027 97.9067 252.014ZM130.357 193.067C110.076 181.894 85.8333 186.88 76.316 204.174C66.7987 221.454 75.5547 244.614 95.836 255.774C116.115 266.934 140.357 261.947 149.875 244.667C159.392 227.374 150.636 204.227 130.357 193.067Z" fill="#040606"/>
<path d="M158.345 245.281C158.881 245.574 159.34 246.587 159.196 247.814C159.095 248.667 159.527 249.521 160.289 249.934H160.293C161.057 250.361 161.997 250.281 162.676 249.734C163.656 248.947 164.781 248.881 165.301 249.134C165.832 249.467 165.664 250.481 165.568 250.907C165.456 251.387 165.231 251.947 164.92 252.507C163.117 255.774 160.028 257.854 155.271 259.001C153.717 254.361 153.845 250.641 155.644 247.387C155.96 246.814 156.311 246.334 156.661 245.987C156.969 245.681 157.745 244.987 158.307 245.254L158.345 245.281ZM153.628 242.947C152.989 243.574 152.405 244.374 151.888 245.294C149.239 250.094 149.244 255.641 151.904 262.281C152.095 262.761 152.44 263.134 152.861 263.361C153.281 263.601 153.779 263.694 154.279 263.601C161.316 262.334 166.025 259.387 168.68 254.587C169.188 253.667 169.548 252.747 169.753 251.867C170.38 249.121 169.568 246.734 167.577 245.494C166.3 244.694 164.688 244.481 163.108 244.841C162.576 243.307 161.544 242.067 160.18 241.401C158.069 240.374 155.619 240.947 153.628 242.947Z" fill="#040606"/>
<path d="M251.139 182.867L250.895 182.987L250.871 183C249.352 183.48 248.279 183.44 247.689 182.88C246.053 181.347 246.415 175.934 247.173 172.747C247.393 171.827 246.98 170.867 246.163 170.387C245.447 169.88 244.309 170.027 243.616 170.68C243.567 170.72 238.667 175.187 229.197 176.294C211.576 178.347 203.447 166.014 198.067 157.854C197.095 156.374 196.213 155.04 195.388 153.947C190.22 147.08 184.88 147.174 179.717 147.267C175.92 147.347 172.335 147.414 168.251 144.84C164.411 142.427 164.099 140.28 163.707 137.56C163.284 134.64 162.797 130.987 157.303 128.24C154.515 126.827 151.735 126.667 149.043 127.774C143.801 129.907 139.269 136.72 135.191 148.614C134.615 150.294 133.344 151.414 131.795 151.614C130.607 151.76 129.527 151.334 128.975 150.494C128.077 149.12 128.489 146.774 130.108 144.027C135.151 135.494 140.352 125.827 138.227 119.06C137.391 116.402 135.544 114.418 132.709 113.106C130.973 112.312 129.076 112.296 127.225 113.055C119.868 116.072 113.664 130.987 108.427 144.734L107.512 147.134C105.995 151.04 102.452 151.747 99.8786 151.16C97.0213 150.52 94.2653 148.147 94.552 144.294C94.852 140.294 97.1773 136.96 99.8706 133.094C103.007 128.587 106.56 123.48 107.176 116.414C107.631 111.164 106.32 106.995 103.277 104.024C102.421 103.19 101.432 102.464 100.321 101.854C96.552 99.7778 91.3853 99.0084 85.3653 99.6751C83.7066 99.8577 82.3973 99.3898 81.3666 98.2351C79.4693 96.1111 78.8559 92.0337 79.8039 87.8444C79.8413 87.6777 79.8586 87.5124 79.8573 87.3497L85.628 71.5857C86.0373 70.4711 85.448 69.2378 84.3506 68.8311C83.2373 68.4231 82.0026 68.9964 81.596 70.1097L80.3773 73.4351C78.3493 68.7177 78.2853 64.3111 80.1786 60.0017C82.092 55.6484 85.788 51.9191 90.0226 48.8324C89.0546 55.2311 90.4506 66.1991 103.68 80.7604C102.747 85.1777 102.971 89.4098 103.08 91.4884C103.123 92.2711 103.567 92.9551 104.295 93.3111C106.944 94.5844 113.467 97.7204 120.135 97.2884C120.257 97.5298 120.428 97.7498 120.644 97.9365C123.445 100.351 189.815 157.014 242.635 150.88C242.809 150.854 242.977 150.814 243.135 150.76C247.616 152.414 258.375 155.92 265.991 149.84C267.068 148.974 267.919 148 268.517 146.947C269.673 144.92 269.949 142.747 269.356 140.694C272.263 138.56 275.017 136.107 277.573 133.36C278.892 144.534 278.667 170.534 251.139 182.867ZM117.719 348.787C117.439 348.974 117.197 349.227 117.024 349.547C115.029 353.174 92.2893 349.467 55.9373 329.454C23.7546 311.734 8.07597 296.2 6.28663 290.347L6.2573 290.147C6.2333 289.987 6.1933 289.84 6.13997 289.707C6.0773 289.254 6.1253 288.867 6.2853 288.587C6.4533 288.28 6.53863 287.947 6.55063 287.627L76.0986 97.6205C76.6066 98.9498 77.2986 100.13 78.164 101.098C80.1 103.264 82.8253 104.278 85.84 103.944C92.3306 103.227 97.4573 104.346 100.276 107.098C102.353 109.126 103.236 112.136 102.896 116.042C102.381 121.974 99.3146 126.374 96.3466 130.64C93.548 134.654 90.6559 138.814 90.2693 143.974C89.8626 149.427 93.424 154.12 98.932 155.36C103.505 156.387 109.171 154.72 111.515 148.68L112.439 146.267C115.48 138.28 122.604 119.591 128.853 117.028C129.621 116.714 130.26 116.71 130.925 117.014C132.648 117.784 133.659 118.856 134.128 120.347C135.649 125.187 131.319 133.547 126.411 141.84C123.008 147.6 124.308 151.214 125.384 152.854C126.844 155.067 129.507 156.227 132.331 155.88C135.545 155.467 138.133 153.28 139.252 150.014C143.739 136.934 147.933 132.854 150.661 131.747C152.173 131.134 153.713 131.24 155.368 132.067C158.813 133.827 159.076 135.547 159.456 138.174C159.896 141.214 160.443 145 165.965 148.48C171.124 151.734 175.735 151.64 179.797 151.56C184.619 151.48 188.104 151.414 191.957 156.534C192.735 157.56 193.564 158.827 194.48 160.214C200.079 168.707 209.449 182.92 229.696 180.56C235.248 179.907 239.439 178.24 242.255 176.734C242.143 178.547 242.208 180.587 242.712 182.4L117.719 348.787ZM107.284 358.334L107.067 358.654C105.48 361.534 84.2573 357.16 51.0146 338.867C18.9333 321.2 3.79996 306.067 4.20929 302.44C4.97729 300.814 5.4893 299.214 5.82397 297.747C14.6906 309.107 36.7466 323.787 53.8653 333.214C71.1413 342.72 95.6386 353.614 109.927 354.867C109.021 355.84 108.108 356.987 107.284 358.334ZM127.159 89.6431C126.784 90.1831 126.224 90.7111 125.541 91.1671C121.291 93.9991 115.32 93.6138 107.315 89.9818C107.048 81.1978 108.992 75.5391 113.241 72.7071C113.939 72.2444 114.621 71.9404 115.273 71.8018C116.4 71.5617 117.281 71.7564 117.959 72.1297C118.492 72.4231 118.897 72.8284 119.197 73.2164C120.507 74.9217 120.759 77.5298 119.8 79.4178C119.448 80.1098 119.496 80.9377 119.925 81.5831C120.357 82.2297 121.103 82.5951 121.875 82.5338C123.988 82.3751 126.297 83.6097 127.363 85.4764C127.917 86.4417 128.331 87.9484 127.159 89.6431ZM249.457 129.16C250.097 128.64 250.771 128.267 251.399 128.08C252.651 127.694 253.637 127.907 254.383 128.307C254.812 128.547 255.161 128.854 255.435 129.147C256.884 130.734 257.363 133.307 256.569 135.267C256.279 135.987 256.399 136.814 256.881 137.414C257.368 138.027 258.14 138.32 258.905 138.2C261.001 137.854 263.408 138.894 264.632 140.654C265.267 141.56 265.809 143.027 264.785 144.827C264.461 145.4 263.952 145.974 263.309 146.48C259.321 149.667 253.339 149.8 245.049 146.88C244.023 138.147 245.469 132.347 249.457 129.16ZM191.564 133.96L191.792 134.04C209.473 139.76 225.82 142.4 240.405 141.88C240.407 143.734 240.548 145.414 240.703 146.76C224.003 148.307 205.673 143.254 188.567 135.774C189.501 135.254 190.521 134.654 191.564 133.96ZM174.211 128.814C170.04 126.614 166.009 124.32 162.164 122.027C165.72 123.747 169.34 125.4 173.003 126.974C173.377 127.614 173.784 128.227 174.211 128.814ZM174.887 117.514C174.965 116.692 175.163 115.948 175.46 115.366C176.397 113.528 177.921 113.179 179.033 113.207C179.94 113.231 180.852 113.5 181.669 113.951C182.788 114.567 183.729 115.522 184.229 116.639C184.544 117.351 185.223 117.832 185.989 117.903C186.761 117.975 187.512 117.624 187.955 116.987C189.161 115.246 191.576 114.231 193.697 114.575C194.797 114.751 196.229 115.38 196.808 117.362C196.993 117.992 197.051 118.755 196.972 119.571C196.499 124.654 192.441 129.054 184.581 132.987C177.588 127.667 174.413 122.6 174.887 117.514ZM111.377 38.3351C113.509 40.1617 119.005 44.6137 126.663 49.0071C130.871 54.0964 167.213 96.8858 211.307 111.12C211.661 112.687 212.045 113.987 212.307 114.876C212.531 115.628 213.144 116.204 213.909 116.367C217.177 117.079 225.879 118.976 232.828 115.544L233.151 115.602C233.487 115.635 265.343 118.462 271.377 89.1284C277.255 94.7778 289.225 109.438 277.001 126.267L276.817 126.574L276.665 126.72C272.573 131.28 267.125 133.72 261.229 133.654C261.335 130.987 260.405 128.227 258.604 126.254C256.388 123.84 253.309 123 250.143 123.974C248.984 124.334 247.852 124.947 246.777 125.8C242.901 128.894 241.269 133.334 240.685 137.574C227.176 138.12 212.028 135.814 195.608 130.747C198.46 128.027 200.829 124.467 201.248 119.975C201.38 118.604 201.272 117.318 200.928 116.152C200.001 112.98 197.616 110.858 194.384 110.335C191.648 109.892 188.716 110.704 186.505 112.384C184.643 110.326 181.915 108.986 179.145 108.914C175.872 108.828 173.135 110.47 171.635 113.416C171.087 114.49 170.743 115.731 170.611 117.111C170.473 118.576 170.56 119.983 170.816 121.323C154.617 114.059 139.469 105.218 126.609 95.5218C127.052 95.2884 127.493 95.0284 127.924 94.7404C129.069 93.9751 130 93.0831 130.691 92.0858C132.572 89.3671 132.717 86.1804 131.091 83.3404C129.712 80.9324 127.231 79.1671 124.539 78.5097C124.968 75.7671 124.292 72.7991 122.604 70.6017C120.609 68.0084 117.612 66.9151 114.379 67.6004C113.196 67.8524 112.015 68.3657 110.863 69.1297C108.175 70.9217 106.385 73.3604 105.201 75.9937C89.8626 58.0684 94.42 47.3644 95.584 45.2644C102.195 41.5004 108.816 39.1697 111.377 38.3351ZM168.993 20.8204L175.099 21.0604C196.235 21.8497 210.169 14.9977 217.751 9.62173C206.781 34.9924 192.261 50.0218 174.516 54.3377C146.984 61.0298 119.632 39.6431 114.273 35.1484C118.615 18.7951 139.857 19.6511 168.993 20.8204ZM223.908 5.94843C230.421 12.4978 248.468 32.6698 245.547 52.3671C245.528 52.5004 245.52 52.6311 245.525 52.7604C244.395 55.0617 237.355 68.0404 220.063 73.1151C201.916 78.4431 178.22 73.4124 150.699 58.5511C158.515 60.2351 166.951 60.5924 175.509 58.5151C195.891 53.5698 212.164 35.8898 223.908 5.94843ZM210.525 106.33C198.919 102.304 187.807 96.1964 177.737 89.3844C187.904 95.1858 199.015 100.136 210.403 102.931C210.372 104.092 210.423 105.232 210.525 106.33ZM234.083 109.358C230.6 113.1 224.703 114.108 216.079 112.43C213.78 103.947 214.36 97.9924 217.84 94.2511C218.4 93.6511 219.009 93.1844 219.605 92.9018C221.056 92.2111 222.24 92.4551 223.1 92.9284C223.343 93.0631 223.56 93.2137 223.749 93.3684C225.417 94.7218 226.269 97.2004 225.772 99.2591C225.592 100.014 225.829 100.807 226.397 101.335C226.969 101.868 227.775 102.046 228.512 101.808C230.532 101.166 233.063 101.834 234.535 103.4C235.297 104.212 236.049 105.582 235.301 107.503C235.063 108.116 234.641 108.758 234.083 109.358ZM248.991 55.4364C254.441 57.6058 269.257 65.0737 267.803 81.6631C267.269 87.7444 264.488 92.4991 259.533 95.7911C251.296 101.266 239.919 100.904 238.64 100.498C238.283 100.342 237.905 100.291 237.543 100.332C235.652 98.3964 232.891 97.2951 230.172 97.2764C229.953 94.5084 228.607 91.7791 226.455 90.0324C223.925 87.9778 220.748 87.6057 217.763 89.0217C216.667 89.5431 215.636 90.3178 214.696 91.3258C212.672 93.5031 211.515 96.0338 210.92 98.6338C184.944 92.0831 160.064 73.5111 144.809 60.2351C175.224 77.5004 200.96 83.2511 221.387 77.2044C239.009 71.9871 246.819 59.5685 248.991 55.4364ZM263.16 98.4818C256.439 109.062 244.455 111.104 237.98 111.391C238.547 110.646 238.991 109.866 239.305 109.06C239.844 107.674 240.02 106.275 239.844 104.938C244.608 105.24 253.583 104.355 260.751 100.098C261.597 99.5938 262.401 99.0551 263.16 98.4818ZM271.864 83.8244C271.956 83.2391 272.028 82.6431 272.081 82.0378C273.815 62.2591 255.756 53.5111 250.008 51.2484C252.413 25.9698 226.137 2.02042 224.525 0.579102C224.417 0.477753 224.297 0.387054 224.167 0.30838C223.963 0.172394 223.748 0.0990906 223.523 0.0510864C223.105 -0.0422363 222.681 -0.00488281 222.3 0.13913V0.140411L222.283 0.147064L222.272 0.152405L221.985 0.289764L221.983 0.291077L221.973 0.297791L221.956 0.307098C221.743 0.433746 221.552 0.597778 221.392 0.795105C220.759 1.52176 206.069 17.9178 175.259 16.7684L169.167 16.5284C139.036 15.3191 115.109 14.3578 110.071 34.2391C104.564 36.0018 82.5973 43.8324 76.2506 58.2657C73.6786 64.1137 73.9693 70.2818 77.1133 76.6004C77.4493 77.2724 78.0906 77.6938 78.7893 77.7764L2.25996 286.854C2.19196 287.04 2.15197 287.214 2.13597 287.4C1.83863 288.32 1.79997 289.32 1.99064 290.387C1.9853 290.534 1.99463 290.68 2.0173 290.827C2.02396 290.867 2.65863 295.054 0.6693 299.827L0.551966 300.027C-4.78537 309.72 29.8733 332.134 48.944 342.627C67.1546 352.654 102.145 368.867 109.915 361.88C110.199 361.694 110.443 361.44 110.62 361.134C113.236 356.494 117.311 354.427 117.351 354.414C117.493 354.334 117.624 354.254 117.744 354.16C118.723 353.774 119.531 353.227 120.145 352.534C120.331 352.4 120.497 352.24 120.64 352.054L245.128 186.334C246.439 187.36 248.644 188.2 252.149 187.094C252.324 187.04 252.484 186.974 252.633 186.88L252.893 186.787C288.259 170.947 282.415 134.534 281.043 127.987C296.172 106.044 275.967 87.2844 271.864 83.8244Z" fill="#040606"/>
<path d="M58.6613 207.88C57.2786 203.36 57.484 199.694 59.276 196.467C59.5986 195.88 59.9506 195.387 60.296 195.04C60.9026 194.414 61.5027 194.12 61.824 194.28L61.8466 194.294C62.244 194.507 62.7346 195.4 62.5626 196.707C62.4466 197.574 62.8786 198.44 63.652 198.867H63.656C64.428 199.294 65.3813 199.2 66.0613 198.64C67.0893 197.787 68.088 197.707 68.5093 197.974C68.812 198.16 68.8773 198.827 68.6746 199.68C68.5573 200.16 68.3306 200.72 68.0133 201.294C66.2186 204.534 63.2226 206.654 58.6613 207.88ZM70.78 194.334C69.5626 193.6 68.016 193.374 66.496 193.72C65.988 192.254 65.0426 191.067 63.7053 190.414C61.6306 189.4 59.212 190.014 57.232 192.027C56.612 192.654 56.036 193.454 55.5186 194.387C52.8786 199.147 52.7893 204.64 55.2493 211.174C55.4346 211.667 55.7867 212.054 56.2227 212.294C56.6547 212.534 57.1693 212.627 57.684 212.52C64.52 211.134 69.128 208.147 71.7693 203.374C72.2786 202.454 72.6426 201.547 72.8506 200.68C73.512 197.92 72.7386 195.547 70.78 194.334Z" fill="#040606"/>
<path d="M85.2412 274.934C52.3599 256.827 38.1106 219.4 53.4759 191.48C68.8412 163.574 108.093 155.587 140.973 173.694C173.857 191.787 188.107 229.227 172.741 257.134C157.376 285.054 118.124 293.027 85.2412 274.934ZM143.045 169.92C108.089 150.68 66.2212 159.427 49.7132 189.414C33.2052 219.4 48.2146 259.454 83.1692 278.694C118.128 297.934 159.997 289.2 176.504 259.214C193.012 229.227 178.003 189.174 143.045 169.92Z" fill="#040606"/>
<path d="M220.525 38.1751C221.439 38.1951 222.359 38.4671 223.183 38.9218C224.297 39.5351 225.235 40.4818 225.736 41.5925C226.053 42.2965 226.729 42.7792 227.501 42.8485C228.275 42.9178 229.024 42.5658 229.461 41.9258C230.661 40.1818 233.071 39.1591 235.192 39.4938C236.295 39.6671 237.729 40.2911 238.315 42.2605C238.503 42.9005 238.563 43.6658 238.488 44.4765C238.031 49.5685 233.989 53.9791 226.144 57.9405C219.131 52.6471 215.941 47.5858 216.399 42.4925C216.471 41.6778 216.667 40.9338 216.959 40.3498C217.891 38.5071 219.412 38.1511 220.525 38.1751ZM224.663 62.1872L224.883 62.3258C225.484 62.6565 226.215 62.6818 226.844 62.3818C230.552 60.6112 241.835 55.2245 242.765 44.8672C242.891 43.5045 242.779 42.2218 242.433 41.0432C241.491 37.8725 239.092 35.7631 235.863 35.2498C233.127 34.8205 230.199 35.6418 227.996 37.3298C226.125 35.2751 223.391 33.9418 220.623 33.8831C217.351 33.8085 214.619 35.4605 213.124 38.4165C212.58 39.5005 212.241 40.7445 212.12 42.1098C211.189 52.4738 221.331 59.7832 224.663 62.1872Z" fill="#040606"/>
</svg>
