<svg width="24" height="24" viewBox="0 0 24 24" fill="none" xmlns="http://www.w3.org/2000/svg">
<g clip-path="url(#clip0_501_387)">
<path d="M16.75 8.5C17.0815 8.5 17.3995 8.3683 17.6339 8.13388C17.8683 7.89946 18 7.58152 18 7.25C18 6.91848 17.8683 6.60054 17.6339 6.36612C17.3995 6.1317 17.0815 6 16.75 6C16.4185 6 16.1005 6.1317 15.8661 6.36612C15.6317 6.60054 15.5 6.91848 15.5 7.25C15.5 7.58152 15.6317 7.89946 15.8661 8.13388C16.1005 8.3683 16.4185 8.5 16.75 8.5Z" fill="black"/>
<path fill-rule="evenodd" clip-rule="evenodd" d="M15.75 1.83304e-07C14.4488 -0.000274096 13.1659 0.30726 12.0062 0.897484C10.8465 1.48771 9.84288 2.34388 9.07728 3.39608C8.31169 4.44827 7.80584 5.66664 7.60106 6.95167C7.39628 8.23671 7.49837 9.55196 7.899 10.79L0.513 18.178C0.185003 18.5058 0.000496704 18.9503 0 19.414L0 22.25C0 23.217 0.784 24 1.75 24H3.25C3.71413 24 4.15925 23.8156 4.48744 23.4874C4.81563 23.1592 5 22.7141 5 22.25V21.25C5 21.1837 5.02634 21.1201 5.07322 21.0732C5.12011 21.0263 5.1837 21 5.25 21H7.985C8.08598 21.0019 8.1863 20.9834 8.27995 20.9456C8.3736 20.9078 8.45865 20.8515 8.53 20.78L8.744 20.567C8.82523 20.4857 8.88965 20.3892 8.93358 20.283C8.9775 20.1768 9.00007 20.0629 9 19.948V18.5C9 18.4337 9.02634 18.3701 9.07322 18.3232C9.12011 18.2763 9.1837 18.25 9.25 18.25H10.336C10.8 18.25 11.246 18.066 11.573 17.737L13.209 16.101C14.343 16.4671 15.5428 16.5832 16.726 16.4413C17.9092 16.2994 19.0475 15.9029 20.0628 15.279C21.0781 14.6552 21.9461 13.8188 22.6073 12.8274C23.2685 11.836 23.707 10.7131 23.8928 9.53607C24.0785 8.359 24.0071 7.15567 23.6834 6.00885C23.3597 4.86203 22.7914 3.79895 22.0176 2.89274C21.2437 1.98653 20.2828 1.25871 19.2009 0.759344C18.1189 0.259978 16.9416 0.000922804 15.75 1.83304e-07ZM9 8.25C9.00043 6.80755 9.46292 5.40318 10.3197 4.24275C11.1765 3.08231 12.3824 2.22685 13.7608 1.80177C15.1392 1.37669 16.6175 1.40434 17.979 1.88068C19.3406 2.35701 20.5137 3.25697 21.3265 4.44864C22.1392 5.6403 22.5489 7.06099 22.4954 8.50244C22.4418 9.94389 21.928 11.3303 21.0291 12.4584C20.1302 13.5865 18.8936 14.397 17.5005 14.7711C16.1074 15.1452 14.6311 15.0631 13.288 14.537C13.1522 14.4838 13.0038 14.4713 12.861 14.5012C12.7182 14.531 12.5872 14.6018 12.484 14.705L10.513 16.677C10.4897 16.7002 10.4621 16.7186 10.4318 16.7311C10.4014 16.7436 10.3689 16.7501 10.336 16.75H9.25C8.78587 16.75 8.34075 16.9344 8.01256 17.2626C7.68437 17.5908 7.5 18.0359 7.5 18.5V19.5H5.25C4.78587 19.5 4.34075 19.6844 4.01256 20.0126C3.68437 20.3408 3.5 20.7859 3.5 21.25V22.25C3.5 22.3163 3.47366 22.3799 3.42678 22.4268C3.37989 22.4737 3.3163 22.5 3.25 22.5H1.75C1.6837 22.5 1.62011 22.4737 1.57322 22.4268C1.52634 22.3799 1.5 22.3163 1.5 22.25V19.414C1.49994 19.3811 1.50636 19.3486 1.51888 19.3182C1.53141 19.2879 1.5498 19.2603 1.573 19.237L9.295 11.516C9.39816 11.4128 9.46901 11.2818 9.49885 11.139C9.52868 10.9962 9.51623 10.8478 9.463 10.712C9.15594 9.92754 8.99889 9.09241 9 8.25Z" fill="black"/>
</g>
<defs>
<clipPath id="clip0_501_387">
<rect width="24" height="24" fill="white"/>
</clipPath>
</defs>
</svg>
