<svg width="154" height="151" viewBox="0 0 154 151" fill="none" xmlns="http://www.w3.org/2000/svg">
<path d="M129.225 91.1265C149.172 70.9665 154.785 47.7532 143.252 33.3132C137.132 25.6732 126.372 20.5531 115.182 19.9665C103.22 19.3265 91.8476 23.8198 83.1609 32.5932C82.6289 33.1398 81.8582 33.3665 81.1142 33.1932C80.3755 33.0198 79.7769 32.4865 79.5302 31.7665C75.6702 20.5531 67.6383 11.9532 56.9169 7.5532C46.3316 3.20653 34.0516 3.32651 24.8676 7.85984C23.9262 8.32651 23.0209 8.83317 22.1516 9.39317C19.4316 11.2332 17.0062 13.4865 14.8862 16.1265C6.32353 27.3932 4.91028 45.7398 11.8383 65.8465C18.9196 88.6732 46.8623 114.753 59.5276 125.687C75.8369 120.993 112.726 108.833 129.225 91.1265Z" fill="#ED9C36"/>
<path d="M7.6716 67.2066C6.27826 63.1666 5.20618 59.1799 4.44751 55.2999C4.74618 62.3399 5.88892 69.7932 7.92759 77.4332C13.9169 102.74 39.0489 130.82 52.0276 144.007L56.4569 128.833C43.3995 117.54 15.0249 90.9133 7.6716 67.2066Z" fill="#BB7423"/>
<path d="M60.7089 129.913L56.4423 144.527C74.2556 137.793 108.769 122.807 125.172 102.66C126.812 100.767 128.412 98.74 129.945 96.62C111.828 113.74 76.6196 125.327 60.7089 129.913Z" fill="#BB7423"/>
<path d="M56.4423 144.527L60.709 129.913C76.6196 125.327 111.828 113.74 129.945 96.62C128.412 98.74 126.812 100.767 125.172 102.66C108.769 122.807 74.2556 137.793 56.4423 144.527ZM11.8383 65.8466C4.91027 45.7399 6.32352 27.3933 14.8862 16.1266C17.0062 13.4866 19.4316 11.2333 22.1516 9.39326C23.0209 8.83327 23.9262 8.3266 24.8676 7.85994C34.0516 3.3266 46.3316 3.20663 56.9169 7.5533C67.6383 11.9533 75.6702 20.5532 79.5302 31.7666C79.7769 32.4866 80.3755 33.0199 81.1142 33.1933C81.8582 33.3666 82.6289 33.1399 83.1609 32.5933C91.8476 23.8199 103.22 19.3266 115.182 19.9666C126.372 20.5532 137.132 25.6733 143.252 33.3133C154.785 47.7533 149.172 70.9666 129.225 91.1266C112.726 108.833 75.8369 120.993 59.5276 125.687C46.8623 114.753 18.9196 88.6733 11.8383 65.8466ZM52.0276 144.007C39.0489 130.82 13.9169 102.74 7.9276 77.4333C5.88893 69.7933 4.74618 62.3399 4.44752 55.2999C5.20618 59.1799 6.27827 63.1666 7.67161 67.2066C15.0249 90.9133 43.3996 117.54 56.4569 128.833L52.0276 144.007ZM128.532 105.487C135.825 97.02 142.372 86.1666 146.972 74.8866L147.078 74.5666C155.692 58.3399 155.905 42.1133 146.678 30.5799C139.812 21.9799 127.825 16.2466 115.414 15.5799C103.274 14.9399 91.6996 19.0466 82.4756 27.2066C77.8503 16.3266 69.4676 7.96658 58.5849 3.49991C46.8702 -1.31342 33.2036 -1.1534 22.9236 3.92661C22.5316 4.1266 22.145 4.3266 21.765 4.52661C21.609 4.57994 21.4556 4.64662 21.309 4.73994C20.8023 5.04662 20.3049 5.3533 19.8129 5.68663C16.2622 7.95329 13.2516 10.8466 10.8009 14.2733C-0.22443 28.86 -3.19102 52.7666 3.67564 78.4999C10.2236 106.167 38.3663 136.607 50.8703 149.06C51.057 149.78 51.6089 150.393 52.3795 150.62L52.693 150.687C53.489 150.793 54.2729 150.46 54.7436 149.833C71.6289 143.673 110.438 127.7 128.532 105.487Z" fill="#040606"/>
</svg>
