<svg width="358" height="361" viewBox="0 0 358 361" fill="none" xmlns="http://www.w3.org/2000/svg">
<path d="M17.9947 240.488L17.8613 240.841L17.8879 240.803L17.9947 240.488Z" fill="#BA8D5C"/>
<path d="M35.7813 336.686C35.2479 337.945 34.3546 339.07 33.1413 339.887C32.6613 340.207 32.1546 340.446 31.6479 340.641C33.1946 341.689 34.768 342.725 36.4614 343.679C36.1014 343.025 35.7413 342.341 35.5013 341.499C35.0347 339.846 35.1679 338.162 35.7813 336.686Z" fill="#BA8D5C"/>
<path d="M165.195 108.591C164.795 108.748 164.395 108.823 163.982 108.823C162.688 108.823 161.448 108.042 160.941 106.76C149.661 78.4631 156.528 58.3097 156.821 57.467C157.435 55.7604 159.301 54.8671 161.008 55.4685C162.715 56.0698 163.608 57.939 163.008 59.6444C162.861 60.0657 156.781 78.6298 167.035 104.331C167.701 106.014 166.875 107.92 165.195 108.591ZM134.595 27.7444C134.328 28.083 118.915 48.6338 127.795 89.7804C128.168 91.5511 127.048 93.2937 125.275 93.6764C125.048 93.7257 124.808 93.7484 124.582 93.7484C123.075 93.7484 121.715 92.6991 121.382 91.1631C111.782 46.6098 128.715 24.5951 129.448 23.6791C130.568 22.2618 132.635 22.0258 134.048 23.1458C135.462 24.2698 135.702 26.3244 134.595 27.7444ZM103.541 34.7711C103.328 35.0684 82.4614 64.9724 92.968 107.12C93.408 108.879 92.3416 110.656 90.5816 111.094C90.3149 111.162 90.0482 111.191 89.7816 111.191C88.3149 111.191 86.9815 110.198 86.6081 108.708C75.3415 63.5018 97.2748 32.2604 98.2081 30.9524C99.2615 29.4845 101.315 29.1471 102.782 30.2018C104.248 31.2538 104.581 33.2991 103.541 34.7711ZM217.755 88.6578C231.701 56.0964 228.235 18.5258 228.195 18.1511C228.022 16.3498 229.341 14.7458 231.141 14.5698C232.928 14.3911 234.542 15.7124 234.728 17.5151C234.875 19.1177 238.368 57.1458 223.782 91.2351C223.248 92.4791 222.048 93.223 220.768 93.223C220.341 93.223 219.901 93.1391 219.488 92.9591C217.821 92.2471 217.048 90.3218 217.755 88.6578ZM248.408 109.023C265.541 90.1817 263.195 54.3871 263.168 54.0258C263.048 52.2204 264.408 50.6524 266.208 50.523C268.008 50.427 269.582 51.7511 269.715 53.5551C269.822 55.135 272.302 92.4964 253.262 113.431C252.608 114.144 251.728 114.504 250.835 114.504C250.048 114.504 249.261 114.223 248.635 113.651C247.288 112.435 247.195 110.362 248.408 109.023ZM284.382 122.212C289.262 118.03 293.995 105.778 295.408 101.411C295.968 99.691 297.795 98.7471 299.528 99.2978C301.248 99.8551 302.195 101.703 301.648 103.424C301.062 105.212 295.795 121.064 288.648 127.187C288.035 127.719 287.275 127.976 286.515 127.976C285.595 127.976 284.675 127.588 284.021 126.831C282.848 125.458 283.008 123.39 284.382 122.212ZM206.115 106.022C209.622 103.25 214.128 99.6871 218.115 99.6871C219.288 99.6871 220.422 99.9964 221.462 100.726C285.995 145.788 328.275 138.632 344.728 132.663C320.088 124.375 306.915 102.712 291.915 78.0324C288.902 73.0697 285.808 67.9844 282.528 62.8751C278.248 56.1978 274.528 50.0217 271.248 44.5724C258.275 23.0244 251.128 11.1538 234.408 7.24712C218.728 3.58044 203.568 15.0871 188.008 42.4204C184.035 49.3831 179.342 53.191 174.048 53.7444C166.915 54.4857 161.808 48.8351 161.595 48.5937C161.475 48.4657 161.368 48.3271 161.288 48.1817C145.088 22.7697 129.875 10.5671 116.141 11.9138C101.501 13.3498 87.2482 30.7991 74.9282 62.3711C64.9815 87.8871 44.1548 104.764 32.9548 113.831C30.8348 115.548 28.5282 117.419 27.0615 118.77C63.3282 138.987 127.728 98.8271 128.395 98.4084C129.915 97.4511 131.928 97.8937 132.901 99.411C140.195 110.79 151.715 114.852 160.101 116.259C178.008 119.259 196.795 113.379 206.115 106.022Z" fill="#E45B3C"/>
<path d="M76.2879 127.821C60.9146 131.566 44.6213 132.727 30.6479 127.593C35.8079 137.279 43.4346 153.593 47.4213 171.685C61.3413 150.686 73.9947 135.018 78.2614 129.862C77.8347 129.658 77.5412 129.505 77.4345 129.415C76.9012 129.014 76.5013 128.446 76.2879 127.821Z" fill="#E45B3C"/>
<path d="M293.554 184.003L293.288 184.014C291.608 184.014 290.168 182.713 290.034 180.997C288.648 163.685 278.301 146.937 278.195 146.769C277.248 145.234 277.701 143.211 279.248 142.254C280.768 141.298 282.794 141.758 283.755 143.293C284.221 144.029 295.048 161.534 296.568 180.477C296.714 182.281 295.368 183.861 293.554 184.003ZM269.368 213.506L269.195 213.51C267.461 213.51 266.021 212.153 265.928 210.403C264.795 188.546 249.528 169.528 249.381 169.338C248.235 167.934 248.448 165.871 249.848 164.727C251.248 163.586 253.315 163.793 254.461 165.197C255.141 166.038 271.221 186.022 272.475 210.062C272.568 211.871 271.181 213.411 269.368 213.506ZM233.315 262.059C233.141 263.738 231.715 264.981 230.061 264.981C229.941 264.981 229.834 264.974 229.701 264.96C227.914 264.764 226.608 263.145 226.808 261.347C230.301 229.393 216.808 205.403 216.675 205.165C215.781 203.597 216.314 201.594 217.888 200.693C219.461 199.789 221.461 200.327 222.354 201.895C222.954 202.942 237.061 227.889 233.315 262.059ZM279.368 137.719C279.008 138.415 278.421 138.991 277.648 139.3C241.808 153.551 215.501 197.94 190.421 242.395C190.501 242.502 190.595 242.618 190.661 242.739C195.861 251.043 198.461 263.288 197.821 276.332C197.728 278.142 196.235 279.527 194.381 279.445C192.568 279.355 191.181 277.817 191.275 276.009C191.781 265.718 190.115 256.106 186.675 249.043L186.661 249.065C180.555 259.905 174.421 270.803 168.128 281.319C172.688 283.85 218.714 306.293 274.501 218.042C299.461 178.535 322.568 154.671 337.088 141.881C324.154 144.737 304.808 145.657 279.368 137.719Z" fill="#E45B3C"/>
<path d="M219.568 132.846C230.075 135.295 257.248 139.714 269.448 134.279C254.128 128.445 236.861 119.473 217.701 106.097C217.341 106.211 215.395 107.043 210.181 111.163C199.728 119.415 178.795 126.042 159.021 122.722C146.301 120.593 136.075 114.689 129.208 105.581C122.635 109.474 105.155 119.213 84.8481 125.455C91.6881 127.677 106.435 131.067 120.035 127.241C120.328 127.161 120.635 127.119 120.928 127.119C121.621 127.119 122.301 127.342 122.875 127.759C123.275 128.054 163.341 156.81 217.501 133.038C218.155 132.753 218.888 132.69 219.568 132.846Z" fill="#F5F1DF"/>
<path d="M140.555 301.591C140.315 301.083 139.675 299.7 139.235 298.523C138.381 299.556 137.235 300.371 135.888 300.817C135.781 301.106 135.501 301.9 135.475 302.399C135.448 303.015 135.515 303.641 135.701 304.217C135.781 304.497 135.781 304.838 136.021 304.978L136.208 305.111L136.381 305.056C139.075 304.463 141.728 305.462 143.435 307.394C143.621 307.139 143.808 306.88 143.995 306.623C142.208 305.542 140.915 303.74 140.555 301.591Z" fill="#BA8D5C"/>
<path d="M7.74139 297.92C7.94139 297.654 8.20808 297.326 8.50142 296.972C7.50142 295.982 6.928 294.72 6.62134 293.403C6.66134 295.384 6.79478 297.338 6.99478 299.267C7.19478 298.802 7.44806 298.35 7.74139 297.92Z" fill="#BA8D5C"/>
<path d="M51.408 243.687C50.4213 242.486 50.1413 241.551 50.008 241.109C49.1013 238.173 50.0613 236.141 50.968 234.813C51.048 234.685 51.1547 234.549 51.2614 234.414C50.4347 234.134 49.648 233.722 48.9413 233.134C47.5547 231.984 46.3547 230.211 46.0614 227.728C45.7947 225.535 46.8346 221.533 47.2213 220.488C48.6079 216.691 52.8213 214.742 56.6213 216.131C60.4213 217.526 62.368 221.738 60.9813 225.535L60.808 226.111C61.208 228.143 60.7147 230.325 59.328 232.059C59.9014 232.338 60.848 232.829 61.448 233.147C62.0213 233.383 62.6213 233.554 63.2347 233.698C65.2747 234.191 67.3013 234.419 69.3413 233.89C73.248 232.876 77.248 235.233 78.2747 239.142C79.288 243.058 76.928 247.061 73.008 248.074C68.5947 249.223 64.208 249.01 59.7947 247.943C58.3814 247.602 57.008 247.178 55.6614 246.619C55.3414 246.485 54.6747 246.09 54.128 245.75C53.1014 245.304 52.1547 244.61 51.408 243.687ZM60.3546 211.363C61.4746 209.569 63.2079 208.157 66.0213 207.947C66.3679 207.921 68.5147 207.418 71.2747 209.625C71.9413 210.158 72.4881 210.783 72.9148 211.474C73.5814 212.291 74.4879 213.462 74.7546 214.021C75.7146 215.983 76.3412 218.071 76.9012 220.174C77.9679 224.075 75.6479 228.104 71.7546 229.162C67.8479 230.219 63.8213 227.907 62.768 224.002C62.4613 222.905 62.1947 221.795 61.728 220.755C61.0747 219.785 59.6346 217.639 59.5813 217.509C58.6613 214.646 59.5679 212.619 60.3546 211.363ZM82.4879 256.181C85.9679 257.813 87.5413 261.845 86.208 265.394C87.208 265.899 88.1146 266.61 88.8213 267.563C89.5413 268.166 90.2348 268.814 90.5148 269.263C91.5548 270.985 91.9681 273.17 92.3148 275.11C92.8348 277.981 94.4479 281.262 94.8879 284.134C95.3679 287.329 94.9146 290.255 93.4345 292.773C92.0345 295.133 89.6613 297.405 85.2213 298.698C81.3279 299.83 77.2614 297.597 76.128 293.717C75.1014 290.213 76.8213 286.559 80.0213 285.047C79.8346 284.369 79.6079 283.591 79.4213 283.029C78.7946 281.223 78.2079 279.419 77.9012 277.733C77.8079 277.207 77.6346 276.089 77.6346 276.089C77.6346 276.089 77.8345 276.614 77.9679 276.85C78.4079 277.557 80.1546 279.043 80.1546 279.043C80.1546 279.043 77.5547 273.886 77.3947 269.847C77.0214 269.741 76.6479 269.629 76.2879 269.461C75.1813 268.949 74.0479 268.39 72.9012 268.945C72.4879 269.146 72.0747 269.426 71.728 269.735C70.9814 270.841 70.2081 271.911 69.9148 272.078C69.3948 272.39 68.8747 272.611 68.3413 272.782C69.488 274.746 69.728 277.205 68.728 279.441C67.9947 281.114 68.1814 282.95 68.8481 284.633C69.5948 285.353 71.3679 287.127 71.9546 288.158C73.0213 290.028 73.448 292.047 73.0614 294.294C72.368 298.274 68.568 300.953 64.5947 300.262C61.808 299.778 59.648 297.771 58.848 295.246C57.888 294.241 56.368 292.577 55.848 291.462C53.168 285.773 52.7547 279.297 55.3413 273.488C56.2213 271.506 57.888 270.135 59.7947 269.518C59.5947 269.161 59.408 268.767 59.248 268.327C58.2613 265.763 58.8214 262.975 60.4614 261.005C60.928 260.135 61.4347 259.287 61.808 258.942C63.1947 257.689 64.8348 256.565 66.5148 255.757C71.8748 253.161 77.3413 253.782 82.4879 256.181ZM92.5148 236.713C93.3948 235.022 94.5548 233.899 95.5814 233.226C98.9681 231.01 103.515 231.954 105.728 235.337C106.728 236.858 107.088 238.61 106.861 240.283C107.541 240.776 108.141 241.393 108.621 242.122C110.875 245.487 109.955 250.041 106.595 252.287C102.061 255.311 98.5946 254.598 96.3546 253.519C93.2079 252.011 90.7147 247.874 90.9413 242.989C91.048 240.623 91.7281 238.242 92.5148 236.713ZM101.128 217.328C101.915 213.108 104.741 209.035 107.648 207.297C110.248 205.739 113.421 205.981 115.715 207.651C115.461 206.009 115.741 204.278 116.661 202.747C117.821 200.842 119.928 199.146 122.928 198.439C125.661 197.791 129.595 198.077 131.115 198.321C140.555 199.833 147.541 205.631 149.888 215.013C150.861 218.937 148.475 222.918 144.555 223.9C143.141 224.252 141.728 224.155 140.448 223.723C143.048 226.39 143.261 230.6 140.861 233.483C140.501 234.196 140.115 234.857 139.808 235.175C138.475 236.494 136.755 237.43 135.075 238.169C130.795 240.043 126.915 240.611 122.275 240.205C118.248 239.855 115.261 236.298 115.608 232.269C115.955 228.241 119.515 225.255 123.541 225.605C125.595 225.785 127.301 225.574 129.181 224.749L129.475 224.614C129.995 223.779 130.515 223.039 130.835 222.809C132.208 221.843 133.688 221.406 135.301 221.444C135.955 221.459 136.688 221.55 137.475 221.805C136.635 220.921 135.981 219.838 135.661 218.57C134.821 215.214 132.168 213.331 128.795 212.788C128.488 212.74 127.528 212.719 126.888 212.71C124.608 214.17 121.608 214.306 119.128 212.81C118.955 212.705 118.821 212.567 118.648 212.449C119.061 215.093 117.995 217.837 115.755 219.483L115.688 219.631C116.968 222.703 116.021 226.361 113.208 228.389C109.915 230.748 105.328 229.997 102.968 226.715C101.181 224.221 100.488 220.819 101.128 217.328ZM142.661 176.218C143.075 175.217 144.195 173.351 144.315 173.194C145.208 172.058 146.195 170.979 147.208 169.956C151.048 166.08 155.901 162.379 161.648 162.191C165.688 162.061 169.075 165.237 169.208 169.279C169.221 169.591 169.168 169.89 169.141 170.193C171.181 168.894 173.728 168.495 176.755 170.433C177.248 170.743 177.888 171.237 178.541 172.037C178.981 172.57 179.968 174.37 180.328 175.165C180.955 176.625 181.355 178.133 181.621 179.697C182.301 183.682 179.621 187.475 175.635 188.156C171.648 188.838 167.861 186.159 167.181 182.174C167.115 181.838 167.061 181.51 166.955 181.195C166.088 180.076 165.528 178.691 165.435 177.171C165.408 176.658 165.488 176.269 165.528 175.831C164.515 176.418 163.368 176.798 162.115 176.838C161.381 176.866 160.821 177.394 160.248 177.843C159.288 178.582 158.421 179.451 157.608 180.278C157.155 180.732 156.701 181.209 156.288 181.702C156.048 182.366 155.701 182.974 155.288 183.547C156.381 184.118 157.355 184.946 158.075 186.059C158.208 186.273 158.328 186.487 158.448 186.71L159.021 187.182C159.141 187.27 159.315 187.37 159.528 187.475C161.675 185.906 164.595 185.561 167.128 186.833C170.741 188.641 172.208 193.046 170.408 196.659C168.221 201.021 164.675 202.669 160.688 202.707C157.288 202.743 153.275 201.017 150.728 199.265C150.528 199.129 147.595 196.897 146.395 195.397C144.901 193.541 144.515 191.652 144.475 190.428C144.421 188.607 144.928 187.053 145.928 185.737C145.795 185.663 145.648 185.603 145.515 185.526C143.955 184.569 141.848 182.69 142.035 178.897C142.048 178.438 142.155 177.438 142.661 176.218ZM177.781 226.038C177.195 226.619 175.928 227.75 174.915 228.258C173.701 228.857 172.501 229.093 171.395 229.093C170.021 229.093 168.755 228.691 167.648 228.034C166.888 229.111 166.021 230.022 165.061 230.39C161.275 231.832 157.048 229.931 155.608 226.151C154.755 223.91 155.075 221.511 156.261 219.623C156.448 218.57 156.741 217.246 157.088 216.538C159.155 212.338 163.275 208.03 167.941 206.697C171.835 205.583 175.901 207.838 177.008 211.727C177.341 212.875 177.341 214.031 177.128 215.128C177.355 215.307 177.581 215.47 177.795 215.677C180.648 218.539 180.648 223.185 177.781 226.038ZM168.581 262.975C168.448 264.43 168.128 265.842 167.661 267.231C166.995 269.269 166.035 271.854 164.635 273.926C163.075 276.229 161.021 277.977 158.581 278.899C154.808 280.337 150.568 278.431 149.141 274.647C147.821 271.169 149.328 267.306 152.528 265.593C152.781 265.029 153.488 263.43 153.741 262.661C153.821 262.421 153.888 262.175 153.941 261.931C153.635 260.109 154.021 258.173 155.168 256.547C157.461 253.262 160.355 253.078 162.701 253.581C163.848 253.825 167.048 254.617 168.235 258.763C168.381 259.261 168.608 262.565 168.581 262.975ZM144.995 254.614C145.781 257.037 145.341 259.77 143.555 261.757C143.515 262.098 143.395 263.045 143.421 263.631C143.515 265.37 143.955 267.162 144.515 268.306C146.328 271.925 144.861 276.33 141.248 278.138C137.621 279.943 133.221 278.475 131.408 274.861C129.861 271.758 128.568 266.571 128.781 261.975C128.981 257.719 130.501 253.982 133.048 251.566C135.168 249.545 138.195 249.067 140.755 250.063C140.208 248.318 140.301 246.369 141.181 244.605C142.275 242.425 144.128 240.768 146.635 239.828C149.101 238.902 152.635 238.898 154.688 239.034C158.728 239.295 161.795 242.787 161.528 246.821C161.261 250.858 157.768 253.916 153.741 253.655C153.421 253.636 152.795 253.629 152.275 253.629C150.261 255.223 147.488 255.626 144.995 254.614ZM124.741 280.707C124.075 284.698 120.301 287.398 116.315 286.734C114.155 286.374 112.395 285.083 111.315 283.355C110.475 284.5 109.301 285.422 107.848 285.921C104.035 287.241 99.8613 285.205 98.5413 281.381C98.5147 281.289 98.4613 281.123 98.4213 280.939C97.9946 279.765 97.8747 278.462 98.128 277.147C98.4747 275.298 99.2481 274.342 99.6481 273.851C101.421 271.653 103.488 271.106 105.408 271.167C103.461 268.577 103.381 264.906 105.488 262.237C107.995 259.065 112.595 258.514 115.781 261.018C120.901 265.063 125.888 273.826 124.741 280.707ZM115.461 331.681C114.128 334.167 112.288 336.226 110.488 337.387C108.661 338.563 106.715 339.051 104.781 338.978C104.861 339.273 104.955 339.561 104.995 339.87C105.501 343.702 102.941 347.237 99.2213 348.002C98.7946 348.155 97.5413 348.618 96.8879 348.767C95.9946 348.973 95.1012 348.983 94.2346 348.862C93.6879 349.155 93.1146 349.407 92.4879 349.558C88.8746 350.418 85.2479 348.439 83.9546 345.07C83.5679 344.615 82.4346 343.247 82.0213 342.654C79.8746 339.649 80.3413 335.587 82.9413 333.113C82.3147 332.955 81.7146 332.757 81.1546 332.494C79.3546 331.632 77.7947 330.182 76.728 328.098C75.648 325.974 75.1147 322.737 75.2747 319.726C75.4213 316.539 76.3547 313.713 76.9947 312.603C82.1814 303.733 92.2214 301.722 101.528 302.474C105.555 302.797 108.568 306.333 108.235 310.366C107.915 314.394 104.381 317.405 100.341 317.082C98.3413 316.921 96.2347 316.881 94.2614 317.243C92.6747 317.537 91.1147 318.074 90.0614 319.393L90.0481 319.834C91.3548 320.713 92.3812 322.015 92.9012 323.623C93.8745 326.575 92.8348 329.687 90.5814 331.547C91.8881 332.041 93.0613 332.91 93.9413 334.133L94.0747 334.309C94.7947 334.066 95.8747 333.727 96.5947 333.605C95.5147 330.959 96.0613 327.814 98.208 325.673C99.5147 324.353 101.221 323.641 102.941 323.541L103.381 322.539C103.435 318.619 106.581 315.412 110.541 315.324C114.581 315.232 117.941 318.441 118.035 322.483C118.075 324.677 117.195 328.491 115.461 331.681ZM19.0747 284.955C22.9947 286.803 26.3146 291.637 25.8879 296.085C25.6613 298.497 24.5813 300.83 22.8879 302.933C21.8746 304.195 20.4747 305.318 19.6747 306.442C17.328 309.733 12.7413 310.493 9.44797 308.141C8.9813 307.805 8.58132 307.413 8.20799 306.995L8.23468 307.16C10.2614 316.047 14.168 323.818 19.9146 330.442C19.3413 328.157 18.9413 325.733 18.9014 323.353C18.808 319.306 19.6213 315.495 21.1413 312.778C23.1147 309.247 27.5813 307.979 31.1146 309.954C34.648 311.925 35.9147 316.395 33.9413 319.926C33.488 320.717 33.5147 321.871 33.5413 323.046C33.5947 325.498 34.1013 328.173 35.1413 329.723C36.5413 331.801 36.7147 334.333 35.8614 336.495C36.728 334.593 38.368 333.063 40.528 332.446C41.4614 332.179 42.3947 332.105 43.3013 332.201L44.1947 331.567C44.688 330.79 45.0079 329.789 45.2213 328.906C45.3146 328.119 45.5813 326.057 45.7013 325.603C46.568 322.611 48.5013 321.481 49.4879 321.001C48.3546 320.986 47.208 320.738 46.128 320.162C45.5547 319.857 44.9547 319.537 44.328 319.367C43.6347 319.485 42.9147 319.503 42.1947 319.415C35.2747 318.55 35.5813 312.429 35.648 311.563C35.768 310.073 36.3013 306.563 40.7013 305.126C41.248 304.946 45.0747 304.598 46.528 304.855C48.808 305.252 51.0347 306.166 53.0614 307.25C56.6214 309.163 57.968 313.607 56.048 317.174C55.3146 318.543 54.208 319.575 52.9146 320.23C55.648 320.279 58.2614 321.846 59.4614 324.502C60.168 326.062 60.288 327.745 59.9013 329.29C59.8347 329.925 59.6213 331.69 59.5813 331.882C58.8746 334.945 57.3946 338.542 55.448 341.023C54.9413 341.662 51.888 344.454 49.008 345.978C47.208 346.93 45.4747 347.334 44.0614 347.423C54.7414 352.071 64.6347 354.214 73.8614 354.217C97.5547 354.221 116.928 340.223 134.408 319.105L134.115 318.995C133.861 318.866 133.701 318.694 133.461 318.553C131.888 318.789 130.235 318.549 128.755 317.698C123.528 314.718 120.528 308.158 120.835 301.678C121.181 294.749 125.155 288.595 131.635 286.799C134.995 285.865 138.448 287.443 140.035 290.39C140.515 289.714 141.115 289.075 141.861 288.482C145.021 285.957 149.635 286.473 152.155 289.627C152.848 290.493 153.301 291.471 153.541 292.485C162.848 277.987 171.835 262.032 180.955 245.85C184.261 239.951 187.608 234.034 190.981 228.153C188.035 228.091 185.301 226.272 184.235 223.35L184.315 223.547C184.315 223.547 183.221 220.834 183.075 219.627C182.888 217.985 183.181 216.555 183.661 215.425C185.275 211.714 189.581 210.001 193.301 211.605C195.581 212.589 197.048 214.617 197.515 216.883C199.861 212.907 202.235 208.985 204.635 205.109C202.101 205.378 199.515 204.326 197.941 202.143C197.648 202.661 197.355 203.159 197.261 203.311C195.861 206.955 191.808 208.874 188.075 207.606C184.248 206.308 182.195 202.143 183.488 198.311C183.861 197.198 184.768 195.859 185.288 194.759C187.035 191.11 191.408 189.559 195.061 191.302C195.915 191.714 196.648 192.282 197.261 192.943C197.688 192.375 198.115 191.949 198.368 191.71C199.648 190.542 201.368 189.65 203.795 189.803C204.181 189.83 206.168 189.659 208.475 191.893C208.915 192.321 209.288 192.789 209.595 193.291C209.755 193.501 209.928 193.746 209.995 193.859C210.328 194.37 210.568 194.911 210.755 195.463C224.595 174.286 239.555 155.618 256.875 143.321C241.715 144.174 224.275 140.615 219.141 139.471C218.555 139.726 217.968 139.939 217.381 140.181C219.208 140.723 221.008 141.631 222.395 143.105C226.808 147.762 229.261 157.293 227.475 163.442C226.541 166.677 223.568 168.741 220.341 168.702C220.568 170.703 219.995 172.783 218.541 174.397C217.835 175.183 215.368 176.607 214.235 177.241C212.168 179.278 208.981 179.963 206.168 178.731C204.008 177.79 202.568 175.929 202.035 173.815C198.848 175.965 194.501 175.32 192.128 172.234C188.861 167.976 187.461 163.306 188.115 157.805C188.595 153.789 192.235 150.912 196.248 151.39C200.261 151.866 203.141 155.514 202.661 159.53C202.488 160.973 202.901 162.191 203.755 163.306C204.341 164.071 204.741 164.921 204.995 165.798C205.875 165.146 207.808 164.138 208.488 163.795C209.835 162.702 211.501 162.17 213.168 162.185C213.061 161.266 213.128 160.315 213.408 159.372C213.808 157.935 213.421 155.911 212.608 154.4C211.568 154.579 210.461 154.531 209.368 154.221C206.141 153.294 205.035 151.171 204.501 149.838C203.875 148.261 203.701 146.531 204.355 144.751C196.515 147.009 189.048 148.283 182.048 148.827C183.155 152.357 181.475 156.23 178.008 157.738C177.688 157.874 177.061 158.289 176.555 158.647C175.968 159.299 175.248 159.849 174.408 160.265C168.008 163.467 164.768 158.014 164.395 157.327L164.288 157.125C163.755 157.359 163.208 157.554 162.608 157.655L161.555 157.874C157.541 158.386 153.875 155.54 153.368 151.528C153.168 150.003 153.488 148.539 154.141 147.267C151.821 146.818 149.608 146.31 147.501 145.753C147.141 146.378 146.568 146.89 145.848 147.174C143.995 147.902 142.208 148.757 140.448 149.663C142.555 151.094 143.861 153.554 143.661 156.27V156.283C143.675 157.035 143.568 157.805 143.328 158.561C142.141 162.418 138.061 164.586 134.195 163.417C137.635 164.635 139.728 168.226 138.915 171.879C137.475 178.39 133.861 184.905 127.621 188.026C127.248 188.209 124.061 189.166 120.995 189.385C118.261 189.586 115.675 189.095 114.341 188.454C112.195 187.405 110.968 185.792 110.328 184.083C109.675 182.344 109.448 180.194 110.728 177.669C112.568 174.065 116.981 172.631 120.595 174.466L120.848 174.606L121.728 174.505C123.488 173.213 124.141 170.813 124.608 168.698C125.488 164.751 129.408 162.262 133.355 163.135C133.488 163.165 133.608 163.206 133.728 163.249C132.128 162.655 130.555 161.514 129.595 159.325C129.448 158.981 129.328 157.977 129.248 156.991C98.6881 181.498 86.0747 230.607 85.928 231.183C85.488 232.936 83.7013 233.999 81.9546 233.569C80.1946 233.131 79.1279 231.351 79.5679 229.595C80.2612 226.822 96.4613 163.585 138.888 143.071C129.408 139.653 122.968 135.729 120.301 133.951C118.635 134.363 116.981 134.679 115.328 134.925C119.181 138.349 121.168 143.834 120.635 149.178C119.968 156.117 115.461 162.134 107.968 163.07C103.955 163.573 100.301 160.723 99.7947 156.707C99.7547 156.382 99.7679 156.065 99.7679 155.746C99.6079 156.291 99.4079 156.833 99.1012 157.346C97.5012 160.046 95.1947 161.055 92.4747 160.942C91.6213 160.906 88.728 160.815 86.608 157.59C86.208 156.96 84.5279 153.128 84.4345 152.8C83.6612 150.126 83.6479 146.177 84.9012 143.275C86.3279 139.985 88.9414 137.638 92.9814 137.135C96.9814 136.633 100.648 139.486 101.155 143.498C101.448 145.87 100.581 148.116 98.9814 149.667L99.0481 149.798C99.7414 150.933 100.101 152.236 100.115 153.562C100.928 151.038 103.075 149.05 105.821 148.579C105.915 148.365 106.035 147.994 106.048 147.754C106.101 147.29 106.061 146.814 105.928 146.372C105.888 146.238 105.768 146.01 105.728 145.927C102.221 144.053 100.848 139.705 102.661 136.147C102.795 135.893 102.955 135.674 103.115 135.442C95.8881 135.078 89.4214 133.661 84.7947 132.259L84.6614 132.426C84.3947 132.742 76.408 142.232 65.6614 157.128C67.6214 156.634 69.568 156.487 71.3947 156.738C75.3947 157.285 78.208 160.981 77.6614 164.987C77.1147 168.995 73.4213 171.805 69.408 171.258C68.528 171.137 67.6879 171.966 66.8345 172.631C65.6879 173.535 64.568 174.614 64.2747 175.721C64.208 175.97 64.1013 176.663 64.008 177.219C65.128 179.421 65.1012 182.135 63.7012 184.385C63.4346 184.813 63.1413 185.203 62.808 185.556C63.1947 185.719 63.6214 185.923 64.0614 186.207C64.3147 186.378 64.9814 186.976 65.5947 187.567C66.4214 186.194 68.1014 183.612 69.5148 182.567C71.4214 181.156 73.5012 180.015 75.3679 178.862C75.7945 178.599 76.368 178.175 76.7413 177.887C76.6213 177.486 76.4347 176.913 76.208 176.459C74.448 172.814 75.9813 168.431 79.6213 166.675C83.2613 164.914 87.648 166.443 89.408 170.087C91.8347 175.109 91.8879 178.896 91.0879 181.855C90.2079 185.137 88.1414 187.746 85.1947 189.918C83.3147 191.285 80.928 192.453 78.7413 193.977C78.4613 194.531 77.8214 195.747 77.3814 196.423C76.3681 197.979 75.0747 199.364 73.2747 200.439C69.3813 202.764 64.7679 203.438 60.4213 201.821C59.6213 201.523 58.1014 200.322 56.928 199.325C54.7014 198.351 52.9947 196.285 52.608 193.698C52.2613 191.377 52.888 189.913 53.3146 189.074C53.6746 188.342 54.1279 187.762 54.6213 187.247C54.2879 187.103 53.9413 186.958 53.6213 186.758C51.6746 185.553 50.168 183.486 49.568 180.721C49.3547 181.049 49.1413 181.365 48.9413 181.694C48.7547 182.354 48.3814 182.941 47.8614 183.374C46.3414 185.767 44.8213 188.221 43.3146 190.715C44.488 191.014 45.608 191.575 46.5413 192.469C47.5013 193.366 48.1413 194.458 48.5013 195.625L49.6747 197.428C51.8613 200.832 50.8614 205.368 47.4614 207.55C45.7547 208.636 43.768 208.934 41.9413 208.534C41.7413 209.948 41.1413 211.321 40.1013 212.453C39.808 212.771 39.8214 213.169 39.728 213.575C38.9414 217.543 35.0746 220.117 31.1146 219.326C29.9946 219.102 29.0079 218.614 28.1546 217.97C24.7946 224.661 21.6346 231.472 18.848 238.334C19.1546 237.662 19.4747 237.05 19.808 236.665C23.2747 232.675 27.3014 230.443 32.528 229.665C36.528 229.07 40.2614 231.833 40.8614 235.835C41.0347 236.994 40.8879 238.119 40.5546 239.163C41.9279 238.977 43.5813 239.178 45.4213 240.358C45.8746 240.642 47.7547 242.371 48.8614 243.674C49.7947 244.779 50.328 245.794 50.4747 246.147C51.608 248.787 52.2079 251.85 52.4879 254.699C52.9279 259.331 51.8747 266.834 48.7413 271.399C45.4747 276.15 40.6214 278.789 33.728 276.67C32.5814 276.314 31.608 275.677 30.7947 274.886C30.4747 275.427 30.1546 275.977 29.6879 276.434C26.7679 279.239 22.128 279.147 19.328 276.234C18.2347 275.098 17.4613 273.525 16.848 272.113C15.2346 268.407 16.9146 264.081 20.6213 262.459C24.0879 260.949 28.0613 262.351 29.8879 265.565C31.4479 263.306 34.1147 262.023 36.8747 262.407C37.2213 261.411 37.7813 259.677 37.8747 258.566C37.9547 257.662 37.968 256.81 37.9013 256.102C37.7947 255.001 37.6347 253.821 37.3013 252.741L36.8747 252.278C35.328 251.046 34.2613 249.189 34.1146 247.053C34.0346 245.942 34.208 245.042 34.4614 244.225C33.3547 244.429 32.408 244.845 31.5947 245.549C31.2214 246.803 30.5814 248.773 29.9947 249.569C28.648 251.417 26.8213 252.627 24.2747 252.946C20.2613 253.449 16.5946 250.595 16.0879 246.585C16.0346 246.191 16.0613 245.809 16.0747 245.425C10.488 260.561 6.91471 275.661 6.66138 289.685C6.87471 288.937 7.18138 288.202 7.66138 287.529C9.94138 284.273 14.368 282.727 19.0747 284.955Z" fill="#BA8D5C"/>
<path d="M217.888 200.692C216.315 201.594 215.781 203.596 216.675 205.164C216.808 205.403 230.301 229.392 226.808 261.347C226.608 263.144 227.915 264.764 229.701 264.96C229.835 264.974 229.941 264.98 230.061 264.98C231.715 264.98 233.141 263.738 233.315 262.059C237.061 227.888 222.955 202.942 222.355 201.895C221.461 200.327 219.461 199.788 217.888 200.692Z" fill="#040606"/>
<path d="M163.981 108.823C164.395 108.823 164.795 108.749 165.195 108.591C166.875 107.921 167.701 106.014 167.035 104.331C156.781 78.63 162.861 60.0659 163.008 59.6446C163.608 57.9393 162.715 56.07 161.008 55.4687C159.301 54.8673 157.435 55.7606 156.821 57.4673C156.528 58.3099 149.661 78.4633 160.941 106.761C161.448 108.042 162.688 108.823 163.981 108.823Z" fill="#040606"/>
<path d="M286.515 127.977C287.275 127.977 288.035 127.719 288.648 127.187C295.795 121.065 301.061 105.213 301.648 103.425C302.195 101.703 301.248 99.8553 299.528 99.2979C297.795 98.7473 295.968 99.6912 295.408 101.411C293.995 105.778 289.261 118.03 284.381 122.213C283.008 123.39 282.848 125.458 284.021 126.831C284.675 127.589 285.595 127.977 286.515 127.977Z" fill="#040606"/>
<path d="M89.7813 111.191C90.048 111.191 90.3146 111.162 90.5813 111.094C92.3413 110.657 93.4078 108.879 92.9678 107.121C82.4611 64.9727 103.328 35.0687 103.541 34.7714C104.581 33.2994 104.248 31.2541 102.781 30.2021C101.315 29.1474 99.2612 29.4847 98.2079 30.9527C97.2745 32.2607 75.3412 63.5021 86.6079 108.709C86.9812 110.198 88.3146 111.191 89.7813 111.191Z" fill="#040606"/>
<path d="M219.488 92.9592C219.901 93.1392 220.341 93.2231 220.768 93.2231C222.048 93.2231 223.248 92.4793 223.781 91.2353C238.368 57.1459 234.875 19.1179 234.728 17.5152C234.541 15.7125 232.928 14.3912 231.141 14.5699C229.341 14.7459 228.021 16.3499 228.195 18.1513C228.235 18.5259 231.701 56.0966 217.755 88.6579C217.048 90.3219 217.821 92.2472 219.488 92.9592Z" fill="#040606"/>
<path d="M8.50128 296.973C8.20795 297.326 7.94125 297.654 7.74125 297.921C7.44792 298.35 7.19464 298.802 6.99464 299.267C6.79464 297.338 6.6612 295.385 6.6212 293.403C6.92787 294.721 7.50128 295.982 8.50128 296.973ZM16.0746 245.425C16.0613 245.809 16.0345 246.191 16.0879 246.585C16.5945 250.595 20.2613 253.449 24.2746 252.946C26.8213 252.627 28.648 251.417 29.9946 249.569C30.5813 248.773 31.2213 246.803 31.5946 245.549C32.408 244.845 33.3546 244.429 34.4613 244.225C34.208 245.042 34.0346 245.942 34.1146 247.053C34.2612 249.189 35.3279 251.046 36.8746 252.278L37.3013 252.741C37.6346 253.821 37.7946 255.001 37.9013 256.102C37.9679 256.81 37.9546 257.662 37.8746 258.566C37.7813 259.677 37.2213 261.411 36.8746 262.407C34.1146 262.023 31.4479 263.306 29.8879 265.565C28.0612 262.351 24.0879 260.949 20.6212 262.459C16.9145 264.081 15.2346 268.407 16.8479 272.113C17.4612 273.525 18.2346 275.098 19.328 276.234C22.128 279.147 26.7679 279.239 29.6879 276.434C30.1545 275.977 30.4746 275.427 30.7946 274.886C31.608 275.677 32.5813 276.314 33.728 276.67C40.6213 278.789 45.4746 276.15 48.7413 271.399C51.8746 266.834 52.9279 259.331 52.4879 254.699C52.2079 251.85 51.6079 248.787 50.4746 246.147C50.3279 245.794 49.7946 244.779 48.8613 243.674C47.7546 242.371 45.8745 240.642 45.4212 240.358C43.5812 239.178 41.9279 238.977 40.5545 239.163C40.8879 238.119 41.0346 236.994 40.8613 235.835C40.2613 231.833 36.528 229.07 32.528 229.665C27.3013 230.443 23.2746 232.675 19.8079 236.665C19.4746 237.05 19.1546 237.662 18.8479 238.334C21.6346 231.472 24.7945 224.661 28.1545 217.97C29.0079 218.614 29.9946 219.102 31.1146 219.326C35.0746 220.117 38.9413 217.543 39.728 213.575C39.8213 213.169 39.8079 212.771 40.1013 212.453C41.1413 211.321 41.7413 209.948 41.9413 208.534C43.7679 208.934 45.7546 208.636 47.4613 207.55C50.8613 205.368 51.8613 200.832 49.6746 197.428L48.5013 195.625C48.1413 194.458 47.5013 193.366 46.5413 192.469C45.6079 191.575 44.4879 191.014 43.3146 190.715C44.8212 188.221 46.3413 185.767 47.8613 183.374C48.3813 182.941 48.7546 182.354 48.9413 181.694C49.1413 181.365 49.3546 181.049 49.5679 180.721C50.1679 183.486 51.6745 185.553 53.6212 186.758C53.9412 186.958 54.2879 187.103 54.6212 187.247C54.1279 187.762 53.6746 188.342 53.3146 189.074C52.8879 189.913 52.2613 191.377 52.6079 193.698C52.9946 196.285 54.7013 198.351 56.928 199.325C58.1013 200.322 59.6212 201.523 60.4212 201.821C64.7679 203.438 69.3812 202.764 73.2746 200.439C75.0746 199.364 76.368 197.979 77.3813 196.423C77.8214 195.747 78.4613 194.531 78.7412 193.977C80.9279 192.453 83.3146 191.285 85.1946 189.918C88.1413 187.746 90.2079 185.137 91.0879 181.855C91.8879 178.896 91.8346 175.109 89.4079 170.087C87.6479 166.443 83.2612 164.914 79.6212 166.675C75.9812 168.431 74.4479 172.814 76.2079 176.459C76.4346 176.913 76.6212 177.486 76.7412 177.887C76.3679 178.175 75.7945 178.599 75.3678 178.862C73.5011 180.015 71.4213 181.156 69.5147 182.567C68.1013 183.612 66.4213 186.194 65.5946 187.567C64.9813 186.976 64.3146 186.378 64.0613 186.207C63.6213 185.923 63.1946 185.719 62.8079 185.556C63.1413 185.203 63.4345 184.813 63.7011 184.385C65.1012 182.135 65.1279 179.421 64.0079 177.219C64.1012 176.663 64.2079 175.97 64.2746 175.721C64.5679 174.614 65.6878 173.535 66.8345 172.631C67.6878 171.966 68.5279 171.137 69.4079 171.258C73.4212 171.805 77.1146 168.995 77.6613 164.987C78.208 160.981 75.3946 157.285 71.3946 156.738C69.568 156.487 67.6213 156.634 65.6613 157.128C76.408 142.232 84.3946 132.742 84.6613 132.426L84.7946 132.259C89.4213 133.661 95.888 135.078 103.115 135.442C102.955 135.674 102.795 135.893 102.661 136.147C100.848 139.705 102.221 144.053 105.728 145.927C105.768 146.01 105.888 146.238 105.928 146.372C106.061 146.814 106.101 147.29 106.048 147.754C106.035 147.994 105.915 148.365 105.821 148.579C103.075 149.05 100.928 151.038 100.115 153.562C100.101 152.236 99.7413 150.933 99.048 149.798L98.9813 149.667C100.581 148.116 101.448 145.87 101.155 143.498C100.648 139.486 96.9814 136.633 92.9814 137.135C88.9414 137.638 86.3278 139.985 84.9011 143.275C83.6478 146.177 83.6611 150.126 84.4345 152.8C84.5278 153.128 86.2079 156.96 86.6079 157.59C88.7279 160.815 91.6212 160.906 92.4746 160.942C95.1946 161.055 97.5011 160.046 99.1011 157.346C99.4078 156.833 99.6078 156.291 99.7678 155.746C99.7678 156.065 99.7546 156.382 99.7946 156.707C100.301 160.723 103.954 163.573 107.968 163.07C115.461 162.134 119.968 156.116 120.634 149.178C121.168 143.834 119.181 138.349 115.328 134.925C116.981 134.679 118.634 134.363 120.301 133.951C122.968 135.729 129.408 139.653 138.888 143.071C96.4612 163.585 80.2611 226.822 79.5678 229.595C79.1278 231.351 80.1945 233.131 81.9545 233.569C83.7012 233.999 85.488 232.937 85.928 231.183C86.0746 230.607 98.688 181.498 129.248 156.991C129.328 157.977 129.448 158.981 129.595 159.325C130.555 161.514 132.128 162.655 133.728 163.249C133.608 163.206 133.488 163.165 133.355 163.135C129.408 162.262 125.488 164.751 124.608 168.698C124.141 170.813 123.488 173.213 121.728 174.505L120.848 174.606L120.595 174.466C116.981 172.631 112.568 174.065 110.728 177.669C109.448 180.194 109.675 182.344 110.328 184.083C110.968 185.792 112.195 187.405 114.341 188.454C115.675 189.095 118.261 189.586 120.995 189.385C124.061 189.166 127.248 188.209 127.621 188.026C133.861 184.905 137.475 178.39 138.915 171.879C139.728 168.226 137.635 164.635 134.195 163.416C138.061 164.586 142.141 162.418 143.328 158.561C143.568 157.805 143.675 157.035 143.661 156.283V156.27C143.861 153.554 142.555 151.094 140.448 149.663C142.208 148.757 143.995 147.902 145.848 147.174C146.568 146.89 147.141 146.378 147.501 145.753C149.608 146.31 151.821 146.818 154.141 147.267C153.488 148.539 153.168 150.003 153.368 151.528C153.874 155.54 157.541 158.386 161.555 157.874L162.608 157.655C163.208 157.554 163.755 157.359 164.288 157.125L164.395 157.327C164.768 158.014 168.008 163.467 174.408 160.265C175.248 159.849 175.968 159.299 176.555 158.647C177.061 158.289 177.688 157.874 178.008 157.738C181.475 156.23 183.155 152.357 182.048 148.827C189.048 148.283 196.515 147.009 204.355 144.751C203.701 146.531 203.874 148.261 204.501 149.838C205.034 151.171 206.141 153.294 209.368 154.221C210.461 154.531 211.568 154.579 212.608 154.4C213.421 155.911 213.808 157.935 213.408 159.372C213.128 160.315 213.061 161.266 213.168 162.185C211.501 162.17 209.835 162.702 208.488 163.795C207.808 164.138 205.875 165.146 204.995 165.798C204.741 164.921 204.341 164.071 203.755 163.306C202.901 162.191 202.488 160.973 202.661 159.53C203.141 155.514 200.261 151.866 196.248 151.39C192.235 150.912 188.595 153.789 188.115 157.805C187.461 163.306 188.861 167.976 192.128 172.234C194.501 175.32 198.848 175.965 202.034 173.815C202.568 175.929 204.008 177.79 206.168 178.731C208.981 179.963 212.168 179.278 214.234 177.241C215.368 176.607 217.835 175.183 218.541 174.397C219.995 172.783 220.568 170.703 220.341 168.702C223.568 168.741 226.541 166.677 227.475 163.442C229.261 157.293 226.808 147.762 222.395 143.105C221.008 141.631 219.208 140.723 217.381 140.181C217.968 139.939 218.555 139.726 219.141 139.471C224.275 140.615 241.715 144.174 256.875 143.321C239.555 155.618 224.595 174.286 210.755 195.463C210.568 194.911 210.328 194.37 209.995 193.859C209.928 193.746 209.755 193.501 209.595 193.291C209.288 192.789 208.915 192.321 208.475 191.893C206.168 189.659 204.181 189.83 203.795 189.803C201.368 189.65 199.648 190.542 198.368 191.71C198.114 191.949 197.688 192.375 197.261 192.943C196.648 192.282 195.915 191.714 195.061 191.302C191.408 189.559 187.035 191.11 185.288 194.759C184.768 195.859 183.861 197.198 183.488 198.311C182.195 202.143 184.248 206.308 188.075 207.606C191.808 208.874 195.861 206.955 197.261 203.311C197.355 203.159 197.648 202.661 197.941 202.143C199.515 204.326 202.101 205.378 204.634 205.109C202.234 208.985 199.861 212.907 197.515 216.883C197.048 214.617 195.581 212.589 193.301 211.605C189.581 210.001 185.275 211.714 183.661 215.425C183.181 216.555 182.888 217.985 183.075 219.627C183.221 220.834 184.315 223.547 184.315 223.547L184.234 223.35C185.301 226.272 188.035 228.091 190.981 228.153C187.608 234.034 184.261 239.951 180.955 245.85C171.835 262.033 162.848 277.987 153.541 292.485C153.301 291.471 152.848 290.493 152.155 289.627C149.635 286.473 145.021 285.957 141.861 288.482C141.115 289.075 140.514 289.714 140.034 290.39C138.448 287.443 134.994 285.865 131.634 286.799C125.154 288.595 121.181 294.749 120.834 301.678C120.528 308.158 123.528 314.718 128.755 317.698C130.235 318.549 131.888 318.789 133.461 318.553C133.701 318.694 133.861 318.866 134.115 318.995L134.408 319.105C116.928 340.223 97.5546 354.221 73.8613 354.217C64.6346 354.214 54.7413 352.071 44.0613 347.423C45.4746 347.334 47.2079 346.93 49.0079 345.978C51.8879 344.454 54.9412 341.662 55.4479 341.023C57.3946 338.542 58.8746 334.945 59.5812 331.882C59.6212 331.69 59.8346 329.925 59.9013 329.29C60.2879 327.745 60.168 326.062 59.4613 324.502C58.2613 321.846 55.6479 320.279 52.9146 320.23C54.2079 319.575 55.3146 318.543 56.0479 317.174C57.9679 313.607 56.6213 309.163 53.0613 307.25C51.0346 306.166 48.808 305.253 46.528 304.855C45.0746 304.598 41.2479 304.946 40.7013 305.126C36.3013 306.563 35.7679 310.073 35.6479 311.563C35.5812 312.429 35.2746 318.55 42.1946 319.415C42.9146 319.503 43.6346 319.485 44.328 319.367C44.9546 319.537 45.5546 319.857 46.128 320.162C47.208 320.738 48.3545 320.986 49.4879 321.001C48.5012 321.481 46.5679 322.611 45.7013 325.603C45.5813 326.057 45.3145 328.119 45.2212 328.906C45.0079 329.789 44.688 330.79 44.1946 331.567L43.3013 332.201C42.3946 332.105 41.4613 332.179 40.528 332.446C38.368 333.063 36.728 334.593 35.8613 336.495C36.7146 334.333 36.5413 331.801 35.1413 329.723C34.1013 328.173 33.5946 325.498 33.5413 323.046C33.5146 321.871 33.4879 320.717 33.9412 319.926C35.9146 316.395 34.6479 311.925 31.1146 309.954C27.5812 307.979 23.1146 309.247 21.1413 312.778C19.6213 315.495 18.8079 319.306 18.9013 323.353C18.9413 325.733 19.3412 328.157 19.9146 330.442C14.1679 323.818 10.2613 316.047 8.23461 307.161L8.20792 306.995C8.58125 307.413 8.98123 307.805 9.44789 308.141C12.7412 310.493 17.3279 309.733 19.6746 306.442C20.4746 305.318 21.8745 304.195 22.8879 302.933C24.5812 300.83 25.6612 298.497 25.8879 296.085C26.3145 291.637 22.9946 286.803 19.0746 284.955C14.3679 282.727 9.94131 284.273 7.66131 287.529C7.18131 288.202 6.87464 288.937 6.66131 289.685C6.91464 275.661 10.4879 260.561 16.0746 245.425ZM17.9946 240.489L17.8879 240.803L17.8613 240.841L17.9946 240.489ZM30.6479 127.593C44.6212 132.727 60.9145 131.566 76.2879 127.821C76.5012 128.446 76.9011 129.014 77.4345 129.415C77.5411 129.505 77.8346 129.658 78.2613 129.862C73.9946 135.018 61.3412 150.686 47.4212 171.685C43.4345 153.593 35.8079 137.279 30.6479 127.593ZM32.9545 113.831C44.1545 104.765 64.9813 87.8872 74.928 62.3712C87.248 30.7992 101.501 13.3499 116.141 11.9139C129.875 10.5672 145.088 22.7698 161.288 48.1819C161.368 48.3272 161.475 48.4658 161.595 48.5938C161.808 48.8352 166.915 54.4858 174.048 53.7445C179.341 53.1912 184.035 49.3832 188.008 42.4205C203.568 15.0872 218.728 3.58054 234.408 7.24722C251.128 11.1539 258.275 23.0245 271.248 44.5725C274.528 50.0218 278.248 56.1979 282.528 62.8752C285.808 67.9846 288.901 73.0698 291.915 78.0325C306.915 102.712 320.088 124.375 344.728 132.663C328.275 138.633 285.995 145.789 221.461 100.726C220.421 99.9965 219.288 99.6872 218.115 99.6872C214.128 99.6872 209.621 103.25 206.115 106.022C196.795 113.379 178.008 119.259 160.101 116.259C151.714 114.853 140.194 110.79 132.901 99.4112C131.928 97.8938 129.915 97.4512 128.395 98.4085C127.728 98.8272 63.328 138.987 27.0613 118.77C28.528 117.419 30.8345 115.549 32.9545 113.831ZM122.875 127.759C122.301 127.342 121.621 127.119 120.928 127.119C120.635 127.119 120.328 127.161 120.034 127.241C106.434 131.067 91.688 127.676 84.848 125.455C105.155 119.212 122.635 109.474 129.208 105.581C136.075 114.689 146.301 120.592 159.021 122.722C178.795 126.042 199.728 119.415 210.181 111.163C215.395 107.043 217.341 106.211 217.701 106.097C236.861 119.473 254.128 128.445 269.448 134.279C257.248 139.714 230.074 135.295 219.568 132.846C218.888 132.69 218.154 132.753 217.501 133.038C163.341 156.81 123.275 128.054 122.875 127.759ZM274.501 218.042C218.714 306.293 172.688 283.85 168.128 281.319C174.421 270.803 180.555 259.905 186.661 249.065L186.675 249.043C190.115 256.106 191.781 265.718 191.275 276.009C191.181 277.817 192.568 279.355 194.381 279.445C196.235 279.527 197.728 278.142 197.821 276.333C198.461 263.289 195.861 251.043 190.661 242.739C190.595 242.618 190.501 242.502 190.421 242.395C215.501 197.94 241.808 153.551 277.648 139.3C278.421 138.991 279.008 138.415 279.368 137.719C304.808 145.657 324.155 144.737 337.088 141.881C322.568 154.671 299.461 178.535 274.501 218.042ZM143.434 307.394C141.728 305.462 139.075 304.463 136.381 305.057L136.208 305.111L136.021 304.978C135.781 304.838 135.781 304.497 135.701 304.217C135.514 303.641 135.448 303.015 135.475 302.399C135.501 301.901 135.781 301.106 135.888 300.817C137.235 300.371 138.381 299.557 139.234 298.523C139.674 299.701 140.315 301.083 140.555 301.591C140.915 303.741 142.208 305.542 143.995 306.623C143.808 306.881 143.621 307.139 143.434 307.394ZM31.6479 340.641C32.1546 340.446 32.6613 340.207 33.1413 339.887C34.3546 339.07 35.2479 337.945 35.7812 336.686C35.1679 338.162 35.0346 339.846 35.5013 341.499C35.7413 342.341 36.1013 343.025 36.4613 343.679C34.768 342.725 33.1946 341.689 31.6479 340.641ZM1.84789 308.607C6.39456 328.651 19.3813 343.589 40.4346 353.009C52.4613 358.387 63.5545 360.818 73.8879 360.818C105.848 360.814 130.421 337.506 152.115 306.282C153.408 305.335 154.341 303.97 154.795 302.409C158.155 297.406 161.475 292.234 164.728 286.929C169.568 289.69 220.568 315.62 280.034 221.544C319.968 158.364 355.768 135.519 356.115 135.295C357.275 134.57 357.835 133.239 357.608 131.967C357.635 131.672 357.608 131.371 357.541 131.072C357.275 129.778 356.235 128.778 354.941 128.537C327.181 123.423 313.435 100.811 297.515 74.6272C294.475 69.6218 291.355 64.4939 288.048 59.3365C283.821 52.7392 280.128 46.6032 276.861 41.1925C263.888 19.6405 255.314 5.40717 235.901 0.860504C217.021 -3.55283 199.501 8.98047 182.301 39.1778C180.354 42.6138 177.221 46.7992 173.408 47.2218C170.101 47.5778 167.274 45.0286 166.634 44.3859C149.061 16.9112 131.874 3.79382 115.501 5.39383C97.9945 7.11383 82.2879 25.4778 68.8212 59.9898C59.5012 83.8871 40.3013 99.4432 28.8346 108.738C21.8879 114.365 18.4213 117.167 19.3413 120.471C19.3813 120.974 19.5546 121.477 19.8346 121.93C20.0213 122.213 37.4613 149.815 42.2613 179.627C18.1546 217.557 -7.1121 269.154 1.84789 308.607Z" fill="#040606"/>
<path d="M279.248 142.254C277.702 143.211 277.248 145.234 278.195 146.769C278.301 146.937 288.648 163.685 290.035 180.997C290.168 182.713 291.608 184.014 293.288 184.014L293.555 184.003C295.368 183.861 296.715 182.281 296.568 180.477C295.048 161.534 284.221 144.029 283.755 143.293C282.795 141.758 280.768 141.298 279.248 142.254Z" fill="#040606"/>
<path d="M124.582 93.7485C124.808 93.7485 125.048 93.7259 125.275 93.6765C127.048 93.2939 128.168 91.5512 127.795 89.7806C118.915 48.6339 134.328 28.0832 134.595 27.7445C135.701 26.3245 135.462 24.2699 134.048 23.1459C132.635 22.0259 130.568 22.2619 129.448 23.6793C128.715 24.5953 111.782 46.6099 121.382 91.1632C121.715 92.6992 123.075 93.7485 124.582 93.7485Z" fill="#040606"/>
<path d="M249.848 164.727C248.448 165.871 248.235 167.934 249.381 169.338C249.528 169.528 264.795 188.546 265.928 210.403C266.021 212.152 267.461 213.51 269.195 213.51L269.368 213.506C271.181 213.411 272.568 211.871 272.475 210.062C271.221 186.022 255.141 166.038 254.461 165.196C253.315 163.792 251.248 163.586 249.848 164.727Z" fill="#040606"/>
<path d="M250.835 114.504C251.728 114.504 252.608 114.144 253.261 113.431C272.301 92.4964 269.822 55.135 269.715 53.555C269.582 51.751 268.008 50.427 266.208 50.523C264.408 50.6524 263.048 52.2204 263.168 54.0258C263.195 54.3871 265.541 90.1817 248.408 109.023C247.195 110.362 247.288 112.435 248.635 113.651C249.261 114.223 250.048 114.504 250.835 114.504Z" fill="#040606"/>
<path d="M145.515 185.526C145.648 185.603 145.795 185.663 145.928 185.737C144.928 187.053 144.421 188.607 144.475 190.428C144.515 191.652 144.901 193.541 146.395 195.397C147.595 196.897 150.528 199.129 150.728 199.265C153.275 201.017 157.288 202.743 160.688 202.707C164.675 202.669 168.221 201.02 170.408 196.659C172.208 193.046 170.741 188.64 167.128 186.832C164.595 185.56 161.675 185.906 159.528 187.475C159.315 187.37 159.141 187.27 159.021 187.182L158.448 186.71C158.328 186.487 158.208 186.272 158.075 186.059C157.355 184.946 156.381 184.118 155.288 183.547C155.701 182.974 156.048 182.366 156.288 181.702C156.701 181.209 157.155 180.732 157.608 180.278C158.421 179.451 159.288 178.582 160.248 177.843C160.821 177.394 161.381 176.866 162.115 176.838C163.368 176.798 164.515 176.418 165.528 175.831C165.488 176.269 165.408 176.658 165.435 177.171C165.528 178.691 166.088 180.076 166.955 181.195C167.061 181.51 167.115 181.838 167.181 182.174C167.861 186.159 171.648 188.838 175.635 188.156C179.621 187.475 182.301 183.682 181.621 179.697C181.355 178.133 180.955 176.625 180.328 175.165C179.968 174.37 178.981 172.57 178.541 172.037C177.888 171.237 177.248 170.743 176.755 170.432C173.728 168.495 171.181 168.894 169.141 170.192C169.168 169.89 169.221 169.591 169.208 169.279C169.075 165.237 165.688 162.061 161.648 162.191C155.901 162.379 151.048 166.08 147.208 169.956C146.195 170.979 145.208 172.058 144.315 173.194C144.195 173.351 143.075 175.217 142.661 176.218C142.155 177.438 142.048 178.438 142.035 178.897C141.848 182.69 143.955 184.568 145.515 185.526Z" fill="#040606"/>
<path d="M113.208 228.388C116.021 226.36 116.968 222.703 115.688 219.631L115.754 219.483C117.994 217.836 119.061 215.092 118.648 212.448C118.821 212.567 118.955 212.704 119.128 212.81C121.608 214.306 124.608 214.17 126.888 212.71C127.528 212.719 128.488 212.74 128.795 212.788C132.168 213.331 134.821 215.214 135.661 218.57C135.981 219.838 136.635 220.92 137.475 221.804C136.688 221.55 135.954 221.459 135.301 221.444C133.688 221.406 132.208 221.843 130.834 222.808C130.514 223.039 129.995 223.779 129.475 224.614L129.181 224.748C127.301 225.574 125.595 225.784 123.541 225.604C119.515 225.255 115.955 228.241 115.608 232.269C115.261 236.298 118.248 239.855 122.275 240.204C126.915 240.611 130.795 240.043 135.075 238.169C136.755 237.43 138.475 236.494 139.808 235.175C140.115 234.856 140.501 234.196 140.861 233.483C143.261 230.6 143.048 226.39 140.448 223.723C141.728 224.155 143.141 224.252 144.554 223.9C148.474 222.918 150.861 218.937 149.888 215.013C147.541 205.631 140.555 199.832 131.115 198.32C129.595 198.076 125.661 197.791 122.928 198.439C119.928 199.146 117.821 200.842 116.661 202.747C115.741 204.278 115.461 206.009 115.715 207.651C113.421 205.981 110.248 205.739 107.648 207.297C104.741 209.035 101.915 213.108 101.128 217.328C100.488 220.819 101.181 224.22 102.968 226.715C105.328 229.996 109.915 230.748 113.208 228.388Z" fill="#040606"/>
<path d="M177.128 215.129C177.341 214.031 177.341 212.875 177.008 211.727C175.901 207.838 171.835 205.583 167.941 206.697C163.275 208.03 159.155 212.338 157.088 216.538C156.741 217.246 156.448 218.57 156.261 219.623C155.075 221.511 154.755 223.91 155.608 226.151C157.048 229.931 161.275 231.833 165.061 230.39C166.021 230.022 166.888 229.111 167.648 228.034C168.755 228.691 170.021 229.093 171.395 229.093C172.501 229.093 173.701 228.857 174.915 228.258C175.928 227.75 177.195 226.619 177.781 226.038C180.648 223.185 180.648 218.539 177.795 215.677C177.581 215.47 177.355 215.307 177.128 215.129Z" fill="#040606"/>
<path d="M115.781 261.018C112.595 258.514 107.995 259.065 105.488 262.237C103.381 264.906 103.461 268.577 105.408 271.167C103.488 271.106 101.421 271.652 99.6481 273.851C99.2481 274.342 98.4747 275.298 98.128 277.147C97.8747 278.462 97.9946 279.765 98.4213 280.939C98.4613 281.123 98.5146 281.289 98.5413 281.381C99.8613 285.205 104.035 287.24 107.848 285.92C109.301 285.422 110.475 284.5 111.315 283.355C112.395 285.083 114.155 286.374 116.315 286.734C120.301 287.398 124.075 284.698 124.741 280.707C125.888 273.826 120.901 265.063 115.781 261.018Z" fill="#040606"/>
<path d="M66.5146 255.757C64.8346 256.565 63.1945 257.689 61.8078 258.942C61.4345 259.287 60.9279 260.135 60.4612 261.004C58.8212 262.975 58.2611 265.763 59.2478 268.327C59.4078 268.767 59.5946 269.16 59.7946 269.518C57.8879 270.135 56.2212 271.506 55.3412 273.488C52.7545 279.296 53.1678 285.773 55.8478 291.462C56.3678 292.577 57.8878 294.24 58.8478 295.246C59.6478 297.771 61.8079 299.778 64.5946 300.262C68.5679 300.953 72.3679 298.274 73.0612 294.294C73.4479 292.047 73.0211 290.028 71.9545 288.158C71.3678 287.127 69.5946 285.352 68.8479 284.632C68.1813 282.95 67.9946 281.114 68.7279 279.44C69.7279 277.204 69.4878 274.746 68.3412 272.782C68.8745 272.611 69.3946 272.39 69.9146 272.078C70.2079 271.911 70.9812 270.84 71.7279 269.735C72.0746 269.426 72.4877 269.146 72.9011 268.945C74.0477 268.39 75.1811 268.948 76.2878 269.46C76.6478 269.628 77.0212 269.741 77.3946 269.847C77.5546 273.886 80.1545 279.043 80.1545 279.043C80.1545 279.043 78.4077 277.557 77.9677 276.85C77.8344 276.614 77.6344 276.088 77.6344 276.088C77.6344 276.088 77.8077 277.207 77.9011 277.732C78.2077 279.419 78.7945 281.223 79.4211 283.029C79.6078 283.591 79.8345 284.369 80.0211 285.047C76.8211 286.559 75.1012 290.213 76.1279 293.717C77.2612 297.597 81.3278 299.83 85.2211 298.698C89.6611 297.405 92.0344 295.133 93.4344 292.773C94.9144 290.255 95.3678 287.329 94.8878 284.134C94.4478 281.262 92.8346 277.98 92.3146 275.11C91.9679 273.17 91.5546 270.984 90.5146 269.263C90.2346 268.814 89.5411 268.166 88.8211 267.563C88.1145 266.61 87.2078 265.899 86.2078 265.394C87.5412 261.844 85.9678 257.813 82.4878 256.181C77.3411 253.782 71.8746 253.161 66.5146 255.757Z" fill="#040606"/>
<path d="M61.728 220.755C62.1946 221.795 62.4613 222.905 62.7679 224.002C63.8213 227.907 67.8479 230.219 71.7545 229.162C75.6479 228.104 77.9678 224.075 76.9011 220.174C76.3411 218.071 75.7145 215.983 74.7545 214.021C74.4879 213.462 73.5813 212.291 72.9147 211.474C72.488 210.783 71.9412 210.158 71.2746 209.625C68.5146 207.418 66.3679 207.921 66.0212 207.947C63.2079 208.157 61.4745 209.569 60.3545 211.363C59.5679 212.619 58.6612 214.646 59.5812 217.509C59.6345 217.639 61.0746 219.784 61.728 220.755Z" fill="#040606"/>
<path d="M55.6613 246.619C57.0079 247.178 58.3813 247.602 59.7946 247.943C64.2079 249.01 68.5945 249.223 73.0079 248.074C76.9279 247.061 79.2879 243.058 78.2745 239.142C77.2479 235.233 73.2479 232.876 69.3412 233.89C67.3012 234.419 65.2746 234.191 63.2346 233.698C62.6212 233.554 62.0212 233.383 61.4478 233.147C60.8478 232.829 59.9013 232.338 59.3279 232.059C60.7146 230.324 61.2079 228.143 60.8079 226.111L60.9812 225.535C62.3678 221.738 60.4211 217.526 56.6211 216.131C52.8211 214.742 48.6078 216.691 47.2211 220.488C46.8345 221.532 45.7946 225.535 46.0613 227.728C46.3546 230.211 47.5545 231.984 48.9412 233.134C49.6479 233.722 50.4346 234.134 51.2613 234.414C51.1546 234.549 51.0479 234.685 50.9679 234.813C50.0612 236.141 49.1012 238.173 50.0079 241.109C50.1412 241.551 50.4212 242.486 51.4079 243.687C52.1545 244.61 53.1013 245.304 54.1279 245.75C54.6746 246.09 55.3413 246.485 55.6613 246.619Z" fill="#040606"/>
<path d="M110.541 315.325C106.581 315.413 103.435 318.619 103.382 322.539L102.941 323.541C101.221 323.641 99.5147 324.353 98.2081 325.673C96.0614 327.814 95.5148 330.959 96.5948 333.605C95.8748 333.727 94.7947 334.066 94.0747 334.309L93.9414 334.133C93.0614 332.91 91.8882 332.041 90.5815 331.547C92.8348 329.687 93.8746 326.575 92.9013 323.623C92.3813 322.015 91.3548 320.713 90.0482 319.834L90.0615 319.393C91.1148 318.074 92.6748 317.537 94.2615 317.243C96.2348 316.881 98.3414 316.921 100.341 317.082C104.381 317.405 107.915 314.394 108.235 310.366C108.568 306.333 105.555 302.797 101.528 302.474C92.2215 301.722 82.1815 303.733 76.9948 312.603C76.3548 313.713 75.4214 316.539 75.2747 319.726C75.1147 322.737 75.6481 325.974 76.7281 328.098C77.7948 330.182 79.3547 331.633 81.1547 332.494C81.7147 332.757 82.3147 332.955 82.9414 333.113C80.3414 335.587 79.8747 339.649 82.0214 342.654C82.4347 343.247 83.568 344.615 83.9547 345.07C85.248 348.439 88.8747 350.418 92.488 349.558C93.1147 349.407 93.688 349.155 94.2346 348.862C95.1013 348.983 95.9947 348.973 96.888 348.767C97.5414 348.618 98.7947 348.155 99.2214 348.002C102.941 347.237 105.501 343.702 104.995 339.87C104.955 339.561 104.862 339.273 104.782 338.978C106.715 339.051 108.661 338.563 110.488 337.387C112.288 336.226 114.128 334.167 115.461 331.681C117.195 328.491 118.075 324.677 118.035 322.483C117.941 318.441 114.581 315.233 110.541 315.325Z" fill="#040606"/>
<path d="M153.741 253.655C157.768 253.917 161.261 250.858 161.528 246.821C161.795 242.787 158.728 239.295 154.688 239.034C152.635 238.898 149.101 238.902 146.635 239.829C144.128 240.769 142.275 242.425 141.181 244.605C140.301 246.369 140.208 248.318 140.755 250.063C138.195 249.067 135.168 249.545 133.048 251.566C130.501 253.982 128.981 257.719 128.781 261.975C128.568 266.571 129.861 271.758 131.408 274.861C133.221 278.475 137.621 279.943 141.248 278.138C144.861 276.33 146.328 271.925 144.515 268.306C143.955 267.162 143.515 265.37 143.421 263.631C143.395 263.045 143.515 262.098 143.555 261.757C145.341 259.77 145.781 257.037 144.995 254.614C147.488 255.626 150.261 255.223 152.275 253.629C152.795 253.629 153.421 253.637 153.741 253.655Z" fill="#040606"/>
<path d="M162.701 253.581C160.355 253.078 157.461 253.262 155.168 256.547C154.021 258.173 153.635 260.109 153.941 261.931C153.888 262.175 153.821 262.421 153.741 262.661C153.488 263.43 152.781 265.029 152.528 265.593C149.328 267.306 147.821 271.169 149.141 274.647C150.568 278.431 154.808 280.337 158.582 278.899C161.022 277.977 163.075 276.229 164.635 273.926C166.035 271.854 166.995 269.269 167.661 267.231C168.128 265.842 168.448 264.43 168.582 262.975C168.608 262.565 168.381 259.261 168.235 258.763C167.048 254.617 163.848 253.825 162.701 253.581Z" fill="#040606"/>
<path d="M96.3546 253.519C98.5946 254.598 102.061 255.311 106.595 252.287C109.955 250.041 110.875 245.487 108.621 242.122C108.141 241.393 107.541 240.777 106.861 240.283C107.088 238.61 106.728 236.858 105.728 235.337C103.515 231.954 98.9681 231.01 95.5814 233.226C94.5548 233.899 93.3948 235.022 92.5148 236.713C91.7281 238.242 91.048 240.623 90.9413 242.989C90.7147 247.874 93.2079 252.011 96.3546 253.519Z" fill="#040606"/>
</svg>
