<svg width="48" height="71" viewBox="0 0 48 71" fill="none" xmlns="http://www.w3.org/2000/svg">
<path d="M47.506 35.309C47.506 34.684 47.118 34.124 46.533 33.905C32.009 28.447 29.278 24.218 25.667 1.58504C25.551 0.857045 24.923 0.321045 24.186 0.321045C23.449 0.321045 22.821 0.857045 22.705 1.58504C19.094 24.219 16.363 28.447 1.83897 33.905C1.25397 34.125 0.865967 34.684 0.865967 35.309C0.865967 35.934 1.25397 36.494 1.83897 36.713C16.363 42.172 19.094 46.401 22.705 69.033C22.821 69.761 23.449 70.297 24.186 70.297C24.923 70.297 25.551 69.761 25.667 69.033C29.278 46.4 32.009 42.172 46.533 36.713C47.118 36.493 47.506 35.934 47.506 35.309Z" fill="black"/>
</svg>
