<svg width="636" height="692" viewBox="0 0 636 692" fill="none" xmlns="http://www.w3.org/2000/svg">
<path d="M317.93 523.771C323.996 520.784 329.983 517.331 335.823 513.518C335.383 513.478 334.943 513.464 334.516 513.464C328.396 513.464 322.73 517.078 317.93 523.771Z" fill="#BA8D5C"/>
<path d="M313.65 531.091C313.17 532.064 312.69 533.011 312.25 534.064C311.597 535.597 310.89 537.037 310.117 538.397C321.463 533.904 332.597 528.251 343.943 521.224C343.223 518.677 342.277 516.971 341.143 515.811C332.263 521.824 323.023 526.971 313.65 531.091Z" fill="#BA8D5C"/>
<path d="M326.077 593.171C327.663 595.171 330.85 600.824 325.943 610.144C320.61 620.277 313.357 620.091 310.49 619.544C306.957 618.877 303.997 616.651 302.743 613.918C302.717 617.371 303.677 623.531 310.343 626.104C316.89 628.637 321.943 622.731 322.143 622.477C322.997 621.464 324.517 621.331 325.543 622.184C326.557 623.024 326.703 624.544 325.863 625.558C325.677 625.784 323.023 628.931 318.81 630.584C318.757 630.731 318.69 630.877 318.61 631.011L316.277 635.171C321.423 636.891 324.89 638.891 324.983 638.958C326.13 639.624 326.504 641.104 325.837 642.251C325.157 643.398 323.677 643.784 322.53 643.104C321.93 642.744 312.757 637.451 302.757 637.451C296.597 637.451 290.144 639.451 285.17 645.837C280.317 652.064 279.623 660.797 283.343 668.637C288.57 679.584 300.77 686.291 315.997 686.597C333.303 686.997 347.61 679.037 360.85 661.731C370.09 649.651 375.757 632.651 374.637 620.371C373.877 611.971 370.77 605.544 365.41 601.264C355.437 593.331 340.73 595.238 340.583 595.251C340.463 595.264 340.317 595.264 340.223 595.277C340.557 598.037 340.25 600.144 340.223 600.318C340.023 601.624 338.81 602.531 337.477 602.331C336.157 602.117 335.263 600.891 335.463 599.571C335.463 599.531 336.277 593.757 333.104 589.997C330.61 587.037 327.877 585.517 324.983 585.477C321.21 585.557 317.85 587.784 315.97 589.384L316.13 589.451C319.85 588.758 323.677 590.171 326.077 593.171Z" fill="#F5F1DF"/>
<path d="M365.397 494.824C364.61 494.291 363.743 494.037 362.85 494.037C361.677 494.037 360.49 494.491 359.477 495.384C356.757 497.757 358.103 502.451 360.677 509.837C363.197 508.024 365.063 506.651 367.877 504.437C368.81 499.317 367.357 496.157 365.397 494.824Z" fill="#BA8D5C"/>
<path d="M459.597 496.757C460.743 497.451 461.103 498.931 460.41 500.077L454.93 509.064C454.477 509.811 453.69 510.224 452.877 510.224C452.45 510.224 452.01 510.104 451.623 509.864C450.49 509.171 450.13 507.691 450.823 506.557L456.29 497.571C456.983 496.424 458.463 496.077 459.597 496.757ZM465.09 501.331C465.61 500.104 467.01 499.517 468.25 500.024C469.477 500.544 470.063 501.957 469.543 503.184L465.343 513.237C464.957 514.171 464.063 514.717 463.117 514.717C462.81 514.717 462.503 514.664 462.197 514.531C460.97 514.024 460.383 512.611 460.903 511.384L465.09 501.331ZM445.997 478.477C445.397 479.251 445.13 480.077 445.023 480.784C449.757 480.104 452.61 480.731 452.863 480.784C454.157 481.091 454.97 482.397 454.663 483.691C454.37 484.971 453.09 485.784 451.783 485.491C451.517 485.437 439.797 483.171 423.57 496.224C416.037 502.277 408.57 503.571 403.103 504.517C397.863 505.424 395.983 505.931 395.477 508.051C395.277 508.877 394.677 511.424 398.743 513.384C405.423 516.584 420.17 515.477 427.197 506.477C428.023 505.437 429.53 505.251 430.583 506.064C431.25 506.584 431.557 507.371 431.503 508.157C431.623 508.664 431.583 509.211 431.343 509.717C431.197 510.051 427.463 518.091 421.77 526.091C420.437 527.971 418.743 529.504 417.09 530.997C414.637 533.211 412.517 535.131 412.277 537.451C412.13 538.691 412.65 539.877 413.783 540.957C415.437 542.531 417.637 543.197 418.343 543.064C424.317 542.104 432.903 530.491 441.29 518.064C442.037 516.971 443.53 516.677 444.637 517.424C445.743 518.171 446.023 519.664 445.277 520.771C436.503 533.757 429.477 542.851 423.157 546.344C424.223 547.344 427.45 549.264 431.943 548.704C439.237 547.811 446.783 540.237 455.01 525.557C455.663 524.384 457.143 523.984 458.29 524.624C459.463 525.277 459.877 526.744 459.223 527.904C452.863 539.237 446.85 546.611 440.743 550.451C441.317 551.064 442.463 551.957 444.277 551.997C447.437 552.064 454.49 549.624 466.237 532.384C466.997 531.291 468.49 530.997 469.597 531.757C470.69 532.504 470.97 533.997 470.223 535.104C467.103 539.691 464.09 543.557 461.21 546.704C461.757 547.157 462.863 547.771 464.37 547.211C467.583 545.997 472.45 541.104 477.343 524.584C481.543 510.424 481.663 504.637 477.877 497.651C477.25 496.491 477.677 495.024 478.85 494.384C480.023 493.757 481.477 494.184 482.117 495.357C482.21 495.531 482.29 495.691 482.383 495.864C483.743 493.157 482.823 490.304 481.77 488.331C478.437 482.117 468.757 475.411 457.37 475.237C451.637 475.131 447.757 476.277 445.997 478.477Z" fill="#F5F1DF"/>
<path d="M324.236 327.171C329.45 340.638 328.583 349.344 327.89 356.331L327.85 356.718C327.623 358.984 325.716 360.691 323.476 360.691C323.33 360.691 323.183 360.678 323.036 360.664C320.61 360.424 318.836 358.264 319.076 355.851L319.116 355.464C319.743 349.091 320.463 341.864 316.01 330.358C308.53 310.998 309.89 304.838 318.85 292.224C328.596 278.491 329.036 263.264 329.036 263.118C329.09 260.678 331.116 258.811 333.53 258.798C335.97 258.838 337.903 260.838 337.863 263.278C337.85 263.998 337.423 281.291 326.036 297.331C319.196 306.971 317.676 310.184 324.236 327.171ZM331.796 293.891C336.676 286.878 341.716 279.624 342.45 272.011C343.236 263.758 342.196 257.904 339.45 255.051C338.063 253.624 336.21 252.931 333.77 252.931C333.49 252.931 333.196 252.944 332.89 252.958C325.196 253.451 323.93 262.038 323.05 273.198C322.783 276.691 322.543 279.704 321.89 282.011C320.076 288.478 317.116 292.251 314.503 295.584C311.41 299.518 308.956 302.638 308.73 309.491C308.583 313.864 309.943 317.504 311.516 321.744C313.583 327.291 315.93 333.584 314.916 342.571C313.61 354.198 317.97 362.851 322.943 364.504C326.516 365.691 328.93 362.651 330.05 360.744C333.69 354.558 332.676 343.398 327.356 330.878C322.836 320.238 323.05 307.131 327.85 299.704C329.103 297.784 330.436 295.838 331.796 293.891Z" fill="#F5F1DF"/>
<path d="M255.41 545.104C260.943 547.797 269.437 548.437 279.77 546.971C278.57 545.557 277.557 543.851 276.73 541.917C273.29 542.411 270.103 542.637 267.317 542.637C262.197 542.637 258.317 542.011 255.877 541.464C255.77 542.757 255.623 543.984 255.41 545.104Z" fill="#BA8D5C"/>
<path d="M263.237 528.998C260.21 529.411 256.983 531.651 256.223 536.598C259.103 537.291 265.783 538.478 275.023 537.318C272.45 530.891 267.277 528.438 263.237 528.998Z" fill="#BA8D5C"/>
<path d="M230.103 655.904C225.557 652.677 220.863 649.331 218.116 643.637C214.89 636.931 213.756 628.024 212.556 618.597C211.343 609.091 210.09 599.264 206.57 591.944C202.93 584.384 195.623 577.011 186.103 578.437C184.53 578.811 183.596 579.117 183.556 579.131C183.316 579.211 183.063 579.264 182.823 579.264C182.463 579.384 182.103 579.531 181.743 579.677C170.783 584.224 168.703 598.637 168.676 598.771V598.797C163.21 636.664 205.396 667.251 218.463 675.717C227.156 681.357 235.13 682.611 239.796 679.064C242.503 677.011 243.57 673.531 242.516 670.184C240.303 663.157 235.357 659.637 230.103 655.904Z" fill="#BA8D5C"/>
<path d="M273.25 610.89L271.156 614.064C271.703 615.17 272.436 617.184 271.756 619.237C271.356 620.45 270.33 622.09 267.676 623.024C263.876 624.344 258.756 623.61 253.956 621.064C248.583 618.21 244.61 613.637 243.33 608.837C242.236 604.69 242.65 601.57 244.583 599.544C246.463 597.557 249.09 597.37 250.65 597.45L251.77 595.73C248.21 594.477 245.25 594.477 242.97 595.717C239.437 597.65 238.25 602.184 238.037 603.184C239.383 607.264 240.436 611.744 241.183 616.597C241.383 617.904 240.477 619.144 239.17 619.344C237.863 619.544 236.623 618.637 236.41 617.33C233.77 600.184 227.237 588.33 216.97 582.117C211.49 578.797 205.583 577.49 200.276 577.184C204.81 580.21 208.476 584.797 210.916 589.864C214.77 597.877 216.076 608.104 217.33 617.984C218.476 627.01 219.57 635.544 222.463 641.557C224.663 646.117 228.663 648.957 232.903 651.97C238.303 655.81 244.423 660.17 247.116 668.744C248.01 671.61 247.93 674.544 246.97 677.17C251.317 674.21 256.223 668.584 259.076 657.864C260.903 651.01 265.183 642.544 269.383 635.25C267.05 635.744 264.85 635.77 263.263 635.557C261.943 635.384 261.01 634.184 261.17 632.85C261.343 631.544 262.57 630.61 263.863 630.77C264.263 630.81 273.69 631.864 276.823 623.704C279.383 617.024 275.29 612.597 273.25 610.89Z" fill="#F5F1DF"/>
<path d="M157.93 288.718C160.543 282.931 163.903 270.838 160.997 265.051C160.09 263.251 158.677 262.224 156.543 261.838C156.237 261.784 155.943 261.758 155.663 261.758C154.663 261.758 153.783 262.091 152.943 262.798C147.65 267.211 146.223 282.784 146.063 289.984C149.73 288.958 153.97 288.304 157.93 288.718Z" fill="#F5F1DF"/>
<path d="M123.543 318.544C124.89 319.304 125.983 319.504 126.796 319.131C128.41 318.411 129.33 315.624 129.516 314.704C129.583 314.384 129.717 314.077 129.903 313.824C128.117 311.597 127.396 309.024 127.783 306.304C128.69 299.957 135.236 294.824 139.01 292.771C136.623 290.704 133.863 288.331 130.063 288.331C127.996 288.331 125.623 289.037 122.837 290.891C119.143 293.357 117.13 298.184 117.343 304.131C117.556 310.357 120.276 316.677 123.543 318.544Z" fill="#F5F1DF"/>
<path d="M110.89 322.451C112.103 323.037 112.863 322.851 113.33 322.651C115.023 321.971 116.317 319.571 116.783 318.451C114.33 314.797 112.703 309.677 112.517 304.304C112.33 298.797 113.717 293.971 116.41 290.424C115.663 290.184 114.73 289.957 113.703 289.957C113.21 289.957 112.69 290.011 112.157 290.131C109.957 290.651 108.01 292.317 106.357 295.104C103.583 299.744 103.157 306.571 105.197 313.357C106.743 318.491 109.17 321.611 110.89 322.451Z" fill="#F5F1DF"/>
<path d="M157.023 344.077C156.076 345.091 155.076 346.011 154.05 346.811C152.996 347.624 151.476 347.424 150.663 346.371C149.85 345.318 150.05 343.798 151.103 342.984C152.103 342.211 153.076 341.304 153.996 340.304C154.17 339.998 154.396 339.731 154.69 339.518C164.73 327.718 169.036 303.758 164.61 297.198C160.076 290.518 146.33 294.264 141.356 296.971C137.49 299.064 133.09 303.291 132.556 306.984C132.316 308.638 132.876 310.118 134.276 311.491C139.743 316.918 151.49 306.984 151.61 306.877C152.61 305.997 154.13 306.104 155.01 307.104C155.876 308.104 155.783 309.624 154.783 310.504C154.503 310.744 151.45 313.384 147.37 315.451C147.25 315.544 147.13 315.638 146.996 315.718C133.783 323.144 134.876 332.544 134.93 332.944C135.103 334.251 134.183 335.464 132.876 335.651C131.583 335.851 130.356 334.958 130.156 333.651C130.09 333.238 129.037 325.518 136.37 317.798C135.53 317.638 134.69 317.398 133.876 317.024C133.276 318.904 131.823 322.144 128.81 323.518C127.223 324.238 124.61 324.691 121.156 322.731C120.876 322.571 120.583 322.384 120.303 322.184C119.317 323.918 117.637 326.104 115.17 327.118C113.157 327.944 110.943 327.838 108.796 326.784C105.423 325.171 102.357 320.664 100.583 314.744C98.3032 307.144 98.7032 299.384 101.637 293.664C101.357 293.464 101.116 293.197 100.943 292.877C98.0497 287.704 89.0097 274.958 82.0764 278.251C81.2097 278.678 80.0366 279.531 79.8366 282.184C79.2232 291.051 89.583 307.318 97.4897 312.531C98.103 312.931 98.4899 313.584 98.5699 314.304C98.5966 314.571 101.343 340.957 114.117 353.411C115.077 354.344 115.09 355.864 114.17 356.811C113.237 357.771 111.716 357.784 110.756 356.864C110.33 356.438 109.903 355.998 109.49 355.558C108.57 356.944 107.543 359.677 109.69 363.611C112.863 369.451 126.596 368.704 138.53 364.944C143.01 363.531 156.623 359.224 159.863 352.544C160.77 350.664 160.81 348.704 159.983 346.531C159.41 345.011 158.01 344.357 157.023 344.077Z" fill="#F5F1DF"/>
<path d="M302.117 402.518C293.397 403.424 285.33 410.104 285.25 410.171C284.237 411.024 282.703 410.891 281.863 409.877C280.996 408.851 281.13 407.331 282.156 406.477C282.263 406.384 283.09 405.704 284.45 404.758C282.597 402.651 278.85 399.158 274.156 399.158C273.65 399.158 273.13 399.198 272.596 399.291C267.61 400.118 263.57 402.718 260.93 406.798C257.116 412.691 256.436 421.358 259.023 431.198C261.476 440.598 264.97 446.264 268.863 447.184C272.836 448.131 277.277 444.224 280.303 440.784C287.917 432.118 293.037 429.824 297.65 428.584C297.957 428.424 298.29 428.318 298.65 428.318L298.703 428.304C299.237 428.184 299.77 428.051 300.303 427.931C301.543 427.651 302.81 427.371 304.143 426.944C318.223 422.411 317.516 416.597 316.956 412.344C315.983 406.584 307.797 401.931 302.117 402.518Z" fill="#E45B3C"/>
<path d="M266.73 324.304C271.943 337.771 271.076 346.478 270.383 353.464L270.343 353.838C270.116 356.118 268.21 357.824 265.97 357.824C265.823 357.824 265.676 357.811 265.53 357.798C263.103 357.558 261.33 355.398 261.57 352.971L261.609 352.598C262.236 346.211 262.956 338.984 258.503 327.478C251.023 308.131 252.383 301.971 261.33 289.358C271.09 275.624 271.53 260.398 271.53 260.238C271.583 257.838 273.543 255.918 275.943 255.918L276.023 255.931C278.449 255.971 280.383 257.971 280.343 260.398C280.343 261.131 279.916 278.424 268.53 294.464C261.69 304.104 260.17 307.318 266.73 324.304ZM274.303 291.011C279.17 283.998 284.209 276.744 284.943 269.131C285.729 260.891 284.689 255.024 281.943 252.184C280.556 250.758 278.703 250.064 276.263 250.064C275.983 250.064 275.676 250.064 275.383 250.091C267.69 250.584 266.409 259.171 265.543 270.331C265.276 273.824 265.036 276.838 264.383 279.144C262.57 285.611 259.61 289.371 256.996 292.704C253.903 296.651 251.449 299.758 251.223 306.624C251.076 310.984 252.436 314.638 254.009 318.864C256.076 324.424 258.423 330.718 257.409 339.704C256.103 351.318 260.463 359.984 265.436 361.638C266.583 362.011 267.596 361.931 268.503 361.611C268.69 361.558 268.863 361.478 269.036 361.424C270.663 360.638 271.849 359.051 272.543 357.864C276.183 351.678 275.17 340.518 269.85 328.011C265.33 317.371 265.529 304.251 270.343 296.838C271.596 294.904 272.943 292.958 274.303 291.011Z" fill="#F5F1DF"/>
<path d="M252.85 416.478C253.316 411.811 254.65 407.624 256.89 404.184C260.29 398.931 265.45 395.598 271.796 394.531C280.076 393.144 286.17 399.224 288.583 402.171C292.09 400.224 296.703 398.238 301.61 397.718C309.503 396.904 320.303 403.131 321.716 411.571L321.73 411.678C322.143 414.851 322.863 420.424 317.223 425.464C325.596 422.971 333.783 418.344 335.823 409.691C336.236 407.958 337.356 401.918 334.503 397.318C332.836 394.638 330.05 392.838 326.21 391.958C316.676 389.758 309.316 392.224 302.823 394.398C298.37 395.904 294.503 397.198 290.73 396.704C283.196 395.731 277.916 392.851 273.263 390.304C268.716 387.824 264.796 385.678 259.356 385.304C254.49 384.984 250.61 386.184 247.756 388.918C244.876 391.678 243.236 395.931 243.356 400.304C243.516 406.438 246.73 411.851 252.85 416.478Z" fill="#040606"/>
<path d="M216.65 437.544C213.09 437.544 209.69 438.344 206.503 439.878C203.53 455.878 201.13 470.144 200.476 482.038C204.943 486.171 210.65 488.464 216.65 488.464C230.116 488.464 241.076 477.038 241.076 462.998C241.076 448.958 230.116 437.544 216.65 437.544Z" fill="#922E21"/>
<path d="M308.29 470.131C297.556 470.131 288.823 478.477 288.823 488.744C288.823 498.997 297.556 507.357 308.29 507.357C319.023 507.357 327.756 498.997 327.756 488.744C327.756 478.477 319.023 470.131 308.29 470.131Z" fill="#922E21"/>
<path d="M380.383 391.038C368.796 391.038 359.37 400.771 359.37 412.731C359.37 424.691 368.796 434.424 380.383 434.424C391.97 434.424 401.396 424.691 401.396 412.731C401.396 400.771 391.97 391.038 380.383 391.038Z" fill="#922E21"/>
<path d="M380.596 363.491C393.316 363.491 403.663 352.264 403.663 338.464C403.663 324.664 393.316 313.437 380.596 313.437C367.89 313.437 357.556 324.664 357.556 338.464C357.556 352.264 367.89 363.491 380.596 363.491Z" fill="#922E21"/>
<path d="M208.783 365.971C211.557 367.291 214.53 367.971 217.61 367.971C229.183 367.971 238.61 358.237 238.61 346.277C238.61 334.317 229.183 324.584 217.61 324.584C212.583 324.584 207.81 326.437 204.01 329.771C204.823 338.224 206.037 346.664 207.237 354.944C207.757 358.597 208.29 362.277 208.783 365.971Z" fill="#922E21"/>
<path d="M259.69 380.491C266.183 380.931 270.957 383.544 275.583 386.077C280.077 388.53 284.716 391.064 291.343 391.917C294.036 392.277 297.396 391.13 301.29 389.837C308.036 387.57 316.436 384.757 327.29 387.251C332.423 388.437 336.237 390.97 338.597 394.77C342.33 400.784 341.183 407.984 340.517 410.81C337.37 424.117 322.397 432.224 299.437 433.091C295.143 434.184 290.943 435.97 283.93 443.97C279.143 449.41 274.516 452.157 270.143 452.157C269.343 452.157 268.543 452.064 267.756 451.877C261.876 450.49 257.37 443.944 254.356 432.424C253.436 428.891 252.93 425.491 252.77 422.251C243.703 416.437 238.757 408.917 238.53 400.437C238.383 394.73 240.583 389.117 244.423 385.437C248.236 381.784 253.503 380.064 259.69 380.491ZM308.29 512.17C294.903 512.17 284.01 501.664 284.01 488.744C284.01 475.824 294.903 465.317 308.29 465.317C321.676 465.317 332.57 475.824 332.57 488.744C332.57 501.664 321.676 512.17 308.29 512.17ZM380.597 308.61C395.97 308.61 408.476 321.997 408.476 338.464C408.476 354.931 395.97 368.317 380.597 368.317C365.237 368.317 352.73 354.931 352.73 338.464C352.73 321.997 365.237 308.61 380.597 308.61ZM380.383 439.237C366.143 439.237 354.556 427.344 354.556 412.731C354.556 398.117 366.143 386.224 380.383 386.224C394.623 386.224 406.21 398.117 406.21 412.731C406.21 427.344 394.623 439.237 380.383 439.237ZM243.437 346.277C243.437 360.89 231.85 372.784 217.61 372.784C214.81 372.784 212.103 372.331 209.49 371.451C211.65 388.824 212.77 406.571 209.383 424.491L208.543 428.931C208.21 430.73 207.876 432.491 207.543 434.251C210.463 433.264 213.503 432.717 216.65 432.717C232.77 432.717 245.89 446.304 245.89 462.997C245.89 479.704 232.77 493.277 216.65 493.277C210.743 493.277 205.09 491.437 200.276 488.064C200.263 497.344 201.636 504.864 205.09 510.21C209.943 517.717 215.957 521.317 221.263 524.491C228.117 528.597 234.61 532.49 235.903 543.13C236.757 550.224 240.463 553.744 243.676 553.597C247.316 553.41 251.063 548.664 251.223 538.504C251.343 530.744 255.81 525.144 262.597 524.224C268.943 523.357 277.21 527.184 280.276 537.624C282.023 543.597 285.517 547.024 290.117 547.291C295.623 547.637 303.21 543.064 307.81 532.197C317.023 510.384 329.65 508.117 336.37 508.717C347.263 509.691 349.437 520.064 350.13 530.091C350.517 535.811 352.89 538.81 354.797 539.637C355.917 540.13 357.01 539.97 357.956 539.197C360.09 537.464 361.716 532.504 359.89 523.77C359.076 519.824 357.73 516.011 356.437 512.317C353.583 504.184 350.89 496.504 356.29 491.757C359.73 488.744 364.477 488.37 368.103 490.837C372.023 493.504 374.93 499.944 371.317 510.01C370.85 511.317 370.93 512.49 371.543 513.41C372.21 514.37 373.45 515.011 374.797 515.051C376.597 515.144 379.143 513.771 380.023 511.491C381.263 508.264 381.037 502.504 378.983 485.851C378.77 484.157 378.57 482.584 378.37 481.131C377.157 472.05 376.423 466.571 380.303 460.184C380.983 459.037 382.476 458.677 383.61 459.37C384.743 460.05 385.103 461.544 384.423 462.677C383.01 465.01 382.383 467.144 382.237 469.664C389.903 459.544 415.463 423.664 425.717 383.184C426.183 381.224 427.583 379.544 429.45 378.744C431.317 377.917 433.49 378.024 435.276 379.037C435.983 379.53 436.237 379.477 436.33 379.464C436.557 379.424 437.41 379.131 438.69 377.131C444.103 368.664 453.143 325.051 449.09 308.517C434.69 306.291 402.17 300.024 367.756 293.384L341.303 288.277C339.583 291.13 337.663 293.904 335.756 296.637C334.436 298.544 333.116 300.437 331.89 302.331C327.956 308.411 327.917 319.877 331.797 328.997C337.797 343.117 338.676 355.571 334.21 363.184C331.09 368.504 326.303 370.704 321.423 369.077C314.556 366.797 308.477 356.77 310.13 342.037C311.01 334.197 308.97 328.717 306.997 323.424C305.397 319.104 303.73 314.651 303.917 309.317C304.197 300.904 307.503 296.677 310.717 292.61C312.73 290.037 314.797 287.397 316.33 283.464L316.01 283.397C306.196 281.464 296.89 279.624 287.69 277.651C285.476 283.317 281.837 288.597 278.25 293.757C276.93 295.677 275.61 297.571 274.383 299.464C270.45 305.531 270.41 316.997 274.29 326.131C280.29 340.237 281.17 352.704 276.703 360.304C276.41 360.797 276.117 361.264 275.797 361.691C276.13 362.131 276.343 362.664 276.317 363.251C276.25 364.571 275.05 365.584 273.81 365.544C273.196 365.504 271.943 365.597 270.663 365.97C270.317 366.077 269.983 366.197 269.637 366.344C269.023 366.624 268.437 366.984 267.983 367.464C267.063 368.424 266.703 369.771 266.85 371.597C266.997 373.331 267.57 374.504 268.57 375.184C270.663 376.597 274.397 375.904 275.65 375.517C276.93 375.117 278.277 375.837 278.663 377.104C279.063 378.37 278.356 379.717 277.09 380.117C276.703 380.237 274.597 380.851 272.063 380.851C270.063 380.851 267.81 380.477 265.89 379.184C264.33 378.144 262.397 376.037 262.05 371.997C261.823 369.291 262.437 367.331 263.263 365.891C256.677 363.197 251.01 353.424 252.623 339.17C253.503 331.317 251.463 325.85 249.49 320.544C247.876 316.237 246.223 311.771 246.41 306.451C246.69 298.024 249.996 293.811 253.21 289.731C255.65 286.611 258.196 283.384 259.743 277.837C260.183 276.277 260.41 273.957 260.623 271.41C237.583 266.144 221.25 262.077 218.223 261.317C215.503 263.277 204.436 273.171 203.143 305.624C202.89 311.731 203.077 317.891 203.53 324.051C207.677 321.264 212.543 319.77 217.61 319.77C231.85 319.77 243.437 331.664 243.437 346.277Z" fill="#ED9C36"/>
<path d="M219.063 256.558C220.077 256.811 225.81 258.251 234.917 260.437C233.317 253.731 237.397 246.611 237.623 246.237C238.29 245.091 239.757 244.704 240.917 245.384C242.063 246.051 242.45 247.517 241.783 248.677C241.73 248.757 237.13 256.837 240.783 261.837C246.623 263.224 253.45 264.824 261.023 266.571C261.877 257.371 264.01 245.997 275.063 245.277C279.37 244.997 282.85 246.198 285.397 248.824C289.223 252.771 290.69 259.771 289.743 269.598C289.623 270.758 289.423 271.904 289.17 273.024C298.183 274.958 307.317 276.771 316.943 278.677L317.65 278.811C317.917 277.104 318.077 275.011 318.25 272.824C318.983 263.318 320.117 248.957 332.57 248.144C336.877 247.864 340.357 249.064 342.903 251.704C346.73 255.651 348.197 262.638 347.25 272.464C346.863 276.451 345.557 280.224 343.757 283.851L367.543 288.424C364.903 278.944 368.797 271.971 368.983 271.651C369.65 270.491 371.117 270.104 372.277 270.771C373.423 271.424 373.823 272.891 373.17 274.051C373.01 274.318 369.477 280.824 372.983 289.477C377.677 290.384 382.317 291.278 386.877 292.158C385.943 285.904 387.943 278.317 388.037 277.971C388.383 276.677 389.703 275.918 390.997 276.264C392.277 276.611 393.037 277.931 392.69 279.224C392.677 279.304 390.45 287.691 391.943 292.904L391.957 293.131C411.957 296.971 429.863 300.357 441.863 302.438C439.597 300.877 437.343 298.797 435.383 296.011C429.597 287.784 428.103 275.891 430.93 260.664C432.77 250.678 440.237 232.664 455.743 229.224C448.53 222.304 443.73 219.117 426.943 216.544C422.33 215.837 418.61 215.424 414.997 215.024C402.85 213.678 394.077 212.718 367.277 202.331C334.463 189.611 313.57 201.731 313.357 201.864C312.69 202.251 311.863 202.304 311.157 202.011C274.25 185.957 256.917 208.464 256.197 209.437C255.41 210.491 253.903 210.718 252.837 209.931C251.77 209.144 251.543 207.637 252.33 206.571C252.383 206.491 254.063 204.264 257.41 201.544C249.757 200.757 233.343 200.824 222.77 213.624C208.597 230.824 218.917 256.211 219.023 256.464L219.063 256.558Z" fill="#BA8D5C"/>
<path d="M435.663 261.544C433.076 275.437 434.316 286.104 439.33 293.237C443.783 299.571 450.063 301.424 453.41 301.971C463.556 303.624 473.41 295.277 476.836 282.117C481.076 265.824 480.396 253.037 474.81 244.104C469.77 236.024 462.143 233.797 460.796 233.464C445.01 233.677 437.45 251.891 435.663 261.544Z" fill="#BA8D5C"/>
<path d="M265.037 614.57L312.703 542.557C310.423 543.464 308.143 544.33 305.837 545.157C305.557 545.264 305.29 545.317 304.997 545.304C300.53 549.904 295.183 552.424 289.837 552.104C288.663 552.037 287.53 551.837 286.45 551.49L250.69 606.197C250.076 607.144 248.903 607.504 247.876 607.144C247.916 607.304 247.957 607.45 247.997 607.61C248.93 611.13 252.01 614.57 256.223 616.81C259.796 618.704 263.583 619.344 266.076 618.464C266.263 618.41 266.423 618.33 266.57 618.264C266.277 618.21 265.983 618.09 265.717 617.917C264.61 617.184 264.303 615.677 265.037 614.57Z" fill="#3F4143"/>
<path d="M316.597 594.277C316.29 594.371 315.97 594.384 315.676 594.344C315.436 594.331 315.197 594.277 314.97 594.184C314.863 594.144 304.743 590.077 291.396 583.491L282.103 597.517C294.557 604.091 305.29 609.091 305.41 609.144C305.69 609.277 305.943 609.464 306.143 609.677C306.57 610.064 306.863 610.597 306.93 611.211C307.076 612.571 308.903 614.331 311.396 614.811C315.223 615.544 318.983 613.024 321.676 607.891C324.196 603.104 324.423 598.837 322.303 596.171C320.943 594.464 318.703 593.717 316.597 594.277Z" fill="#3F4143"/>
<path d="M268.05 570.837C261.65 566.344 258.97 559.811 260.25 551.717C257.997 551.264 255.93 550.624 254.076 549.797C251.703 555.731 247.596 558.224 243.93 558.411C242.85 558.464 241.73 558.317 240.623 557.971C240.623 565.504 242.81 571.357 247.156 575.424C249.863 577.957 253.903 580.957 259.21 584.371L268.05 570.837Z" fill="#3F4143"/>
<path d="M170.81 386.438C155.836 380.691 151.156 370.238 149.823 365.931C146.476 367.398 143.023 368.571 139.983 369.531C137.423 370.344 134.716 371.038 131.983 371.584C135.543 378.758 143.477 389.731 149.637 394.798C171.69 412.891 199.53 409.144 206.503 407.838C206.85 401.504 206.73 395.198 206.343 388.904C200.463 390.038 186.436 392.438 170.81 386.438Z" fill="#3F4143"/>
<path d="M437.53 394.144C435.037 396.424 430.557 407.024 430.93 412.117C438.023 414.317 465.77 425.917 460.997 470.651C466.823 471.331 472.117 473.424 476.41 476.197C484.85 415.491 444.383 396.851 437.53 394.144Z" fill="#3F4143"/>
<path d="M453.65 306.877C458.423 324.864 448.823 370.211 442.743 379.731C441.09 382.317 439.236 383.824 437.223 384.211C435.663 384.504 434.09 384.104 432.677 383.077C432.437 382.957 431.863 382.944 431.37 383.157C430.89 383.371 430.517 383.811 430.397 384.331C418.063 433.077 384.117 475.131 383.77 475.557C383.463 475.944 383.05 476.197 382.61 476.331C382.757 477.597 382.943 478.984 383.143 480.504C383.343 481.971 383.557 483.544 383.77 485.264C384.01 487.184 384.223 488.971 384.41 490.624C406.863 470.304 425.277 447.024 439.197 421.357C433.69 417.571 428.877 416.504 428.37 416.397C427.517 416.224 426.81 415.597 426.543 414.757C424.663 408.771 430.743 391.157 436.517 389.211C436.997 389.037 437.53 389.037 438.023 389.197C438.196 389.251 443.863 391.157 451.103 396.104C462.903 366.837 468.957 335.397 469.103 302.571C464.503 305.891 459.157 307.504 453.65 306.877Z" fill="#BA8D5C"/>
<path d="M164.61 297.197C169.036 303.757 164.729 327.717 154.689 339.517C154.396 339.731 154.17 339.997 153.996 340.304C153.076 341.304 152.103 342.211 151.103 342.984C150.05 343.797 149.85 345.317 150.663 346.37C151.476 347.424 152.996 347.624 154.05 346.81C155.076 346.01 156.076 345.09 157.023 344.077C158.009 344.357 159.41 345.01 159.983 346.53C160.81 348.704 160.77 350.664 159.863 352.544C156.623 359.224 143.01 363.53 138.53 364.944C126.596 368.704 112.863 369.45 109.689 363.61C107.543 359.677 108.569 356.944 109.489 355.557C109.903 355.997 110.329 356.437 110.756 356.864C111.716 357.784 113.236 357.77 114.17 356.81C115.09 355.864 115.076 354.344 114.116 353.41C101.343 340.957 98.5963 314.57 98.5697 314.304C98.4897 313.584 98.1028 312.93 97.4895 312.53C89.5828 307.317 79.223 291.051 79.8363 282.184C80.0363 279.531 81.2095 278.677 82.0762 278.251C89.0095 274.957 98.0495 287.704 100.943 292.877C101.116 293.197 101.356 293.464 101.636 293.664C98.703 299.384 98.3029 307.144 100.583 314.744C102.356 320.664 105.423 325.171 108.796 326.784C110.943 327.837 113.156 327.944 115.17 327.117C117.636 326.104 119.316 323.917 120.303 322.184C120.583 322.384 120.876 322.57 121.156 322.73C124.609 324.69 127.223 324.237 128.81 323.517C131.823 322.144 133.276 318.904 133.876 317.024C134.69 317.397 135.53 317.637 136.37 317.797C129.036 325.517 130.089 333.237 130.156 333.651C130.356 334.957 131.583 335.851 132.876 335.651C134.183 335.464 135.103 334.25 134.93 332.944C134.876 332.544 133.783 323.144 146.996 315.717C147.13 315.637 147.25 315.544 147.37 315.451C151.45 313.384 154.503 310.744 154.783 310.504C155.783 309.624 155.876 308.104 155.01 307.104C154.13 306.104 152.61 305.997 151.61 306.877C151.49 306.984 139.743 316.917 134.276 311.491C132.876 310.117 132.316 308.637 132.556 306.984C133.089 303.291 137.489 299.064 141.356 296.97C146.329 294.264 160.076 290.517 164.61 297.197ZM170.81 386.437C186.436 392.437 200.463 390.037 206.343 388.904C206.73 395.197 206.85 401.504 206.503 407.837C199.53 409.144 171.69 412.89 149.636 394.797C143.476 389.73 135.543 378.757 131.983 371.584C134.716 371.037 137.423 370.344 139.983 369.53C143.023 368.57 146.476 367.397 149.823 365.93C151.156 370.237 155.836 380.69 170.81 386.437ZM204.01 329.77C207.81 326.437 212.583 324.584 217.609 324.584C229.183 324.584 238.609 334.317 238.609 346.277C238.609 358.237 229.183 367.97 217.609 367.97C214.529 367.97 211.556 367.29 208.783 365.97C208.29 362.277 207.756 358.597 207.236 354.944C206.036 346.664 204.823 338.224 204.01 329.77ZM203.143 305.624C204.436 273.171 215.503 263.277 218.223 261.317C221.249 262.077 237.583 266.144 260.623 271.41C260.409 273.957 260.183 276.277 259.743 277.837C258.196 283.384 255.649 286.611 253.209 289.73C249.996 293.81 246.689 298.024 246.41 306.451C246.223 311.771 247.876 316.237 249.489 320.544C251.463 325.85 253.503 331.317 252.623 339.17C251.009 353.424 256.676 363.197 263.263 365.891C262.436 367.331 261.823 369.29 262.05 371.997C262.396 376.037 264.329 378.144 265.889 379.184C267.809 380.477 270.063 380.851 272.063 380.851C274.596 380.851 276.703 380.237 277.089 380.117C278.356 379.717 279.063 378.37 278.663 377.104C278.276 375.837 276.93 375.117 275.65 375.517C274.396 375.904 270.663 376.597 268.57 375.184C267.57 374.504 266.996 373.33 266.85 371.597C266.703 369.77 267.063 368.424 267.983 367.464C268.436 366.984 269.023 366.624 269.636 366.344C269.983 366.197 270.316 366.077 270.663 365.97C271.943 365.597 273.196 365.504 273.809 365.544C275.049 365.584 276.25 364.571 276.316 363.251C276.343 362.664 276.13 362.131 275.796 361.691C276.116 361.264 276.41 360.797 276.703 360.304C281.17 352.704 280.289 340.237 274.289 326.13C270.409 316.997 270.45 305.53 274.383 299.464C275.61 297.57 276.93 295.677 278.25 293.757C281.836 288.597 285.476 283.317 287.689 277.651C296.889 279.624 306.196 281.464 316.009 283.397L316.33 283.464C314.796 287.397 312.73 290.037 310.716 292.61C307.503 296.677 304.196 300.904 303.916 309.317C303.73 314.651 305.396 319.104 306.996 323.424C308.97 328.717 311.01 334.197 310.13 342.037C308.476 356.77 314.556 366.797 321.423 369.077C326.303 370.704 331.089 368.504 334.21 363.184C338.676 355.571 337.796 343.117 331.796 328.997C327.916 319.877 327.956 308.41 331.889 302.331C333.116 300.437 334.436 298.544 335.756 296.637C337.663 293.904 339.583 291.13 341.303 288.277L367.756 293.384C402.169 300.024 434.689 306.291 449.089 308.517C453.143 325.051 444.103 368.664 438.689 377.13C437.409 379.13 436.556 379.424 436.33 379.464C436.236 379.477 435.983 379.53 435.276 379.037C433.489 378.024 431.316 377.917 429.45 378.744C427.583 379.544 426.183 381.224 425.716 383.184C415.463 423.664 389.903 459.544 382.236 469.664C382.383 467.144 383.009 465.01 384.423 462.677C385.103 461.544 384.743 460.05 383.609 459.37C382.476 458.677 380.983 459.037 380.303 460.184C376.423 466.571 377.156 472.05 378.37 481.13C378.57 482.584 378.77 484.157 378.983 485.851C381.036 502.504 381.263 508.264 380.023 511.491C379.143 513.771 376.596 515.144 374.796 515.051C373.45 515.011 372.209 514.37 371.543 513.41C370.929 512.49 370.85 511.317 371.316 510.01C374.93 499.944 372.023 493.504 368.103 490.837C364.476 488.37 359.729 488.744 356.289 491.757C350.889 496.504 353.583 504.184 356.436 512.317C357.73 516.011 359.076 519.824 359.889 523.77C361.716 532.504 360.089 537.464 357.956 539.197C357.009 539.97 355.916 540.13 354.796 539.637C352.89 538.81 350.516 535.811 350.13 530.09C349.436 520.064 347.263 509.691 336.37 508.717C329.65 508.117 317.023 510.384 307.809 532.197C303.209 543.064 295.623 547.637 290.116 547.29C285.516 547.024 282.023 543.597 280.276 537.624C277.209 527.184 268.943 523.357 262.596 524.224C255.81 525.144 251.343 530.744 251.223 538.504C251.063 548.664 247.316 553.41 243.676 553.597C240.463 553.744 236.756 550.224 235.903 543.13C234.61 532.49 228.116 528.597 221.263 524.491C215.956 521.317 209.943 517.717 205.089 510.21C201.636 504.864 200.263 497.344 200.276 488.064C205.09 491.437 210.743 493.277 216.65 493.277C232.77 493.277 245.889 479.704 245.889 462.997C245.889 446.304 232.77 432.717 216.65 432.717C213.503 432.717 210.463 433.264 207.543 434.251C207.876 432.491 208.21 430.73 208.543 428.93L209.383 424.491C212.77 406.571 211.649 388.824 209.489 371.451C212.103 372.331 214.809 372.784 217.609 372.784C231.85 372.784 243.436 360.89 243.436 346.277C243.436 331.664 231.85 319.77 217.609 319.77C212.543 319.77 207.676 321.264 203.53 324.051C203.076 317.891 202.89 311.731 203.143 305.624ZM269.85 328.01C275.17 340.517 276.183 351.677 272.543 357.864C271.849 359.05 270.663 360.637 269.036 361.424C268.863 361.477 268.69 361.557 268.503 361.61C267.596 361.93 266.583 362.01 265.436 361.637C260.463 359.984 256.103 351.317 257.41 339.704C258.423 330.717 256.076 324.424 254.009 318.864C252.436 314.637 251.076 310.984 251.223 306.624C251.449 299.757 253.903 296.65 256.996 292.704C259.61 289.37 262.57 285.61 264.383 279.144C265.036 276.837 265.276 273.824 265.543 270.331C266.41 259.171 267.69 250.584 275.383 250.091C275.676 250.064 275.983 250.064 276.263 250.064C278.703 250.064 280.556 250.757 281.943 252.184C284.689 255.024 285.729 260.891 284.943 269.13C284.209 276.744 279.17 283.997 274.303 291.01C272.943 292.957 271.596 294.904 270.343 296.837C265.529 304.25 265.33 317.37 269.85 328.01ZM327.356 330.877C332.676 343.397 333.69 354.557 330.05 360.744C328.93 362.65 326.516 365.69 322.943 364.504C317.969 362.85 313.61 354.197 314.916 342.57C315.93 333.584 313.583 327.29 311.516 321.744C309.943 317.504 308.583 313.864 308.73 309.491C308.956 302.637 311.41 299.517 314.503 295.584C317.116 292.251 320.076 288.477 321.889 282.01C322.543 279.704 322.783 276.69 323.05 273.197C323.93 262.037 325.196 253.451 332.889 252.957C333.196 252.944 333.49 252.93 333.77 252.93C336.21 252.93 338.063 253.624 339.45 255.051C342.196 257.904 343.236 263.757 342.45 272.01C341.716 279.624 336.676 286.877 331.796 293.891C330.436 295.837 329.103 297.784 327.85 299.704C323.05 307.13 322.836 320.237 327.356 330.877ZM222.77 213.624C233.343 200.824 249.756 200.757 257.41 201.544C254.063 204.264 252.383 206.49 252.33 206.57C251.543 207.637 251.77 209.144 252.836 209.931C253.903 210.717 255.41 210.49 256.196 209.437C256.916 208.464 274.249 185.957 311.156 202.01C311.863 202.304 312.689 202.25 313.356 201.864C313.569 201.73 334.463 189.611 367.276 202.331C394.076 212.717 402.85 213.677 414.996 215.024C418.61 215.424 422.329 215.837 426.943 216.544C443.729 219.117 448.529 222.304 455.743 229.224C440.236 232.664 432.77 250.677 430.93 260.664C428.103 275.891 429.596 287.784 435.383 296.01C437.343 298.797 439.596 300.877 441.863 302.437C429.863 300.357 411.956 296.97 391.956 293.13L391.943 292.904C390.449 287.69 392.676 279.304 392.689 279.224C393.036 277.931 392.276 276.611 390.996 276.264C389.703 275.917 388.383 276.677 388.036 277.97C387.943 278.317 385.943 285.904 386.876 292.157C382.316 291.277 377.676 290.384 372.983 289.477C369.476 280.824 373.01 274.317 373.17 274.051C373.823 272.891 373.423 271.424 372.276 270.77C371.116 270.104 369.65 270.491 368.983 271.651C368.796 271.971 364.903 278.944 367.543 288.424L343.756 283.851C345.556 280.224 346.863 276.451 347.25 272.464C348.196 262.637 346.73 255.65 342.903 251.704C340.356 249.064 336.876 247.864 332.57 248.144C320.116 248.957 318.983 263.317 318.25 272.824C318.076 275.011 317.916 277.104 317.65 278.81L316.943 278.677C307.316 276.77 298.183 274.957 289.17 273.024C289.423 271.904 289.623 270.757 289.743 269.597C290.689 259.771 289.223 252.771 285.396 248.824C282.85 246.197 279.37 244.997 275.063 245.277C264.01 245.997 261.876 257.37 261.023 266.57C253.449 264.824 246.623 263.224 240.783 261.837C237.13 256.837 241.73 248.757 241.783 248.677C242.45 247.517 242.063 246.051 240.916 245.384C239.756 244.704 238.289 245.09 237.623 246.237C237.396 246.61 233.316 253.73 234.916 260.437C225.81 258.25 220.076 256.811 219.063 256.557L219.023 256.464C218.916 256.21 208.596 230.824 222.77 213.624ZM474.809 244.104C480.396 253.037 481.076 265.824 476.836 282.117C473.41 295.277 463.556 303.624 453.409 301.97C450.063 301.424 443.783 299.57 439.33 293.237C434.316 286.104 433.076 275.437 435.663 261.544C437.45 251.89 445.01 233.677 460.796 233.464C462.143 233.797 469.769 236.024 474.809 244.104ZM451.103 396.104C443.863 391.157 438.196 389.25 438.023 389.197C437.529 389.037 436.996 389.037 436.516 389.21C430.743 391.157 424.663 408.771 426.543 414.757C426.809 415.597 427.516 416.224 428.37 416.397C428.876 416.504 433.69 417.571 439.196 421.357C425.276 447.024 406.863 470.304 384.409 490.624C384.223 488.971 384.01 487.184 383.77 485.264C383.556 483.544 383.343 481.97 383.143 480.504C382.943 478.984 382.756 477.597 382.609 476.33C383.049 476.197 383.463 475.944 383.77 475.557C384.116 475.131 418.063 433.077 430.396 384.33C430.516 383.81 430.89 383.371 431.37 383.157C431.863 382.944 432.436 382.957 432.676 383.077C434.089 384.104 435.663 384.504 437.223 384.21C439.236 383.824 441.089 382.317 442.743 379.73C448.823 370.21 458.423 324.864 453.65 306.877C459.156 307.504 464.503 305.89 469.103 302.57C468.956 335.397 462.903 366.837 451.103 396.104ZM476.409 476.197C472.116 473.424 466.823 471.331 460.996 470.651C465.77 425.917 438.023 414.317 430.93 412.117C430.556 407.024 435.036 396.424 437.53 394.144C444.383 396.85 484.849 415.49 476.409 476.197ZM481.77 488.33C482.823 490.304 483.743 493.157 482.383 495.864C482.29 495.69 482.21 495.531 482.116 495.357C481.476 494.184 480.023 493.757 478.85 494.384C477.676 495.024 477.249 496.491 477.876 497.651C481.663 504.637 481.543 510.424 477.343 524.584C472.449 541.104 467.583 545.997 464.37 547.21C462.863 547.77 461.756 547.157 461.209 546.704C464.089 543.557 467.103 539.69 470.223 535.104C470.969 533.997 470.69 532.504 469.596 531.757C468.49 530.997 466.996 531.291 466.236 532.384C454.49 549.624 447.436 552.064 444.276 551.997C442.463 551.957 441.316 551.064 440.743 550.451C446.849 546.611 452.863 539.237 459.223 527.904C459.876 526.744 459.463 525.277 458.289 524.624C457.143 523.984 455.663 524.384 455.009 525.557C446.783 540.237 439.236 547.81 431.943 548.704C427.449 549.264 424.223 547.344 423.156 546.344C429.476 542.85 436.503 533.757 445.276 520.77C446.023 519.664 445.743 518.171 444.636 517.424C443.53 516.677 442.036 516.97 441.289 518.064C432.903 530.49 424.316 542.104 418.343 543.064C417.636 543.197 415.436 542.531 413.783 540.957C412.65 539.877 412.129 538.691 412.276 537.451C412.516 535.131 414.636 533.21 417.089 530.997C418.743 529.504 420.436 527.971 421.77 526.09C427.463 518.09 431.196 510.051 431.343 509.717C431.583 509.211 431.623 508.664 431.503 508.157C431.556 507.37 431.25 506.584 430.583 506.064C429.53 505.25 428.023 505.437 427.196 506.477C420.17 515.477 405.423 516.584 398.743 513.384C394.676 511.424 395.276 508.877 395.476 508.051C395.983 505.931 397.863 505.424 403.103 504.517C408.57 503.571 416.036 502.277 423.57 496.224C439.796 483.171 451.516 485.437 451.783 485.491C453.09 485.784 454.37 484.971 454.663 483.691C454.97 482.397 454.156 481.091 452.863 480.784C452.61 480.731 449.756 480.104 445.023 480.784C445.129 480.077 445.396 479.25 445.996 478.477C447.756 476.277 451.636 475.13 457.37 475.237C468.756 475.41 478.436 482.117 481.77 488.33ZM367.876 504.437C365.063 506.65 363.196 508.024 360.676 509.837C358.103 502.45 356.756 497.757 359.476 495.384C360.49 494.491 361.676 494.037 362.85 494.037C363.743 494.037 364.61 494.291 365.396 494.824C367.356 496.157 368.809 499.317 367.876 504.437ZM317.93 523.77C322.73 517.077 328.396 513.464 334.516 513.464C334.943 513.464 335.383 513.477 335.823 513.517C329.983 517.331 323.996 520.784 317.93 523.77ZM310.116 538.397C310.89 537.037 311.596 535.597 312.25 534.064C312.69 533.01 313.17 532.064 313.65 531.09C323.023 526.971 332.263 521.824 341.143 515.81C342.276 516.97 343.223 518.677 343.943 521.224C332.596 528.251 321.463 533.904 310.116 538.397ZM265.036 614.57C264.303 615.677 264.61 617.184 265.716 617.917C265.983 618.091 266.276 618.21 266.57 618.264C266.423 618.33 266.263 618.41 266.076 618.464C263.583 619.344 259.796 618.704 256.223 616.81C252.009 614.57 248.93 611.13 247.996 607.61C247.956 607.45 247.916 607.304 247.876 607.144C248.903 607.504 250.076 607.144 250.689 606.197L286.45 551.491C287.53 551.837 288.663 552.037 289.836 552.104C295.183 552.424 300.53 549.904 304.996 545.304C305.29 545.317 305.556 545.264 305.836 545.157C308.143 544.331 310.423 543.464 312.703 542.557L265.036 614.57ZM314.97 594.184C315.196 594.277 315.436 594.33 315.676 594.344C315.969 594.384 316.29 594.37 316.596 594.277C318.703 593.717 320.943 594.464 322.303 596.17C324.423 598.837 324.196 603.104 321.676 607.891C318.983 613.024 315.223 615.544 311.396 614.81C308.903 614.33 307.076 612.57 306.93 611.21C306.863 610.597 306.569 610.064 306.143 609.677C305.943 609.464 305.689 609.277 305.409 609.144C305.289 609.09 294.556 604.091 282.103 597.517L291.396 583.491C304.743 590.077 314.863 594.144 314.97 594.184ZM324.983 585.477C327.876 585.517 330.61 587.037 333.103 589.997C336.276 593.757 335.463 599.53 335.463 599.57C335.263 600.89 336.156 602.117 337.476 602.33C338.809 602.53 340.023 601.624 340.223 600.317C340.249 600.144 340.556 598.037 340.223 595.277C340.316 595.264 340.463 595.264 340.583 595.251C340.73 595.237 355.436 593.33 365.409 601.264C370.77 605.544 373.876 611.97 374.636 620.37C375.756 632.65 370.09 649.65 360.85 661.73C347.61 679.037 333.303 686.997 315.996 686.597C300.77 686.29 288.569 679.584 283.343 668.637C279.623 660.797 280.316 652.064 285.17 645.837C290.143 639.45 296.596 637.451 302.756 637.451C312.756 637.451 321.93 642.744 322.53 643.104C323.676 643.784 325.156 643.397 325.836 642.251C326.503 641.104 326.13 639.624 324.983 638.957C324.89 638.89 321.423 636.89 316.276 635.17L318.609 631.01C318.689 630.877 318.756 630.731 318.809 630.584C323.023 628.931 325.676 625.784 325.863 625.557C326.703 624.544 326.556 623.024 325.543 622.184C324.516 621.331 322.996 621.464 322.143 622.477C321.943 622.73 316.889 628.637 310.343 626.104C303.676 623.53 302.716 617.371 302.743 613.917C303.996 616.651 306.956 618.877 310.489 619.544C313.356 620.09 320.609 620.277 325.943 610.144C330.849 600.824 327.663 595.17 326.076 593.17C323.676 590.17 319.85 588.757 316.13 589.451L315.97 589.384C317.85 587.784 321.21 585.557 324.983 585.477ZM276.823 623.704C273.689 631.864 264.263 630.81 263.863 630.77C262.57 630.61 261.343 631.544 261.17 632.851C261.01 634.184 261.943 635.384 263.263 635.557C264.85 635.77 267.05 635.744 269.383 635.251C265.183 642.544 260.903 651.01 259.076 657.864C256.223 668.584 251.316 674.21 246.97 677.17C247.93 674.544 248.01 671.61 247.116 668.744C244.423 660.17 238.303 655.81 232.903 651.97C228.663 648.957 224.663 646.117 222.463 641.557C219.57 635.544 218.476 627.011 217.33 617.984C216.076 608.104 214.77 597.877 210.916 589.864C208.476 584.797 204.81 580.211 200.276 577.184C205.583 577.491 211.49 578.797 216.97 582.117C227.236 588.331 233.77 600.184 236.41 617.33C236.623 618.637 237.863 619.544 239.17 619.344C240.476 619.144 241.383 617.904 241.183 616.597C240.436 611.744 239.383 607.264 238.036 603.184C238.25 602.184 239.436 597.651 242.97 595.717C245.25 594.477 248.21 594.477 251.77 595.73L250.65 597.451C249.09 597.371 246.463 597.557 244.583 599.544C242.65 601.57 242.236 604.69 243.33 608.837C244.61 613.637 248.583 618.21 253.956 621.064C258.756 623.61 263.876 624.344 267.676 623.024C270.329 622.09 271.356 620.45 271.756 619.237C272.436 617.184 271.703 615.17 271.156 614.064L273.25 610.891C275.29 612.597 279.383 617.024 276.823 623.704ZM239.796 679.064C235.13 682.61 227.156 681.357 218.463 675.717C205.396 667.251 163.21 636.664 168.676 598.797V598.77C168.703 598.637 170.783 584.224 181.743 579.677C182.103 579.53 182.463 579.384 182.823 579.264C183.063 579.264 183.316 579.21 183.556 579.13C183.596 579.117 184.53 578.81 186.103 578.437C195.623 577.01 202.93 584.384 206.57 591.944C210.09 599.264 211.343 609.09 212.556 618.597C213.756 628.024 214.89 636.93 218.116 643.637C220.863 649.33 225.556 652.677 230.103 655.904C235.356 659.637 240.303 663.157 242.516 670.184C243.57 673.531 242.503 677.01 239.796 679.064ZM280.543 551.73L270.689 566.797C265.943 563.384 264.05 558.557 265.036 552.384C269.61 552.784 274.809 552.557 280.543 551.73ZM256.223 536.597C256.983 531.65 260.21 529.41 263.236 528.997C267.276 528.437 272.449 530.891 275.023 537.317C265.783 538.477 259.103 537.29 256.223 536.597ZM267.316 542.637C270.103 542.637 273.29 542.411 276.73 541.917C277.556 543.851 278.57 545.557 279.77 546.97C269.436 548.437 260.943 547.797 255.41 545.104C255.623 543.984 255.77 542.757 255.876 541.464C258.316 542.01 262.196 542.637 267.316 542.637ZM247.156 575.424C242.809 571.357 240.623 565.504 240.623 557.97C241.729 558.317 242.85 558.464 243.93 558.41C247.596 558.224 251.703 555.73 254.076 549.797C255.929 550.624 257.996 551.264 260.25 551.717C258.97 559.811 261.65 566.344 268.05 570.837L259.209 584.37C253.903 580.957 249.863 577.957 247.156 575.424ZM206.503 439.877C209.69 438.344 213.09 437.544 216.65 437.544C230.116 437.544 241.076 448.957 241.076 462.997C241.076 477.037 230.116 488.464 216.65 488.464C210.65 488.464 204.943 486.17 200.476 482.037C201.13 470.144 203.53 455.877 206.503 439.877ZM106.356 295.104C108.009 292.317 109.956 290.65 112.156 290.13C112.689 290.01 113.21 289.957 113.703 289.957C114.73 289.957 115.663 290.184 116.41 290.424C113.716 293.971 112.33 298.797 112.516 304.304C112.703 309.677 114.33 314.797 116.783 318.451C116.316 319.571 115.023 321.971 113.33 322.651C112.863 322.851 112.103 323.037 110.889 322.451C109.169 321.611 106.743 318.491 105.196 313.357C103.156 306.571 103.583 299.744 106.356 295.104ZM122.836 290.891C125.623 289.037 127.996 288.331 130.063 288.331C133.863 288.331 136.623 290.704 139.01 292.77C135.236 294.824 128.69 299.957 127.783 306.304C127.396 309.024 128.116 311.597 129.903 313.824C129.716 314.077 129.583 314.384 129.516 314.704C129.33 315.624 128.41 318.41 126.796 319.13C125.983 319.504 124.89 319.304 123.543 318.544C120.276 316.677 117.556 310.357 117.343 304.13C117.13 298.184 119.143 293.357 122.836 290.891ZM152.943 262.797C153.783 262.09 154.663 261.757 155.663 261.757C155.943 261.757 156.236 261.784 156.543 261.837C158.676 262.224 160.09 263.251 160.996 265.051C163.903 270.837 160.543 282.931 157.93 288.717C153.97 288.304 149.73 288.957 146.063 289.984C146.223 282.784 147.65 267.21 152.943 262.797ZM165.316 262.891C163.743 259.757 161.01 257.744 157.41 257.091C154.65 256.597 152.023 257.277 149.85 259.104C142.93 264.877 141.556 281.344 141.289 288.37C137.263 284.984 130.356 280.131 120.196 286.851C118.89 286.131 115.29 284.477 111.13 285.424C108.65 285.984 106.436 287.344 104.516 289.464C101.81 284.997 90.9962 268.69 80.0095 273.904C77.9295 274.89 75.3697 277.064 75.0363 281.851C74.303 292.144 84.8097 309.237 93.903 315.904C94.4897 320.637 97.2763 338.944 106.37 351.704C104.17 354.197 101.903 359.411 105.45 365.917C108.836 372.131 117.663 373.437 127.023 372.357C130.516 380.037 139.41 392.637 146.57 398.517C169.316 417.184 196.85 414.437 206.143 412.81C205.823 416.41 205.33 420.01 204.65 423.597L203.81 428.037C196.543 466.544 190.796 496.957 201.05 512.824C206.503 521.277 213.023 525.184 218.783 528.624C225.356 532.571 230.103 535.41 231.116 543.704C231.743 548.89 233.583 552.61 235.93 555.01C235.903 555.17 235.876 555.317 235.863 555.477C235.316 565.57 238.01 573.464 243.863 578.944C246.77 581.664 251.036 584.85 256.57 588.397L254.476 591.597C249.103 589.45 244.45 589.41 240.663 591.491C238.263 592.811 236.609 594.77 235.476 596.677C231.649 588.37 226.289 582.117 219.423 577.97C206.129 569.944 191.183 572.237 184.956 573.744C183.303 574.024 181.609 574.517 179.889 575.224C166.423 580.811 164.023 597.277 163.903 598.13C158.05 638.81 202.17 670.904 215.836 679.77C224.01 685.064 231.916 686.944 238.009 685.224L238.236 685.237C238.996 685.224 256.889 684.77 263.743 659.104C265.503 652.49 270.156 642.957 277.196 631.544L277.289 631.37C278.943 629.89 280.356 627.957 281.316 625.424C284.73 616.531 279.81 609.837 275.93 606.851L279.436 601.557C286.823 605.477 293.676 608.85 298.13 611.01C297.276 616.33 298.423 626.677 308.609 630.61C310.063 631.17 311.463 631.464 312.783 631.544L311.503 633.824C302.183 631.69 289.97 631.837 281.37 642.877C275.383 650.544 274.476 661.21 278.996 670.704C285.01 683.33 298.81 691.077 315.903 691.41C316.29 691.424 316.663 691.424 317.036 691.424C335.316 691.424 350.903 682.664 364.676 664.664C374.743 651.504 380.676 633.53 379.45 619.93C378.556 610.157 374.836 602.597 368.383 597.477C356.756 588.264 340.61 590.384 339.916 590.477C339.623 590.517 339.343 590.611 339.089 590.757C338.556 589.424 337.823 588.104 336.796 586.891C333.343 582.797 329.383 580.704 325.009 580.664H324.876C317.943 580.664 312.45 585.944 311.13 587.33C307.036 585.557 301.023 582.85 294.076 579.437L320.756 539.117C328.823 535.477 336.823 531.21 344.916 526.277C345.076 527.53 345.223 528.904 345.316 530.41C345.783 537.104 348.596 542.21 352.876 544.064C355.676 545.277 358.636 544.864 361.009 542.93C365.249 539.477 366.556 532.131 364.609 522.784C364.023 519.971 363.183 517.197 362.316 514.584C363.783 513.544 364.996 512.664 366.196 511.784C366.223 513.344 366.676 514.824 367.556 516.117C369.089 518.371 371.743 519.77 374.65 519.864C378.743 520.05 383.01 517.144 384.516 513.224C385.743 510.064 385.956 506.011 385.036 496.517C408.863 475.491 428.356 451.237 443.036 424.397C451.09 431.69 458.93 445.33 456.17 470.41C449.503 470.517 444.809 472.224 442.223 475.491C440.543 477.611 440.103 480.024 440.143 481.824C434.809 483.331 428.089 486.397 420.556 492.464C413.996 497.744 407.503 498.864 402.289 499.757C397.036 500.677 392.076 501.53 390.783 506.93C389.716 511.477 391.85 515.41 396.663 517.73C403.356 520.93 413.956 520.517 422.356 516.317C421.063 518.504 419.53 520.917 417.836 523.304C416.81 524.744 415.383 526.051 413.863 527.424C410.943 530.064 407.929 532.797 407.476 536.93C407.183 539.677 408.236 542.344 410.463 544.451C412.69 546.571 416.009 547.957 418.409 547.891C419.676 550.837 425.556 554.357 432.53 553.491C433.81 553.331 435.063 553.037 436.303 552.61C437.356 554.224 439.97 556.65 443.996 556.81C448.196 557.024 452.77 554.744 457.796 550.13C459.396 551.597 462.383 553.091 466.063 551.717C472.316 549.384 477.53 540.944 481.97 525.957C485.316 514.65 486.583 507.45 484.223 500.197C484.956 500.144 485.649 499.757 486.076 499.104C488.516 495.304 488.489 490.677 486.009 486.051C484.809 483.797 482.983 481.517 480.65 479.424C480.796 479.184 480.89 478.917 480.93 478.624C487.65 434.424 469.796 410.73 455.103 399.064C467.823 367.984 474.156 334.504 473.93 299.504C473.916 299.117 473.823 298.757 473.663 298.437C477.183 294.49 479.93 289.344 481.503 283.331C486.103 265.65 485.21 251.544 478.836 241.437C473.13 232.384 464.823 229.544 462.276 228.864L461.93 228.53C452.703 219.464 448.076 214.917 427.676 211.784C422.956 211.064 419.01 210.624 415.53 210.237C403.743 208.93 395.236 207.984 369.023 197.837C337.849 185.757 316.97 194.571 311.983 197.117C289.036 187.504 272.783 192.024 263.103 197.624C262.983 197.571 262.863 197.53 262.73 197.504C261.61 197.237 235.076 191.117 219.05 210.557C203.61 229.291 213.369 255.29 214.489 258.104C209.889 261.85 199.596 273.717 198.33 305.424C198.023 312.971 198.37 320.557 199.036 328.104C198.743 328.81 198.823 329.584 199.21 330.251C200.036 338.797 201.263 347.29 202.463 355.637C203.81 364.997 205.183 374.504 205.983 384.077C200.85 385.064 187.396 387.65 172.53 381.944C158.236 376.45 154.863 366.317 154.223 363.784C158.609 361.384 162.383 358.397 164.21 354.637C165.703 351.557 165.796 348.25 164.489 344.81C163.609 342.49 161.93 341.024 160.21 340.157C169.89 326.411 174.143 302.69 168.596 294.504C167.076 292.25 165.023 290.757 162.676 289.837C165.05 284.13 169.276 270.824 165.316 262.891Z" fill="#040606"/>
<path d="M456.29 497.571L450.823 506.557C450.13 507.691 450.49 509.171 451.623 509.864C452.01 510.104 452.45 510.224 452.877 510.224C453.69 510.224 454.477 509.811 454.93 509.064L460.41 500.077C461.103 498.931 460.743 497.451 459.597 496.757C458.463 496.077 456.983 496.424 456.29 497.571Z" fill="#040606"/>
<path d="M462.196 514.531C462.503 514.664 462.81 514.717 463.116 514.717C464.063 514.717 464.956 514.171 465.343 513.237L469.543 503.184C470.063 501.957 469.476 500.544 468.25 500.024C467.01 499.517 465.61 500.104 465.09 501.331L460.903 511.384C460.383 512.611 460.97 514.024 462.196 514.531Z" fill="#040606"/>
<path d="M333.53 258.798C331.116 258.811 329.09 260.678 329.037 263.118C329.037 263.264 328.597 278.491 318.85 292.224C309.89 304.838 308.53 310.998 316.01 330.358C320.463 341.864 319.743 349.091 319.117 355.464L319.076 355.851C318.836 358.264 320.61 360.424 323.037 360.664C323.183 360.678 323.33 360.691 323.476 360.691C325.716 360.691 327.623 358.984 327.85 356.718L327.89 356.331C328.583 349.344 329.45 340.638 324.237 327.171C317.677 310.184 319.197 306.971 326.037 297.331C337.423 281.291 337.85 263.998 337.863 263.278C337.903 260.838 335.97 258.838 333.53 258.798Z" fill="#040606"/>
<path d="M276.023 255.931L275.943 255.918C273.543 255.918 271.583 257.838 271.53 260.238C271.53 260.398 271.09 275.624 261.33 289.358C252.383 301.971 251.023 308.131 258.503 327.477C262.957 338.984 262.237 346.211 261.61 352.598L261.57 352.971C261.33 355.398 263.103 357.558 265.53 357.798C265.677 357.811 265.823 357.824 265.97 357.824C268.21 357.824 270.117 356.118 270.343 353.838L270.383 353.464C271.077 346.478 271.943 337.771 266.73 324.304C260.17 307.318 261.69 304.104 268.53 294.464C279.917 278.424 280.343 261.131 280.343 260.398C280.383 257.971 278.45 255.971 276.023 255.931Z" fill="#040606"/>
<path d="M380.383 434.424C368.797 434.424 359.37 424.691 359.37 412.731C359.37 400.771 368.797 391.037 380.383 391.037C391.97 391.037 401.396 400.771 401.396 412.731C401.396 424.691 391.97 434.424 380.383 434.424ZM380.383 386.224C366.143 386.224 354.556 398.117 354.556 412.731C354.556 427.344 366.143 439.237 380.383 439.237C394.623 439.237 406.21 427.344 406.21 412.731C406.21 398.117 394.623 386.224 380.383 386.224Z" fill="#040606"/>
<path d="M380.597 313.437C393.317 313.437 403.663 324.664 403.663 338.464C403.663 352.264 393.317 363.491 380.597 363.491C367.89 363.491 357.557 352.264 357.557 338.464C357.557 324.664 367.89 313.437 380.597 313.437ZM380.597 368.317C395.97 368.317 408.477 354.931 408.477 338.464C408.477 321.997 395.97 308.611 380.597 308.611C365.237 308.611 352.73 321.997 352.73 338.464C352.73 354.931 365.237 368.317 380.597 368.317Z" fill="#040606"/>
<path d="M247.757 388.918C250.61 386.184 254.49 384.984 259.357 385.304C264.797 385.678 268.717 387.824 273.263 390.304C277.917 392.851 283.197 395.731 290.73 396.704C294.503 397.198 298.37 395.904 302.823 394.398C309.317 392.224 316.677 389.758 326.21 391.958C330.05 392.838 332.837 394.638 334.504 397.318C337.357 401.918 336.237 407.958 335.823 409.691C333.783 418.344 325.597 422.971 317.223 425.464C322.863 420.424 322.143 414.851 321.73 411.678L321.717 411.571C320.303 403.131 309.503 396.904 301.61 397.718C296.703 398.238 292.09 400.224 288.583 402.171C286.17 399.224 280.077 393.144 271.797 394.531C265.45 395.598 260.29 398.931 256.89 404.184C254.65 407.624 253.317 411.811 252.85 416.478C246.73 411.851 243.517 406.438 243.357 400.304C243.237 395.931 244.877 391.678 247.757 388.918ZM304.143 426.944C302.81 427.371 301.544 427.651 300.304 427.931C299.77 428.051 299.237 428.184 298.704 428.304L298.65 428.318C298.29 428.318 297.957 428.424 297.65 428.584C293.037 429.824 287.917 432.118 280.304 440.784C277.277 444.224 272.837 448.131 268.863 447.184C264.97 446.264 261.477 440.598 259.023 431.198C256.437 421.358 257.117 412.691 260.93 406.798C263.57 402.718 267.61 400.118 272.597 399.291C273.13 399.198 273.65 399.158 274.157 399.158C278.85 399.158 282.597 402.651 284.45 404.758C283.09 405.704 282.263 406.384 282.157 406.478C281.13 407.331 280.997 408.851 281.863 409.878C282.703 410.891 284.237 411.024 285.25 410.171C285.33 410.104 293.397 403.424 302.117 402.518C307.797 401.931 315.983 406.584 316.957 412.344C317.517 416.598 318.223 422.411 304.143 426.944ZM252.77 422.251C252.93 425.491 253.437 428.891 254.357 432.424C257.37 443.944 261.877 450.491 267.757 451.878C268.543 452.064 269.343 452.158 270.143 452.158C274.517 452.158 279.143 449.411 283.93 443.971C290.943 435.971 295.144 434.184 299.437 433.091C322.397 432.224 337.37 424.118 340.517 410.811C341.183 407.984 342.33 400.784 338.597 394.771C336.237 390.971 332.423 388.438 327.29 387.251C316.437 384.758 308.037 387.571 301.29 389.838C297.397 391.131 294.037 392.278 291.343 391.918C284.717 391.064 280.077 388.531 275.583 386.078C270.957 383.544 266.183 380.931 259.69 380.491C253.503 380.064 248.237 381.784 244.423 385.438C240.583 389.118 238.383 394.731 238.53 400.438C238.757 408.918 243.704 416.438 252.77 422.251Z" fill="#040606"/>
<path d="M308.29 507.358C297.556 507.358 288.823 498.998 288.823 488.744C288.823 478.478 297.556 470.131 308.29 470.131C319.023 470.131 327.756 478.478 327.756 488.744C327.756 498.998 319.023 507.358 308.29 507.358ZM308.29 465.318C294.903 465.318 284.01 475.824 284.01 488.744C284.01 501.664 294.903 512.171 308.29 512.171C321.676 512.171 332.57 501.664 332.57 488.744C332.57 475.824 321.676 465.318 308.29 465.318Z" fill="#040606"/>
<path d="M70.1753 98.4064C76.6394 100.481 82.3012 104.866 85.7231 111.31C92.5068 124.084 87.6893 140.121 74.8018 146.964L63.6099 152.908L79.7588 183.318L59.6361 194.004L18.7537 117.017L50.0682 100.388C56.512 96.9664 63.6583 96.5048 70.1753 98.4064ZM64.5011 126.202C65.0382 124.758 64.8831 123.101 64.1627 121.744C62.6018 118.805 59.0272 117.805 56.2009 119.306L48.0614 123.628L53.5844 134.029L61.724 129.706C63.1936 128.926 64.137 127.7 64.5011 126.202Z" fill="#040606"/>
<path d="M144.445 153.299L123.3 161.785L90.8814 81.0078L112.026 72.5217L144.445 153.299Z" fill="#040606"/>
<path d="M173.268 52.7616L178.355 69.811L173.395 122.584L192.407 116.911L198.189 136.291L154.523 149.319L148.741 129.939L154.437 76.9469L134.689 82.8387L129.602 65.7893L173.268 52.7616Z" fill="#040606"/>
<path d="M238.242 39.9773L241.35 57.4959L230.399 109.357L249.934 105.893L253.466 125.806L208.598 133.764L205.066 113.851L216.773 61.8549L196.482 65.454L193.375 47.9354L238.242 39.9773Z" fill="#040606"/>
<path d="M311.211 34.7971L336.349 121.084L312.302 121.985L305.541 98.7985L290.063 99.3788L285.057 123.007L261.138 123.904L279.617 35.9817L311.211 34.7971ZM294.635 77.8164L299.367 77.6389L296.71 68.2599L294.635 77.8164Z" fill="#040606"/>
<path d="M446.134 49.185L469.713 53.9937L430.848 135.03L399.869 128.712L395.967 38.9538L419.42 43.7369L420.509 67.8651L421.53 89.7588L421.995 99.6511L426.171 90.7052L435.684 70.96L446.134 49.185Z" fill="#040606"/>
<path d="M537.268 86.1633C540.024 92.3676 540.522 99.5114 537.992 106.355C532.978 119.922 517.805 127.005 504.118 121.946L492.232 117.553L480.295 149.849L458.924 141.95L489.144 60.1883L522.401 72.4806C529.245 75.0101 534.347 80.0347 537.268 86.1633ZM512.751 100.437C514.186 99.8756 515.319 98.6567 515.851 97.216C517.005 94.0944 515.372 90.7612 512.37 89.6518L503.726 86.4567L499.643 97.5023L508.287 100.697C509.848 101.274 511.391 101.162 512.751 100.437Z" fill="#040606"/>
<path d="M596.402 106.637L615.345 116.816L574.083 193.6L555.705 183.724L555.066 156.789L543.978 177.423L525.149 167.304L566.41 90.5204L584.676 100.336L585.314 127.271L596.402 106.637Z" fill="#040606"/>
</svg>
