<svg width="413" height="500" viewBox="0 0 413 500" fill="none" xmlns="http://www.w3.org/2000/svg">
<path d="M242.93 332.254C248.996 329.267 254.983 325.814 260.823 322.001C260.383 321.961 259.943 321.947 259.516 321.947C253.396 321.947 247.73 325.561 242.93 332.254Z" fill="#BA8D5C"/>
<path d="M238.65 339.574C238.17 340.547 237.69 341.494 237.25 342.547C236.597 344.081 235.89 345.521 235.117 346.881C246.463 342.387 257.597 336.734 268.943 329.707C268.223 327.161 267.277 325.454 266.143 324.294C257.263 330.307 248.023 335.454 238.65 339.574Z" fill="#BA8D5C"/>
<path d="M251.077 401.654C252.663 403.654 255.85 409.307 250.943 418.627C245.61 428.761 238.357 428.574 235.49 428.027C231.957 427.361 228.997 425.134 227.743 422.401C227.717 425.854 228.677 432.014 235.343 434.587C241.89 437.121 246.943 431.214 247.143 430.961C247.997 429.947 249.517 429.814 250.543 430.667C251.557 431.507 251.703 433.027 250.863 434.041C250.677 434.267 248.023 437.414 243.81 439.067C243.757 439.214 243.69 439.361 243.61 439.494L241.277 443.654C246.423 445.374 249.89 447.374 249.983 447.441C251.13 448.107 251.504 449.587 250.837 450.734C250.157 451.881 248.677 452.267 247.53 451.587C246.93 451.227 237.757 445.934 227.757 445.934C221.597 445.934 215.144 447.934 210.17 454.321C205.317 460.547 204.623 469.281 208.343 477.121C213.57 488.067 225.77 494.774 240.997 495.081C258.303 495.481 272.61 487.521 285.85 470.214C295.09 458.134 300.757 441.134 299.637 428.854C298.877 420.454 295.77 414.027 290.41 409.747C280.437 401.814 265.73 403.721 265.583 403.734C265.463 403.747 265.317 403.747 265.223 403.761C265.557 406.521 265.25 408.627 265.223 408.801C265.023 410.107 263.81 411.014 262.477 410.814C261.157 410.601 260.263 409.374 260.463 408.054C260.463 408.014 261.277 402.241 258.104 398.481C255.61 395.521 252.877 394.001 249.983 393.961C246.21 394.041 242.85 396.267 240.97 397.867L241.13 397.934C244.85 397.241 248.677 398.654 251.077 401.654Z" fill="#F5F1DF"/>
<path d="M290.397 303.307C289.61 302.774 288.743 302.521 287.85 302.521C286.677 302.521 285.49 302.974 284.477 303.867C281.757 306.241 283.103 310.934 285.677 318.321C288.197 316.507 290.063 315.134 292.877 312.921C293.81 307.801 292.357 304.641 290.397 303.307Z" fill="#BA8D5C"/>
<path d="M384.597 305.241C385.743 305.934 386.103 307.414 385.41 308.561L379.93 317.547C379.477 318.294 378.69 318.707 377.877 318.707C377.45 318.707 377.01 318.587 376.623 318.347C375.49 317.654 375.13 316.174 375.823 315.041L381.29 306.054C381.983 304.907 383.463 304.561 384.597 305.241ZM390.09 309.814C390.61 308.587 392.01 308.001 393.25 308.507C394.477 309.027 395.063 310.441 394.543 311.667L390.343 321.721C389.957 322.654 389.063 323.201 388.117 323.201C387.81 323.201 387.503 323.147 387.197 323.014C385.97 322.507 385.383 321.094 385.903 319.867L390.09 309.814ZM370.997 286.961C370.397 287.734 370.13 288.561 370.023 289.267C374.757 288.587 377.61 289.214 377.863 289.267C379.157 289.574 379.97 290.881 379.663 292.174C379.37 293.454 378.09 294.267 376.783 293.974C376.517 293.921 364.797 291.654 348.57 304.707C341.037 310.761 333.57 312.054 328.103 313.001C322.863 313.907 320.983 314.414 320.477 316.534C320.277 317.361 319.677 319.907 323.743 321.867C330.423 325.067 345.17 323.961 352.197 314.961C353.023 313.921 354.53 313.734 355.583 314.547C356.25 315.067 356.557 315.854 356.503 316.641C356.623 317.147 356.583 317.694 356.343 318.201C356.197 318.534 352.463 326.574 346.77 334.574C345.437 336.454 343.743 337.987 342.09 339.481C339.637 341.694 337.517 343.614 337.277 345.934C337.13 347.174 337.65 348.361 338.783 349.441C340.437 351.014 342.637 351.681 343.343 351.547C349.317 350.587 357.903 338.974 366.29 326.547C367.037 325.454 368.53 325.161 369.637 325.907C370.743 326.654 371.023 328.147 370.277 329.254C361.503 342.241 354.477 351.334 348.157 354.827C349.223 355.827 352.45 357.747 356.943 357.187C364.237 356.294 371.783 348.721 380.01 334.041C380.663 332.867 382.143 332.467 383.29 333.107C384.463 333.761 384.877 335.227 384.223 336.387C377.863 347.721 371.85 355.094 365.743 358.934C366.317 359.547 367.463 360.441 369.277 360.481C372.437 360.547 379.49 358.107 391.237 340.867C391.997 339.774 393.49 339.481 394.597 340.241C395.69 340.987 395.97 342.481 395.223 343.587C392.103 348.174 389.09 352.041 386.21 355.187C386.757 355.641 387.863 356.254 389.37 355.694C392.583 354.481 397.45 349.587 402.343 333.067C406.543 318.907 406.663 313.121 402.877 306.134C402.25 304.974 402.677 303.507 403.85 302.867C405.023 302.241 406.477 302.667 407.117 303.841C407.21 304.014 407.29 304.174 407.383 304.347C408.743 301.641 407.823 298.787 406.77 296.814C403.437 290.601 393.757 283.894 382.37 283.721C376.637 283.614 372.757 284.761 370.997 286.961Z" fill="#F5F1DF"/>
<path d="M249.236 135.654C254.45 149.121 253.583 157.827 252.89 164.814L252.85 165.201C252.623 167.467 250.716 169.174 248.476 169.174C248.33 169.174 248.183 169.161 248.036 169.147C245.61 168.907 243.836 166.747 244.076 164.334L244.116 163.947C244.743 157.574 245.463 150.347 241.01 138.841C233.53 119.481 234.89 113.321 243.85 100.707C253.596 86.9741 254.036 71.7475 254.036 71.6008C254.09 69.1608 256.116 67.2941 258.53 67.2808C260.97 67.3208 262.903 69.3207 262.863 71.7607C262.85 72.4807 262.423 89.7741 251.036 105.814C244.196 115.454 242.676 118.667 249.236 135.654ZM256.796 102.374C261.676 95.3608 266.716 88.1074 267.45 80.494C268.236 72.2407 267.196 66.3875 264.45 63.5341C263.063 62.1075 261.21 61.4141 258.77 61.4141C258.49 61.4141 258.196 61.4274 257.89 61.4408C250.196 61.9341 248.93 70.5208 248.05 81.6807C247.783 85.1741 247.543 88.1874 246.89 90.494C245.076 96.9607 242.116 100.734 239.503 104.067C236.41 108.001 233.956 111.121 233.73 117.974C233.583 122.347 234.943 125.987 236.516 130.227C238.583 135.774 240.93 142.067 239.916 151.054C238.61 162.681 242.97 171.334 247.943 172.987C251.516 174.174 253.93 171.134 255.05 169.227C258.69 163.041 257.676 151.881 252.356 139.361C247.836 128.721 248.05 115.614 252.85 108.187C254.103 106.267 255.436 104.321 256.796 102.374Z" fill="#F5F1DF"/>
<path d="M180.41 353.587C185.943 356.281 194.437 356.921 204.77 355.454C203.57 354.041 202.557 352.334 201.73 350.401C198.29 350.894 195.103 351.121 192.317 351.121C187.197 351.121 183.317 350.494 180.877 349.947C180.77 351.241 180.623 352.467 180.41 353.587Z" fill="#BA8D5C"/>
<path d="M188.237 337.481C185.21 337.894 181.983 340.134 181.223 345.081C184.103 345.774 190.783 346.961 200.023 345.801C197.45 339.374 192.277 336.921 188.237 337.481Z" fill="#BA8D5C"/>
<path d="M155.103 464.387C150.557 461.161 145.863 457.814 143.116 452.121C139.89 445.414 138.756 436.507 137.556 427.081C136.343 417.574 135.09 407.747 131.57 400.427C127.93 392.867 120.623 385.494 111.103 386.921C109.53 387.294 108.596 387.601 108.556 387.614C108.316 387.694 108.063 387.747 107.823 387.747C107.463 387.867 107.103 388.014 106.743 388.161C95.783 392.707 93.703 407.121 93.6764 407.254V407.281C88.2097 445.147 130.396 475.734 143.463 484.201C152.156 489.841 160.13 491.094 164.796 487.547C167.503 485.494 168.57 482.014 167.516 478.667C165.303 471.641 160.357 468.121 155.103 464.387Z" fill="#BA8D5C"/>
<path d="M198.25 419.374L196.156 422.547C196.703 423.654 197.436 425.667 196.756 427.721C196.356 428.934 195.33 430.574 192.676 431.507C188.876 432.827 183.756 432.094 178.956 429.547C173.583 426.694 169.61 422.121 168.33 417.321C167.236 413.174 167.65 410.054 169.583 408.027C171.463 406.041 174.09 405.854 175.65 405.934L176.77 404.214C173.21 402.961 170.25 402.961 167.97 404.201C164.437 406.134 163.25 410.667 163.037 411.667C164.383 415.747 165.436 420.227 166.183 425.081C166.383 426.387 165.477 427.627 164.17 427.827C162.863 428.027 161.623 427.121 161.41 425.814C158.77 408.667 152.237 396.814 141.97 390.601C136.49 387.281 130.583 385.974 125.276 385.667C129.81 388.694 133.476 393.281 135.916 398.347C139.77 406.361 141.076 416.587 142.33 426.467C143.476 435.494 144.57 444.027 147.463 450.041C149.663 454.601 153.663 457.441 157.903 460.454C163.303 464.294 169.423 468.654 172.116 477.227C173.01 480.094 172.93 483.027 171.97 485.654C176.317 482.694 181.223 477.067 184.076 466.347C185.903 459.494 190.183 451.027 194.383 443.734C192.05 444.227 189.85 444.254 188.263 444.041C186.943 443.867 186.01 442.667 186.17 441.334C186.343 440.027 187.57 439.094 188.863 439.254C189.263 439.294 198.69 440.347 201.823 432.187C204.383 425.507 200.29 421.081 198.25 419.374Z" fill="#F5F1DF"/>
<path d="M82.8667 96.96C85.48 91.1734 88.84 79.08 85.9333 73.2934C85.0267 71.4934 83.6133 70.4666 81.4799 70.0799C81.1733 70.0266 80.88 70 80.6 70C79.6 70 78.7199 70.3333 77.8799 71.04C72.5866 75.4533 71.16 91.0267 71 98.2267C74.6667 97.2 78.9067 96.5467 82.8667 96.96Z" fill="#F5F1DF"/>
<path d="M48.2154 127.213C49.5621 127.973 50.6554 128.173 51.4688 127.8C53.0821 127.08 54.0022 124.293 54.1888 123.373C54.2555 123.053 54.3889 122.747 54.5755 122.493C52.7889 120.267 52.0688 117.693 52.4555 114.973C53.3622 108.627 59.9087 103.493 63.6821 101.44C61.2954 99.3733 58.5354 97 54.7354 97C52.6688 97 50.2955 97.7067 47.5089 99.56C43.8155 102.027 41.8021 106.853 42.0154 112.8C42.2287 119.027 44.9487 125.347 48.2154 127.213Z" fill="#F5F1DF"/>
<path d="M35.9672 130.493C37.1806 131.08 37.9407 130.893 38.4073 130.693C40.1007 130.013 41.3941 127.613 41.8607 126.493C39.4074 122.84 37.7807 117.72 37.5941 112.347C37.4074 106.84 38.794 102.013 41.4873 98.4667C40.7406 98.2267 39.8074 98 38.7808 98C38.2874 98 37.7672 98.0534 37.2339 98.1734C35.0339 98.6934 33.0872 100.36 31.4339 103.147C28.6606 107.787 28.234 114.613 30.274 121.4C31.8207 126.533 34.2472 129.653 35.9672 130.493Z" fill="#F5F1DF"/>
<path d="M82.023 152.561C81.0763 153.574 80.0765 154.494 79.0498 155.294C77.9965 156.107 76.4764 155.907 75.6631 154.854C74.8498 153.801 75.0499 152.281 76.1032 151.467C77.1032 150.694 78.0764 149.787 78.9964 148.787C79.1698 148.481 79.3963 148.214 79.6897 148.001C89.7297 136.201 94.0364 112.241 89.6097 105.681C85.0764 99.0007 71.3297 102.747 66.3563 105.454C62.4897 107.547 58.0897 111.774 57.5563 115.467C57.3163 117.121 57.8764 118.601 59.2764 119.974C64.7431 125.401 76.4897 115.467 76.6097 115.361C77.6097 114.481 79.1297 114.587 80.0097 115.587C80.8764 116.587 80.7832 118.107 79.7832 118.987C79.5032 119.227 76.4499 121.867 72.3699 123.934C72.2499 124.027 72.1298 124.121 71.9965 124.201C58.7831 131.627 59.8765 141.027 59.9298 141.427C60.1031 142.734 59.1831 143.947 57.8764 144.134C56.5831 144.334 55.3563 143.441 55.1563 142.134C55.0897 141.721 54.0366 134.001 61.3699 126.281C60.5299 126.121 59.6897 125.881 58.8764 125.507C58.2764 127.387 56.8231 130.627 53.8097 132.001C52.2231 132.721 49.6097 133.174 46.1563 131.214C45.8764 131.054 45.5832 130.867 45.3032 130.667C44.3166 132.401 42.6366 134.587 40.1699 135.601C38.1566 136.427 35.9431 136.321 33.7965 135.267C30.4231 133.654 27.3565 129.147 25.5832 123.227C23.3032 115.627 23.7032 107.867 26.6366 102.147C26.3566 101.947 26.1164 101.681 25.9431 101.361C23.0497 96.1873 14.0097 83.4407 7.0764 86.7341C6.20974 87.1607 5.03656 88.0141 4.83656 90.6674C4.22323 99.5341 14.583 115.801 22.4897 121.014C23.103 121.414 23.4899 122.067 23.5699 122.787C23.5966 123.054 26.3432 149.441 39.1165 161.894C40.0765 162.827 40.0899 164.347 39.1699 165.294C38.2366 166.254 36.7163 166.267 35.7563 165.347C35.3297 164.921 34.903 164.481 34.4897 164.041C33.5697 165.427 32.543 168.161 34.6897 172.094C37.863 177.934 51.5965 177.187 63.5298 173.427C68.0098 172.014 81.6231 167.707 84.8631 161.027C85.7698 159.147 85.8098 157.187 84.9832 155.014C84.4098 153.494 83.0097 152.841 82.023 152.561Z" fill="#F5F1DF"/>
<path d="M227.117 211.001C218.397 211.907 210.33 218.587 210.25 218.654C209.237 219.507 207.703 219.374 206.863 218.361C205.996 217.334 206.13 215.814 207.156 214.961C207.263 214.867 208.09 214.187 209.45 213.241C207.597 211.134 203.85 207.641 199.156 207.641C198.65 207.641 198.13 207.681 197.596 207.774C192.61 208.601 188.57 211.201 185.93 215.281C182.116 221.174 181.436 229.841 184.023 239.681C186.476 249.081 189.97 254.747 193.863 255.667C197.836 256.614 202.277 252.707 205.303 249.267C212.917 240.601 218.037 238.307 222.65 237.067C222.957 236.907 223.29 236.801 223.65 236.801L223.703 236.787C224.237 236.667 224.77 236.534 225.303 236.414C226.543 236.134 227.81 235.854 229.143 235.427C243.223 230.894 242.516 225.081 241.956 220.827C240.983 215.067 232.797 210.414 227.117 211.001Z" fill="#E45B3C"/>
<path d="M191.73 132.787C196.943 146.254 196.076 154.961 195.383 161.947L195.343 162.321C195.116 164.601 193.21 166.307 190.97 166.307C190.823 166.307 190.676 166.294 190.53 166.281C188.103 166.041 186.33 163.881 186.57 161.454L186.609 161.081C187.236 154.694 187.956 147.467 183.503 135.961C176.023 116.614 177.383 110.454 186.33 97.8406C196.09 84.1073 196.53 68.8806 196.53 68.7206C196.583 66.3206 198.543 64.4007 200.943 64.4007L201.023 64.414C203.449 64.454 205.383 66.454 205.343 68.8806C205.343 69.614 204.916 86.9073 193.53 102.947C186.69 112.587 185.17 115.801 191.73 132.787ZM199.303 99.4939C204.17 92.4806 209.209 85.2273 209.943 77.614C210.729 69.374 209.689 63.5073 206.943 60.6673C205.556 59.2407 203.703 58.5473 201.263 58.5473C200.983 58.5473 200.676 58.5473 200.383 58.574C192.69 59.0673 191.409 67.654 190.543 78.814C190.276 82.3073 190.036 85.3206 189.383 87.6272C187.57 94.0939 184.61 97.8539 181.996 101.187C178.903 105.134 176.449 108.241 176.223 115.107C176.076 119.467 177.436 123.121 179.009 127.347C181.076 132.907 183.423 139.201 182.409 148.187C181.103 159.801 185.463 168.467 190.436 170.121C191.583 170.494 192.596 170.414 193.503 170.094C193.69 170.041 193.863 169.961 194.036 169.907C195.663 169.121 196.849 167.534 197.543 166.347C201.183 160.161 200.17 149.001 194.85 136.494C190.33 125.854 190.529 112.734 195.343 105.321C196.596 103.387 197.943 101.441 199.303 99.4939Z" fill="#F5F1DF"/>
<path d="M177.85 224.961C178.316 220.294 179.65 216.107 181.89 212.667C185.29 207.414 190.45 204.081 196.796 203.014C205.076 201.627 211.17 207.707 213.583 210.654C217.09 208.707 221.703 206.721 226.61 206.201C234.503 205.387 245.303 211.614 246.716 220.054L246.73 220.161C247.143 223.334 247.863 228.907 242.223 233.947C250.596 231.454 258.783 226.827 260.823 218.174C261.236 216.441 262.356 210.401 259.503 205.801C257.836 203.121 255.05 201.321 251.21 200.441C241.676 198.241 234.316 200.707 227.823 202.881C223.37 204.387 219.503 205.681 215.73 205.187C208.196 204.214 202.916 201.334 198.263 198.787C193.716 196.307 189.796 194.161 184.356 193.787C179.49 193.467 175.61 194.667 172.756 197.401C169.876 200.161 168.236 204.414 168.356 208.787C168.516 214.921 171.73 220.334 177.85 224.961Z" fill="#040606"/>
<path d="M141.65 246.027C138.09 246.027 134.69 246.827 131.503 248.361C128.53 264.361 126.13 278.627 125.476 290.521C129.943 294.654 135.65 296.947 141.65 296.947C155.116 296.947 166.076 285.521 166.076 271.481C166.076 257.441 155.116 246.027 141.65 246.027Z" fill="#922E21"/>
<path d="M233.29 278.614C222.556 278.614 213.823 286.961 213.823 297.227C213.823 307.48 222.556 315.841 233.29 315.841C244.023 315.841 252.756 307.48 252.756 297.227C252.756 286.961 244.023 278.614 233.29 278.614Z" fill="#922E21"/>
<path d="M305.383 199.521C293.796 199.521 284.37 209.254 284.37 221.214C284.37 233.174 293.796 242.907 305.383 242.907C316.97 242.907 326.396 233.174 326.396 221.214C326.396 209.254 316.97 199.521 305.383 199.521Z" fill="#922E21"/>
<path d="M305.596 171.974C318.316 171.974 328.663 160.747 328.663 146.947C328.663 133.147 318.316 121.921 305.596 121.921C292.89 121.921 282.556 133.147 282.556 146.947C282.556 160.747 292.89 171.974 305.596 171.974Z" fill="#922E21"/>
<path d="M133.783 174.454C136.557 175.774 139.53 176.454 142.61 176.454C154.183 176.454 163.61 166.72 163.61 154.76C163.61 142.8 154.183 133.067 142.61 133.067C137.583 133.067 132.81 134.921 129.01 138.254C129.823 146.707 131.037 155.147 132.237 163.427C132.757 167.08 133.29 170.761 133.783 174.454Z" fill="#922E21"/>
<path d="M184.69 188.974C191.183 189.414 195.957 192.027 200.583 194.561C205.077 197.014 209.716 199.547 216.343 200.401C219.036 200.761 222.396 199.614 226.29 198.321C233.036 196.054 241.436 193.241 252.29 195.734C257.423 196.921 261.237 199.454 263.597 203.254C267.33 209.267 266.183 216.467 265.517 219.294C262.37 232.601 247.397 240.707 224.437 241.574C220.143 242.667 215.943 244.454 208.93 252.454C204.143 257.894 199.516 260.641 195.143 260.641C194.343 260.641 193.543 260.547 192.756 260.361C186.876 258.974 182.37 252.427 179.356 240.907C178.436 237.374 177.93 233.974 177.77 230.734C168.703 224.921 163.757 217.401 163.53 208.921C163.383 203.214 165.583 197.601 169.423 193.921C173.236 190.267 178.503 188.547 184.69 188.974ZM233.29 320.654C219.903 320.654 209.01 310.147 209.01 297.227C209.01 284.307 219.903 273.801 233.29 273.801C246.676 273.801 257.57 284.307 257.57 297.227C257.57 310.147 246.676 320.654 233.29 320.654ZM305.597 117.094C320.97 117.094 333.476 130.481 333.476 146.947C333.476 163.414 320.97 176.801 305.597 176.801C290.237 176.801 277.73 163.414 277.73 146.947C277.73 130.481 290.237 117.094 305.597 117.094ZM305.383 247.721C291.143 247.721 279.556 235.827 279.556 221.214C279.556 206.601 291.143 194.707 305.383 194.707C319.623 194.707 331.21 206.601 331.21 221.214C331.21 235.827 319.623 247.721 305.383 247.721ZM168.437 154.761C168.437 169.374 156.85 181.267 142.61 181.267C139.81 181.267 137.103 180.814 134.49 179.934C136.65 197.307 137.77 215.054 134.383 232.974L133.543 237.414C133.21 239.214 132.876 240.974 132.543 242.734C135.463 241.747 138.503 241.201 141.65 241.201C157.77 241.201 170.89 254.787 170.89 271.481C170.89 288.187 157.77 301.761 141.65 301.761C135.743 301.761 130.09 299.921 125.276 296.547C125.263 305.827 126.636 313.347 130.09 318.694C134.943 326.201 140.957 329.801 146.263 332.974C153.117 337.081 159.61 340.974 160.903 351.614C161.757 358.707 165.463 362.227 168.676 362.081C172.316 361.894 176.063 357.147 176.223 346.987C176.343 339.227 180.81 333.627 187.597 332.707C193.943 331.841 202.21 335.667 205.276 346.107C207.023 352.081 210.517 355.507 215.117 355.774C220.623 356.121 228.21 351.547 232.81 340.681C242.023 318.867 254.65 316.601 261.37 317.201C272.263 318.174 274.437 328.547 275.13 338.574C275.517 344.294 277.89 347.294 279.797 348.121C280.917 348.614 282.01 348.454 282.956 347.681C285.09 345.947 286.716 340.987 284.89 332.254C284.076 328.307 282.73 324.494 281.437 320.801C278.583 312.667 275.89 304.987 281.29 300.241C284.73 297.227 289.477 296.854 293.103 299.321C297.023 301.987 299.93 308.427 296.317 318.494C295.85 319.801 295.93 320.974 296.543 321.894C297.21 322.854 298.45 323.494 299.797 323.534C301.597 323.627 304.143 322.254 305.023 319.974C306.263 316.747 306.037 310.987 303.983 294.334C303.77 292.641 303.57 291.067 303.37 289.614C302.157 280.534 301.423 275.054 305.303 268.667C305.983 267.521 307.476 267.161 308.61 267.854C309.743 268.534 310.103 270.027 309.423 271.161C308.01 273.494 307.383 275.627 307.237 278.147C314.903 268.027 340.463 232.147 350.717 191.667C351.183 189.707 352.583 188.027 354.45 187.227C356.317 186.401 358.49 186.507 360.276 187.521C360.983 188.014 361.237 187.961 361.33 187.947C361.557 187.907 362.41 187.614 363.69 185.614C369.103 177.147 378.143 133.534 374.09 117.001C359.69 114.774 327.17 108.507 292.756 101.867L266.303 96.7607C264.583 99.614 262.663 102.387 260.756 105.121C259.436 107.027 258.116 108.921 256.89 110.814C252.956 116.894 252.917 128.361 256.797 137.481C262.797 151.601 263.676 164.054 259.21 171.667C256.09 176.987 251.303 179.187 246.423 177.561C239.556 175.281 233.477 165.254 235.13 150.521C236.01 142.681 233.97 137.201 231.997 131.907C230.397 127.587 228.73 123.134 228.917 117.801C229.197 109.387 232.503 105.161 235.717 101.094C237.73 98.5207 239.797 95.8807 241.33 91.9474L241.01 91.8807C231.196 89.9474 221.89 88.1074 212.69 86.1341C210.476 91.8008 206.837 97.0807 203.25 102.241C201.93 104.161 200.61 106.054 199.383 107.947C195.45 114.014 195.41 125.481 199.29 134.614C205.29 148.721 206.17 161.187 201.703 168.787C201.41 169.281 201.117 169.747 200.797 170.174C201.13 170.614 201.343 171.147 201.317 171.734C201.25 173.054 200.05 174.067 198.81 174.027C198.196 173.987 196.943 174.081 195.663 174.454C195.317 174.561 194.983 174.681 194.637 174.827C194.023 175.107 193.437 175.467 192.983 175.947C192.063 176.907 191.703 178.254 191.85 180.081C191.997 181.814 192.57 182.987 193.57 183.667C195.663 185.081 199.397 184.387 200.65 184.001C201.93 183.601 203.277 184.321 203.663 185.587C204.063 186.854 203.356 188.201 202.09 188.601C201.703 188.721 199.597 189.334 197.063 189.334C195.063 189.334 192.81 188.961 190.89 187.667C189.33 186.627 187.397 184.521 187.05 180.481C186.823 177.774 187.437 175.814 188.263 174.374C181.677 171.681 176.01 161.907 177.623 147.654C178.503 139.801 176.463 134.334 174.49 129.027C172.876 124.721 171.223 120.254 171.41 114.934C171.69 106.507 174.996 102.294 178.21 98.2141C180.65 95.094 183.196 91.8673 184.743 86.3207C185.183 84.7607 185.41 82.4406 185.623 79.894C162.583 74.6273 146.25 70.5608 143.223 69.8008C140.503 71.7608 129.436 81.6541 128.143 114.107C127.89 120.214 128.077 126.374 128.53 132.534C132.677 129.747 137.543 128.254 142.61 128.254C156.85 128.254 168.437 140.147 168.437 154.761Z" fill="#ED9C36"/>
<path d="M144.063 65.0407C145.077 65.294 150.81 66.734 159.917 68.9207C158.317 62.214 162.397 55.094 162.623 54.7206C163.29 53.574 164.757 53.1874 165.917 53.8674C167.063 54.5341 167.45 56.0006 166.783 57.1606C166.73 57.2406 162.13 65.3207 165.783 70.3207C171.623 71.7073 178.45 73.3073 186.023 75.054C186.877 65.854 189.01 54.4806 200.063 53.7606C204.37 53.4806 207.85 54.6807 210.397 57.3074C214.223 61.254 215.69 68.254 214.743 78.0807C214.623 79.2407 214.423 80.3874 214.17 81.5074C223.183 83.4407 232.317 85.254 241.943 87.1606L242.65 87.294C242.917 85.5873 243.077 83.494 243.25 81.3074C243.983 71.8007 245.117 57.4406 257.57 56.6273C261.877 56.3473 265.357 57.5473 267.903 60.1873C271.73 64.134 273.197 71.1207 272.25 80.9473C271.863 84.934 270.557 88.7074 268.757 92.3341L292.543 96.9074C289.903 87.4274 293.797 80.4541 293.983 80.1341C294.65 78.9741 296.117 78.5873 297.277 79.254C298.423 79.9073 298.823 81.3741 298.17 82.5341C298.01 82.8007 294.477 89.3073 297.983 97.9606C302.677 98.8673 307.317 99.7607 311.877 100.641C310.943 94.3874 312.943 86.8007 313.037 86.454C313.383 85.1607 314.703 84.4007 315.997 84.7473C317.277 85.094 318.037 86.414 317.69 87.7074C317.677 87.7874 315.45 96.174 316.943 101.387L316.957 101.614C336.957 105.454 354.863 108.841 366.863 110.921C364.597 109.361 362.343 107.281 360.383 104.494C354.597 96.2673 353.103 84.374 355.93 69.1473C357.77 59.1607 365.237 41.1474 380.743 37.7074C373.53 30.7874 368.73 27.6006 351.943 25.0273C347.33 24.3206 343.61 23.9074 339.997 23.5074C327.85 22.1607 319.077 21.2007 292.277 10.814C259.463 -1.90599 238.57 10.214 238.357 10.3473C237.69 10.734 236.863 10.7873 236.157 10.494C199.25 -5.55938 181.917 16.9473 181.197 17.9206C180.41 18.974 178.903 19.2007 177.837 18.414C176.77 17.6273 176.543 16.1207 177.33 15.054C177.383 14.974 179.063 12.7473 182.41 10.0273C174.757 9.24062 158.343 9.30737 147.77 22.1074C133.597 39.3074 143.917 64.694 144.023 64.9473L144.063 65.0407Z" fill="#BA8D5C"/>
<path d="M360.663 70.0274C358.076 83.9207 359.316 94.5874 364.33 101.721C368.783 108.054 375.063 109.907 378.41 110.454C388.556 112.107 398.41 103.761 401.836 90.6008C406.076 74.3075 405.396 61.5207 399.81 52.5874C394.77 44.5074 387.143 42.2808 385.796 41.9474C370.01 42.1608 362.45 60.374 360.663 70.0274Z" fill="#BA8D5C"/>
<path d="M190.037 423.054L237.703 351.041C235.423 351.947 233.143 352.814 230.837 353.641C230.557 353.747 230.29 353.801 229.997 353.787C225.53 358.387 220.183 360.907 214.837 360.587C213.663 360.521 212.53 360.321 211.45 359.974L175.69 414.681C175.076 415.627 173.903 415.987 172.876 415.627C172.916 415.787 172.957 415.934 172.997 416.094C173.93 419.614 177.01 423.054 181.223 425.294C184.796 427.187 188.583 427.827 191.076 426.947C191.263 426.894 191.423 426.814 191.57 426.747C191.277 426.694 190.983 426.574 190.717 426.401C189.61 425.667 189.303 424.161 190.037 423.054Z" fill="#3F4143"/>
<path d="M241.597 402.76C241.29 402.854 240.97 402.867 240.676 402.827C240.436 402.814 240.197 402.761 239.97 402.667C239.863 402.627 229.743 398.561 216.396 391.974L207.103 406.001C219.557 412.574 230.29 417.574 230.41 417.627C230.69 417.76 230.943 417.947 231.143 418.16C231.57 418.547 231.863 419.08 231.93 419.694C232.076 421.054 233.903 422.814 236.396 423.294C240.223 424.027 243.983 421.507 246.676 416.374C249.196 411.587 249.423 407.32 247.303 404.654C245.943 402.947 243.703 402.2 241.597 402.76Z" fill="#3F4143"/>
<path d="M193.05 379.321C186.65 374.827 183.97 368.294 185.25 360.201C182.997 359.747 180.93 359.107 179.076 358.281C176.703 364.214 172.596 366.707 168.93 366.894C167.85 366.947 166.73 366.801 165.623 366.454C165.623 373.987 167.81 379.841 172.156 383.907C174.863 386.441 178.903 389.441 184.21 392.854L193.05 379.321Z" fill="#3F4143"/>
<path d="M95.8097 194.921C80.8364 189.174 76.1563 178.721 74.823 174.414C71.4763 175.881 68.0232 177.054 64.9832 178.014C62.4232 178.827 59.7165 179.521 56.9832 180.067C60.5432 187.241 68.4765 198.214 74.6365 203.281C96.6899 221.374 124.53 217.627 131.503 216.321C131.85 209.987 131.73 203.681 131.343 197.387C125.463 198.521 111.436 200.921 95.8097 194.921Z" fill="#3F4143"/>
<path d="M362.53 202.627C360.037 204.907 355.557 215.507 355.93 220.601C363.023 222.801 390.77 234.401 385.997 279.134C391.823 279.814 397.117 281.907 401.41 284.681C409.85 223.974 369.383 205.334 362.53 202.627Z" fill="#3F4143"/>
<path d="M378.65 115.361C383.423 133.347 373.823 178.694 367.743 188.214C366.09 190.801 364.236 192.307 362.223 192.694C360.663 192.987 359.09 192.587 357.677 191.561C357.437 191.441 356.863 191.427 356.37 191.641C355.89 191.854 355.517 192.294 355.397 192.814C343.063 241.561 309.117 283.614 308.77 284.041C308.463 284.427 308.05 284.681 307.61 284.814C307.757 286.081 307.943 287.467 308.143 288.987C308.343 290.454 308.557 292.027 308.77 293.747C309.01 295.667 309.223 297.454 309.41 299.107C331.863 278.787 350.277 255.507 364.197 229.841C358.69 226.054 353.877 224.987 353.37 224.881C352.517 224.707 351.81 224.081 351.543 223.241C349.663 217.254 355.743 199.641 361.517 197.694C361.997 197.521 362.53 197.521 363.023 197.681C363.196 197.734 368.863 199.641 376.103 204.587C387.903 175.321 393.957 143.881 394.103 111.054C389.503 114.374 384.157 115.987 378.65 115.361Z" fill="#BA8D5C"/>
<path d="M89.6095 105.681C94.0362 112.241 89.7295 136.201 79.6895 148.001C79.3961 148.214 79.1696 148.481 78.9962 148.787C78.0762 149.787 77.103 150.694 76.103 151.467C75.0497 152.281 74.8496 153.801 75.6629 154.854C76.4762 155.907 77.9963 156.107 79.0496 155.294C80.0763 154.494 81.0761 153.574 82.0228 152.561C83.0095 152.841 84.4096 153.494 84.983 155.014C85.8096 157.187 85.7696 159.147 84.8629 161.027C81.6229 167.707 68.0096 172.014 63.5296 173.427C51.5962 177.187 37.8628 177.934 34.6895 172.094C32.5428 168.161 33.5695 165.427 34.4895 164.041C34.9028 164.481 35.3295 164.921 35.7561 165.347C36.7161 166.267 38.2363 166.254 39.1697 165.294C40.0897 164.347 40.0763 162.827 39.1163 161.894C26.343 149.441 23.5963 123.054 23.5697 122.787C23.4897 122.067 23.1028 121.414 22.4895 121.014C14.5828 115.801 4.223 99.534 4.83634 90.6673C5.03634 88.014 6.20951 87.1607 7.07618 86.734C14.0095 83.4407 23.0495 96.1872 25.9428 101.361C26.1162 101.681 26.3563 101.947 26.6363 102.147C23.703 107.867 23.303 115.627 25.583 123.227C27.3563 129.147 30.4229 133.654 33.7962 135.267C35.9429 136.321 38.1563 136.427 40.1697 135.601C42.6363 134.587 44.3163 132.401 45.303 130.667C45.583 130.867 45.8761 131.054 46.1561 131.214C49.6095 133.174 52.2228 132.721 53.8095 132.001C56.8228 130.627 58.2762 127.387 58.8762 125.507C59.6895 125.881 60.5297 126.121 61.3697 126.281C54.0363 134.001 55.0895 141.721 55.1561 142.134C55.3561 143.441 56.5828 144.334 57.8762 144.134C59.1828 143.947 60.1029 142.734 59.9296 141.427C59.8762 141.027 58.7829 131.627 71.9962 124.201C72.1296 124.121 72.2497 124.027 72.3697 123.934C76.4497 121.867 79.503 119.227 79.783 118.987C80.783 118.107 80.8762 116.587 80.0095 115.587C79.1295 114.587 77.6095 114.481 76.6095 115.361C76.4895 115.467 64.7429 125.401 59.2762 119.974C57.8762 118.601 57.3161 117.121 57.5561 115.467C58.0895 111.774 62.4895 107.547 66.3561 105.454C71.3295 102.747 85.0762 99.0006 89.6095 105.681ZM95.8095 194.921C111.436 200.921 125.463 198.521 131.343 197.387C131.73 203.681 131.85 209.987 131.503 216.321C124.53 217.627 96.6897 221.374 74.6363 203.281C68.4763 198.214 60.543 187.241 56.983 180.067C59.7163 179.521 62.423 178.827 64.983 178.014C68.023 177.054 71.4761 175.881 74.8228 174.414C76.1561 178.721 80.8362 189.174 95.8095 194.921ZM129.01 138.254C132.81 134.921 137.583 133.067 142.61 133.067C154.183 133.067 163.61 142.801 163.61 154.761C163.61 166.721 154.183 176.454 142.61 176.454C139.53 176.454 136.556 175.774 133.783 174.454C133.29 170.761 132.756 167.081 132.236 163.427C131.036 155.147 129.823 146.707 129.01 138.254ZM128.143 114.107C129.436 81.654 140.503 71.7607 143.223 69.8007C146.249 70.5607 162.583 74.6272 185.623 79.8939C185.409 82.4406 185.183 84.7606 184.743 86.3206C183.196 91.8673 180.65 95.094 178.21 98.214C174.996 102.294 171.69 106.507 171.41 114.934C171.223 120.254 172.876 124.721 174.489 129.027C176.463 134.334 178.503 139.801 177.623 147.654C176.009 161.907 181.676 171.681 188.263 174.374C187.436 175.814 186.823 177.774 187.05 180.481C187.396 184.521 189.329 186.627 190.889 187.667C192.809 188.961 195.063 189.334 197.063 189.334C199.596 189.334 201.703 188.721 202.089 188.601C203.356 188.201 204.063 186.854 203.663 185.587C203.276 184.321 201.93 183.601 200.65 184.001C199.396 184.387 195.663 185.081 193.57 183.667C192.57 182.987 191.996 181.814 191.85 180.081C191.703 178.254 192.063 176.907 192.983 175.947C193.436 175.467 194.023 175.107 194.636 174.827C194.983 174.681 195.316 174.561 195.663 174.454C196.943 174.081 198.196 173.987 198.81 174.027C200.05 174.067 201.25 173.054 201.316 171.734C201.343 171.147 201.13 170.614 200.796 170.174C201.116 169.747 201.41 169.281 201.703 168.787C206.17 161.187 205.289 148.721 199.289 134.614C195.409 125.481 195.45 114.014 199.383 107.947C200.61 106.054 201.93 104.161 203.25 102.241C206.836 97.0806 210.476 91.8007 212.689 86.134C221.889 88.1073 231.196 89.9473 241.01 91.8806L241.33 91.9473C239.796 95.8806 237.73 98.5206 235.716 101.094C232.503 105.161 229.196 109.387 228.916 117.801C228.73 123.134 230.396 127.587 231.996 131.907C233.97 137.201 236.01 142.681 235.13 150.521C233.476 165.254 239.556 175.281 246.423 177.561C251.303 179.187 256.09 176.987 259.21 171.667C263.676 164.054 262.796 151.601 256.796 137.481C252.916 128.361 252.956 116.894 256.889 110.814C258.116 108.921 259.436 107.027 260.756 105.121C262.663 102.387 264.583 99.6139 266.303 96.7606L292.756 101.867C327.169 108.507 359.689 114.774 374.089 117.001C378.143 133.534 369.103 177.147 363.689 185.614C362.409 187.614 361.556 187.907 361.33 187.947C361.236 187.961 360.983 188.014 360.276 187.521C358.49 186.507 356.316 186.401 354.45 187.227C352.583 188.027 351.183 189.707 350.716 191.667C340.463 232.147 314.903 268.027 307.236 278.147C307.383 275.627 308.009 273.494 309.423 271.161C310.103 270.027 309.743 268.534 308.61 267.854C307.476 267.161 305.983 267.521 305.303 268.667C301.423 275.054 302.156 280.534 303.37 289.614C303.57 291.067 303.77 292.641 303.983 294.334C306.036 310.987 306.263 316.747 305.023 319.974C304.143 322.254 301.596 323.627 299.796 323.534C298.45 323.494 297.21 322.854 296.543 321.894C295.93 320.974 295.85 319.801 296.316 318.494C299.93 308.427 297.023 301.987 293.103 299.321C289.476 296.854 284.729 297.227 281.289 300.241C275.889 304.987 278.583 312.667 281.436 320.801C282.73 324.494 284.076 328.307 284.889 332.254C286.716 340.987 285.089 345.947 282.956 347.681C282.009 348.454 280.916 348.614 279.796 348.121C277.89 347.294 275.516 344.294 275.13 338.574C274.436 328.547 272.263 318.174 261.37 317.201C254.65 316.601 242.023 318.867 232.81 340.681C228.21 351.547 220.623 356.121 215.116 355.774C210.516 355.507 207.023 352.081 205.276 346.107C202.21 335.667 193.943 331.841 187.596 332.707C180.81 333.627 176.343 339.227 176.223 346.987C176.063 357.147 172.316 361.894 168.676 362.081C165.463 362.227 161.756 358.707 160.903 351.614C159.61 340.974 153.116 337.081 146.263 332.974C140.956 329.801 134.943 326.201 130.089 318.694C126.636 313.347 125.263 305.827 125.276 296.547C130.09 299.921 135.743 301.761 141.65 301.761C157.77 301.761 170.889 288.187 170.889 271.481C170.889 254.787 157.77 241.201 141.65 241.201C138.503 241.201 135.463 241.747 132.543 242.734C132.876 240.974 133.21 239.214 133.543 237.414L134.383 232.974C137.77 215.054 136.649 197.307 134.489 179.934C137.103 180.814 139.81 181.267 142.61 181.267C156.85 181.267 168.436 169.374 168.436 154.761C168.436 140.147 156.85 128.254 142.61 128.254C137.543 128.254 132.676 129.747 128.53 132.534C128.076 126.374 127.89 120.214 128.143 114.107ZM194.85 136.494C200.17 149.001 201.183 160.161 197.543 166.347C196.85 167.534 195.663 169.121 194.036 169.907C193.863 169.961 193.69 170.041 193.503 170.094C192.596 170.414 191.583 170.494 190.436 170.121C185.463 168.467 181.103 159.801 182.41 148.187C183.423 139.201 181.076 132.907 179.01 127.347C177.436 123.121 176.076 119.467 176.223 115.107C176.449 108.241 178.903 105.134 181.996 101.187C184.61 97.8539 187.57 94.0939 189.383 87.6272C190.036 85.3206 190.276 82.3073 190.543 78.814C191.41 67.654 192.69 59.0673 200.383 58.574C200.676 58.5473 200.983 58.5473 201.263 58.5473C203.703 58.5473 205.556 59.2407 206.943 60.6673C209.69 63.5073 210.73 69.374 209.943 77.614C209.21 85.2273 204.17 92.4806 199.303 99.4939C197.943 101.441 196.596 103.387 195.343 105.321C190.53 112.734 190.33 125.854 194.85 136.494ZM252.356 139.361C257.676 151.881 258.69 163.041 255.05 169.227C253.93 171.134 251.516 174.174 247.943 172.987C242.97 171.334 238.61 162.681 239.916 151.054C240.93 142.067 238.583 135.774 236.516 130.227C234.943 125.987 233.583 122.347 233.73 117.974C233.956 111.121 236.41 108.001 239.503 104.067C242.116 100.734 245.076 96.9606 246.889 90.4939C247.543 88.1872 247.783 85.174 248.05 81.6806C248.93 70.5206 250.196 61.934 257.889 61.4407C258.196 61.4273 258.49 61.4139 258.77 61.4139C261.21 61.4139 263.063 62.1073 264.45 63.534C267.196 66.3873 268.236 72.2406 267.45 80.4939C266.716 88.1072 261.676 95.3607 256.796 102.374C255.436 104.321 254.103 106.267 252.85 108.187C248.05 115.614 247.836 128.721 252.356 139.361ZM147.77 22.1073C158.343 9.30733 174.756 9.24059 182.41 10.0273C179.063 12.7473 177.383 14.9739 177.33 15.0539C176.543 16.1206 176.77 17.6273 177.836 18.414C178.903 19.2006 180.41 18.9739 181.196 17.9206C181.916 16.9473 199.249 -5.55944 236.156 10.4939C236.863 10.7872 237.689 10.734 238.356 10.3473C238.569 10.214 259.463 -1.90603 292.276 10.814C319.076 21.2006 327.85 22.1607 339.996 23.5073C343.61 23.9073 347.33 24.3206 351.943 25.0273C368.73 27.6006 373.53 30.7873 380.743 37.7073C365.236 41.1473 357.77 59.1606 355.93 69.1473C353.103 84.374 354.596 96.2672 360.383 104.494C362.343 107.281 364.596 109.361 366.863 110.921C354.863 108.841 336.956 105.454 316.956 101.614L316.943 101.387C315.45 96.1739 317.676 87.7873 317.689 87.7073C318.036 86.414 317.276 85.094 315.996 84.7473C314.703 84.4006 313.383 85.1606 313.036 86.4539C312.943 86.8006 310.943 94.3873 311.876 100.641C307.316 99.7607 302.676 98.8673 297.983 97.9606C294.476 89.3073 298.01 82.8007 298.17 82.534C298.823 81.374 298.423 79.9073 297.276 79.2539C296.116 78.5873 294.65 78.974 293.983 80.134C293.796 80.454 289.903 87.4273 292.543 96.9073L268.756 92.334C270.556 88.7074 271.863 84.934 272.25 80.9473C273.196 71.1206 271.73 64.1339 267.903 60.1873C265.356 57.5473 261.876 56.3472 257.57 56.6272C245.116 57.4406 243.983 71.8007 243.25 81.3073C243.076 83.494 242.916 85.5873 242.65 87.2939L241.943 87.1606C232.316 85.2539 223.183 83.4407 214.17 81.5073C214.423 80.3873 214.623 79.2406 214.743 78.0806C215.69 68.254 214.223 61.254 210.396 57.3073C207.85 54.6807 204.37 53.4806 200.063 53.7606C189.01 54.4806 186.876 65.8539 186.023 75.0539C178.449 73.3073 171.623 71.7073 165.783 70.3206C162.13 65.3206 166.73 57.2406 166.783 57.1606C167.45 56.0006 167.063 54.534 165.916 53.8673C164.756 53.1873 163.289 53.5739 162.623 54.7206C162.396 55.0939 158.316 62.2139 159.916 68.9206C150.81 66.7339 145.076 65.294 144.063 65.0407L144.023 64.9473C143.916 64.694 133.596 39.3073 147.77 22.1073ZM399.81 52.5873C405.396 61.5206 406.076 74.3074 401.836 90.6007C398.41 103.761 388.556 112.107 378.41 110.454C375.063 109.907 368.783 108.054 364.33 101.721C359.316 94.5873 358.076 83.9206 360.663 70.0272C362.45 60.3739 370.01 42.1606 385.796 41.9473C387.143 42.2806 394.77 44.5073 399.81 52.5873ZM376.103 204.587C368.863 199.641 363.196 197.734 363.023 197.681C362.529 197.521 361.996 197.521 361.516 197.694C355.743 199.641 349.663 217.254 351.543 223.241C351.81 224.081 352.516 224.707 353.37 224.881C353.876 224.987 358.69 226.054 364.196 229.841C350.276 255.507 331.863 278.787 309.41 299.107C309.223 297.454 309.01 295.667 308.77 293.747C308.556 292.027 308.343 290.454 308.143 288.987C307.943 287.467 307.756 286.081 307.61 284.814C308.05 284.681 308.463 284.427 308.77 284.041C309.116 283.614 343.063 241.561 355.396 192.814C355.516 192.294 355.89 191.854 356.37 191.641C356.863 191.427 357.436 191.441 357.676 191.561C359.09 192.587 360.663 192.987 362.223 192.694C364.236 192.307 366.09 190.801 367.743 188.214C373.823 178.694 383.423 133.347 378.65 115.361C384.156 115.987 389.503 114.374 394.103 111.054C393.956 143.881 387.903 175.321 376.103 204.587ZM401.41 284.681C397.116 281.907 391.823 279.814 385.996 279.134C390.77 234.401 363.023 222.801 355.93 220.601C355.556 215.507 360.036 204.907 362.53 202.627C369.383 205.334 409.85 223.974 401.41 284.681ZM406.77 296.814C407.823 298.787 408.743 301.641 407.383 304.347C407.29 304.174 407.21 304.014 407.116 303.841C406.476 302.667 405.023 302.241 403.85 302.867C402.676 303.507 402.25 304.974 402.876 306.134C406.663 313.121 406.543 318.907 402.343 333.067C397.45 349.587 392.583 354.481 389.37 355.694C387.863 356.254 386.756 355.641 386.21 355.187C389.09 352.041 392.103 348.174 395.223 343.587C395.969 342.481 395.69 340.987 394.596 340.241C393.49 339.481 391.996 339.774 391.236 340.867C379.49 358.107 372.436 360.547 369.276 360.481C367.463 360.441 366.316 359.547 365.743 358.934C371.85 355.094 377.863 347.721 384.223 336.387C384.876 335.227 384.463 333.761 383.289 333.107C382.143 332.467 380.663 332.867 380.01 334.041C371.783 348.721 364.236 356.294 356.943 357.187C352.45 357.747 349.223 355.827 348.156 354.827C354.476 351.334 361.503 342.241 370.276 329.254C371.023 328.147 370.743 326.654 369.636 325.907C368.53 325.161 367.036 325.454 366.289 326.547C357.903 338.974 349.316 350.587 343.343 351.547C342.636 351.681 340.436 351.014 338.783 349.441C337.65 348.361 337.13 347.174 337.276 345.934C337.516 343.614 339.636 341.694 342.089 339.481C343.743 337.987 345.436 336.454 346.77 334.574C352.463 326.574 356.196 318.534 356.343 318.201C356.583 317.694 356.623 317.147 356.503 316.641C356.556 315.854 356.25 315.067 355.583 314.547C354.53 313.734 353.023 313.921 352.196 314.961C345.17 323.961 330.423 325.067 323.743 321.867C319.676 319.907 320.276 317.361 320.476 316.534C320.983 314.414 322.863 313.907 328.103 313.001C333.57 312.054 341.036 310.761 348.57 304.707C364.796 291.654 376.516 293.921 376.783 293.974C378.09 294.267 379.37 293.454 379.663 292.174C379.97 290.881 379.156 289.574 377.863 289.267C377.61 289.214 374.756 288.587 370.023 289.267C370.129 288.561 370.396 287.734 370.996 286.961C372.756 284.761 376.636 283.614 382.37 283.721C393.756 283.894 403.436 290.601 406.77 296.814ZM292.876 312.921C290.063 315.134 288.196 316.507 285.676 318.321C283.103 310.934 281.756 306.241 284.476 303.867C285.49 302.974 286.676 302.521 287.85 302.521C288.743 302.521 289.61 302.774 290.396 303.307C292.356 304.641 293.81 307.801 292.876 312.921ZM242.93 332.254C247.73 325.561 253.396 321.947 259.516 321.947C259.943 321.947 260.383 321.961 260.823 322.001C254.983 325.814 248.996 329.267 242.93 332.254ZM235.116 346.881C235.89 345.521 236.596 344.081 237.25 342.547C237.69 341.494 238.17 340.547 238.65 339.574C248.023 335.454 257.263 330.307 266.143 324.294C267.276 325.454 268.223 327.161 268.943 329.707C257.596 336.734 246.463 342.387 235.116 346.881ZM190.036 423.054C189.303 424.161 189.61 425.667 190.716 426.401C190.983 426.574 191.276 426.694 191.57 426.747C191.423 426.814 191.263 426.894 191.076 426.947C188.583 427.827 184.796 427.187 181.223 425.294C177.009 423.054 173.93 419.614 172.996 416.094C172.956 415.934 172.916 415.787 172.876 415.627C173.903 415.987 175.076 415.627 175.689 414.681L211.45 359.974C212.53 360.321 213.663 360.521 214.836 360.587C220.183 360.907 225.53 358.387 229.996 353.787C230.29 353.801 230.556 353.747 230.836 353.641C233.143 352.814 235.423 351.947 237.703 351.041L190.036 423.054ZM239.97 402.667C240.196 402.761 240.436 402.814 240.676 402.827C240.97 402.867 241.29 402.854 241.596 402.761C243.703 402.201 245.943 402.947 247.303 404.654C249.423 407.321 249.196 411.587 246.676 416.374C243.983 421.507 240.223 424.027 236.396 423.294C233.903 422.814 232.076 421.054 231.93 419.694C231.863 419.081 231.57 418.547 231.143 418.161C230.943 417.947 230.69 417.761 230.41 417.627C230.29 417.574 219.556 412.574 207.103 406.001L216.396 391.974C229.743 398.561 239.863 402.627 239.97 402.667ZM249.983 393.961C252.876 394.001 255.61 395.521 258.103 398.481C261.276 402.241 260.463 408.014 260.463 408.054C260.263 409.374 261.156 410.601 262.476 410.814C263.81 411.014 265.023 410.107 265.223 408.801C265.249 408.627 265.556 406.521 265.223 403.761C265.316 403.747 265.463 403.747 265.583 403.734C265.73 403.721 280.436 401.814 290.41 409.747C295.77 414.027 298.876 420.454 299.636 428.854C300.756 441.134 295.09 458.134 285.85 470.214C272.61 487.521 258.303 495.481 240.996 495.081C225.77 494.774 213.57 488.067 208.343 477.121C204.623 469.281 205.316 460.547 210.17 454.321C215.143 447.934 221.596 445.934 227.756 445.934C237.756 445.934 246.93 451.227 247.53 451.587C248.676 452.267 250.156 451.881 250.836 450.734C251.503 449.587 251.13 448.107 249.983 447.441C249.89 447.374 246.423 445.374 241.276 443.654L243.61 439.494C243.69 439.361 243.756 439.214 243.81 439.067C248.023 437.414 250.676 434.267 250.863 434.041C251.703 433.027 251.556 431.507 250.543 430.667C249.516 429.814 247.996 429.947 247.143 430.961C246.943 431.214 241.89 437.121 235.343 434.587C228.676 432.014 227.716 425.854 227.743 422.401C228.996 425.134 231.956 427.361 235.489 428.027C238.356 428.574 245.61 428.761 250.943 418.627C255.85 409.307 252.663 403.654 251.076 401.654C248.676 398.654 244.85 397.241 241.13 397.934L240.97 397.867C242.85 396.267 246.21 394.041 249.983 393.961ZM201.823 432.187C198.689 440.347 189.263 439.294 188.863 439.254C187.57 439.094 186.343 440.027 186.17 441.334C186.01 442.667 186.943 443.867 188.263 444.041C189.85 444.254 192.05 444.227 194.383 443.734C190.183 451.027 185.903 459.494 184.076 466.347C181.223 477.067 176.316 482.694 171.97 485.654C172.93 483.027 173.01 480.094 172.116 477.227C169.423 468.654 163.303 464.294 157.903 460.454C153.663 457.441 149.663 454.601 147.463 450.041C144.57 444.027 143.476 435.494 142.33 426.467C141.076 416.587 139.77 406.361 135.916 398.347C133.476 393.281 129.81 388.694 125.276 385.667C130.583 385.974 136.49 387.281 141.97 390.601C152.236 396.814 158.77 408.667 161.41 425.814C161.623 427.121 162.863 428.027 164.17 427.827C165.476 427.627 166.383 426.387 166.183 425.081C165.436 420.227 164.383 415.747 163.036 411.667C163.25 410.667 164.436 406.134 167.97 404.201C170.25 402.961 173.21 402.961 176.77 404.214L175.65 405.934C174.09 405.854 171.463 406.041 169.583 408.027C167.65 410.054 167.236 413.174 168.33 417.321C169.61 422.121 173.583 426.694 178.956 429.547C183.756 432.094 188.876 432.827 192.676 431.507C195.33 430.574 196.356 428.934 196.756 427.721C197.436 425.667 196.703 423.654 196.156 422.547L198.25 419.374C200.29 421.081 204.383 425.507 201.823 432.187ZM164.796 487.547C160.13 491.094 152.156 489.841 143.463 484.201C130.396 475.734 88.2095 445.147 93.6762 407.281V407.254C93.7029 407.121 95.7829 392.707 106.743 388.161C107.103 388.014 107.463 387.867 107.823 387.747C108.063 387.747 108.316 387.694 108.556 387.614C108.596 387.601 109.53 387.294 111.103 386.921C120.623 385.494 127.93 392.867 131.57 400.427C135.09 407.747 136.343 417.574 137.556 427.081C138.756 436.507 139.89 445.414 143.116 452.121C145.863 457.814 150.556 461.161 155.103 464.387C160.356 468.121 165.303 471.641 167.516 478.667C168.57 482.014 167.503 485.494 164.796 487.547ZM205.543 360.214L195.689 375.281C190.943 371.867 189.05 367.041 190.036 360.867C194.61 361.267 199.81 361.041 205.543 360.214ZM181.223 345.081C181.983 340.134 185.21 337.894 188.236 337.481C192.276 336.921 197.449 339.374 200.023 345.801C190.783 346.961 184.103 345.774 181.223 345.081ZM192.316 351.121C195.103 351.121 198.29 350.894 201.73 350.401C202.556 352.334 203.57 354.041 204.77 355.454C194.436 356.921 185.943 356.281 180.41 353.587C180.623 352.467 180.77 351.241 180.876 349.947C183.316 350.494 187.196 351.121 192.316 351.121ZM172.156 383.907C167.809 379.841 165.623 373.987 165.623 366.454C166.729 366.801 167.85 366.947 168.93 366.894C172.596 366.707 176.703 364.214 179.076 358.281C180.93 359.107 182.996 359.747 185.25 360.201C183.97 368.294 186.65 374.827 193.05 379.321L184.21 392.854C178.903 389.441 174.863 386.441 172.156 383.907ZM131.503 248.361C134.69 246.827 138.09 246.027 141.65 246.027C155.116 246.027 166.076 257.441 166.076 271.481C166.076 285.521 155.116 296.947 141.65 296.947C135.65 296.947 129.943 294.654 125.476 290.521C126.13 278.627 128.53 264.361 131.503 248.361ZM31.3561 103.587C33.0095 100.801 34.9561 99.134 37.1561 98.614C37.6895 98.494 38.2097 98.4407 38.703 98.4407C39.7297 98.4407 40.6628 98.6673 41.4095 98.9073C38.7162 102.454 37.3296 107.281 37.5163 112.787C37.703 118.161 39.3296 123.281 41.783 126.934C41.3163 128.054 40.0229 130.454 38.3296 131.134C37.8629 131.334 37.1028 131.521 35.8895 130.934C34.1695 130.094 31.7429 126.974 30.1962 121.841C28.1562 115.054 28.5828 108.227 31.3561 103.587ZM47.8363 99.374C50.623 97.5207 52.9962 96.814 55.0629 96.814C58.8629 96.814 61.6228 99.1873 64.0095 101.254C60.2362 103.307 53.6896 108.441 52.783 114.787C52.3963 117.507 53.1163 120.081 54.903 122.307C54.7163 122.561 54.583 122.867 54.5163 123.187C54.3296 124.107 53.4096 126.894 51.7962 127.614C50.9829 127.987 49.8895 127.787 48.5428 127.027C45.2762 125.161 42.5562 118.841 42.3429 112.614C42.1295 106.667 44.143 101.841 47.8363 99.374ZM77.9428 71.2806C78.7828 70.574 79.6629 70.2407 80.6629 70.2407C80.9429 70.2407 81.2362 70.2673 81.5428 70.3206C83.6762 70.7073 85.0896 71.734 85.9962 73.534C88.9029 79.3207 85.5429 91.414 82.9296 97.2007C78.9696 96.7874 74.7296 97.4407 71.0629 98.4674C71.2229 91.2674 72.6495 75.694 77.9428 71.2806ZM90.3163 71.374C88.743 68.2407 86.0095 66.2273 82.4095 65.574C79.6495 65.0807 77.023 65.7606 74.8496 67.5873C67.9296 73.3606 66.5561 89.8273 66.2895 96.8539C62.2628 93.4673 55.3562 88.614 45.1962 95.334C43.8896 94.614 40.2896 92.9607 36.1296 93.9073C33.6496 94.4673 31.4363 95.8273 29.5163 97.9473C26.8096 93.4806 15.9962 77.1739 5.00951 82.3873C2.92951 83.3739 0.369669 85.5474 0.0363356 90.334C-0.696998 100.627 9.80967 117.721 18.903 124.387C19.4897 129.121 22.2763 147.427 31.3697 160.187C29.1697 162.681 26.903 167.894 30.4496 174.401C33.8363 180.614 42.6628 181.921 52.0228 180.841C55.5161 188.521 64.4097 201.121 71.5697 207.001C94.3163 225.667 121.85 222.921 131.143 221.294C130.823 224.894 130.33 228.494 129.65 232.081L128.81 236.521C121.543 275.027 115.796 305.441 126.05 321.307C131.503 329.761 138.023 333.667 143.783 337.107C150.356 341.054 155.103 343.894 156.116 352.187C156.743 357.374 158.583 361.094 160.93 363.494C160.903 363.654 160.876 363.801 160.863 363.961C160.316 374.054 163.01 381.947 168.863 387.427C171.77 390.147 176.036 393.334 181.57 396.881L179.476 400.081C174.103 397.934 169.45 397.894 165.663 399.974C163.263 401.294 161.61 403.254 160.476 405.161C156.65 396.854 151.289 390.601 144.423 386.454C131.129 378.427 116.183 380.721 109.956 382.227C108.303 382.507 106.609 383.001 104.889 383.707C91.4228 389.294 89.023 405.761 88.903 406.614C83.0497 447.294 127.17 479.387 140.836 488.254C149.01 493.547 156.916 495.427 163.01 493.707L163.236 493.721C163.996 493.707 181.89 493.254 188.743 467.587C190.503 460.974 195.156 451.441 202.196 440.027L202.289 439.854C203.943 438.374 205.356 436.441 206.316 433.907C209.73 425.014 204.81 418.321 200.93 415.334L204.436 410.041C211.823 413.961 218.676 417.334 223.13 419.494C222.276 424.814 223.423 435.161 233.61 439.094C235.063 439.654 236.463 439.947 237.783 440.027L236.503 442.307C227.183 440.174 214.97 440.321 206.37 451.361C200.383 459.027 199.476 469.694 203.996 479.187C210.01 491.814 223.81 499.561 240.903 499.894C241.29 499.907 241.663 499.907 242.036 499.907C260.316 499.907 275.903 491.147 289.676 473.147C299.743 459.987 305.676 442.014 304.45 428.414C303.556 418.641 299.836 411.081 293.383 405.961C281.756 396.747 265.61 398.867 264.916 398.961C264.623 399.001 264.343 399.094 264.089 399.241C263.556 397.907 262.823 396.587 261.796 395.374C258.343 391.281 254.383 389.187 250.01 389.147H249.876C242.943 389.147 237.45 394.427 236.13 395.814C232.036 394.041 226.023 391.334 219.076 387.921L245.756 347.601C253.823 343.961 261.823 339.694 269.916 334.761C270.076 336.014 270.223 337.387 270.316 338.894C270.783 345.587 273.596 350.694 277.876 352.547C280.676 353.761 283.636 353.347 286.01 351.414C290.25 347.961 291.556 340.614 289.61 331.267C289.023 328.454 288.183 325.681 287.316 323.067C288.783 322.027 289.996 321.147 291.196 320.267C291.223 321.827 291.676 323.307 292.556 324.601C294.089 326.854 296.743 328.254 299.65 328.347C303.743 328.534 308.01 325.627 309.516 321.707C310.743 318.547 310.956 314.494 310.036 305.001C333.863 283.974 353.356 259.721 368.036 232.881C376.09 240.174 383.93 253.814 381.17 278.894C374.503 279.001 369.809 280.707 367.223 283.974C365.543 286.094 365.103 288.507 365.143 290.307C359.81 291.814 353.089 294.881 345.556 300.947C338.996 306.227 332.503 307.347 327.289 308.241C322.036 309.161 317.076 310.014 315.783 315.414C314.716 319.961 316.85 323.894 321.663 326.214C328.356 329.414 338.956 329.001 347.356 324.801C346.063 326.987 344.53 329.401 342.836 331.787C341.81 333.227 340.383 334.534 338.863 335.907C335.943 338.547 332.93 341.281 332.476 345.414C332.183 348.161 333.236 350.827 335.463 352.934C337.69 355.054 341.01 356.441 343.41 356.374C344.676 359.321 350.556 362.841 357.53 361.974C358.81 361.814 360.063 361.521 361.303 361.094C362.356 362.707 364.97 365.134 368.996 365.294C373.196 365.507 377.77 363.227 382.796 358.614C384.396 360.081 387.383 361.574 391.063 360.201C397.316 357.867 402.53 349.427 406.97 334.441C410.316 323.134 411.583 315.934 409.223 308.681C409.956 308.627 410.65 308.241 411.076 307.587C413.516 303.787 413.49 299.161 411.01 294.534C409.81 292.281 407.983 290.001 405.65 287.907C405.796 287.667 405.89 287.401 405.93 287.107C412.65 242.907 394.796 219.214 380.103 207.547C392.823 176.467 399.156 142.987 398.93 107.987C398.916 107.601 398.823 107.241 398.663 106.921C402.183 102.974 404.93 97.8273 406.503 91.814C411.103 74.134 410.21 60.0273 403.836 49.9206C398.13 40.8673 389.823 38.0273 387.276 37.3473L386.93 37.014C377.703 27.9473 373.076 23.4007 352.676 20.2673C347.956 19.5473 344.01 19.1073 340.53 18.7206C328.743 17.4139 320.236 16.4673 294.023 6.32059C262.849 -5.75941 241.97 3.05401 236.983 5.60068C214.036 -4.01265 197.783 0.507332 188.103 6.10733C187.983 6.054 187.863 6.01394 187.73 5.98728C186.61 5.72061 160.076 -0.399348 144.05 19.0407C128.61 37.774 138.369 63.7739 139.489 66.5873C134.889 70.3339 124.596 82.2007 123.33 113.907C123.023 121.454 123.37 129.041 124.036 136.587C123.743 137.294 123.823 138.067 124.21 138.734C125.036 147.281 126.263 155.774 127.463 164.121C128.81 173.481 130.183 182.987 130.983 192.561C125.85 193.547 112.396 196.134 97.5296 190.427C83.2362 184.934 79.8628 174.801 79.2228 172.267C83.6095 169.867 87.3829 166.881 89.2095 163.121C90.7029 160.041 90.7961 156.734 89.4895 153.294C88.6095 150.974 86.9295 149.507 85.2095 148.641C94.8895 134.894 99.1429 111.174 93.5962 102.987C92.0762 100.734 90.0229 99.2406 87.6762 98.3206C90.0495 92.6139 94.2763 79.3073 90.3163 71.374Z" fill="#040606"/>
<path d="M381.29 306.054L375.823 315.041C375.13 316.174 375.49 317.654 376.623 318.347C377.01 318.587 377.45 318.707 377.877 318.707C378.69 318.707 379.477 318.294 379.93 317.547L385.41 308.561C386.103 307.414 385.743 305.934 384.597 305.241C383.463 304.561 381.983 304.907 381.29 306.054Z" fill="#040606"/>
<path d="M387.196 323.014C387.503 323.147 387.81 323.201 388.116 323.201C389.063 323.201 389.956 322.654 390.343 321.721L394.543 311.667C395.063 310.441 394.476 309.027 393.25 308.507C392.01 308.001 390.61 308.587 390.09 309.814L385.903 319.867C385.383 321.094 385.97 322.507 387.196 323.014Z" fill="#040606"/>
<path d="M258.53 67.2806C256.116 67.2939 254.09 69.1607 254.037 71.6006C254.037 71.7473 253.597 86.974 243.85 100.707C234.89 113.321 233.53 119.481 241.01 138.841C245.463 150.347 244.743 157.574 244.117 163.947L244.076 164.334C243.836 166.747 245.61 168.907 248.037 169.147C248.183 169.161 248.33 169.174 248.476 169.174C250.716 169.174 252.623 167.467 252.85 165.201L252.89 164.814C253.583 157.827 254.45 149.121 249.237 135.654C242.677 118.667 244.197 115.454 251.037 105.814C262.423 89.7739 262.85 72.4805 262.863 71.7605C262.903 69.3205 260.97 67.3206 258.53 67.2806Z" fill="#040606"/>
<path d="M201.023 64.414L200.943 64.4007C198.543 64.4007 196.583 66.3207 196.53 68.7207C196.53 68.8807 196.09 84.1074 186.33 97.8407C177.383 110.454 176.023 116.614 183.503 135.961C187.957 147.467 187.237 154.694 186.61 161.081L186.57 161.454C186.33 163.881 188.103 166.041 190.53 166.281C190.677 166.294 190.823 166.307 190.97 166.307C193.21 166.307 195.117 164.601 195.343 162.321L195.383 161.947C196.077 154.961 196.943 146.254 191.73 132.787C185.17 115.801 186.69 112.587 193.53 102.947C204.917 86.9073 205.343 69.614 205.343 68.8807C205.383 66.454 203.45 64.454 201.023 64.414Z" fill="#040606"/>
<path d="M305.383 242.907C293.797 242.907 284.37 233.174 284.37 221.214C284.37 209.254 293.797 199.521 305.383 199.521C316.97 199.521 326.396 209.254 326.396 221.214C326.396 233.174 316.97 242.907 305.383 242.907ZM305.383 194.707C291.143 194.707 279.556 206.601 279.556 221.214C279.556 235.827 291.143 247.721 305.383 247.721C319.623 247.721 331.21 235.827 331.21 221.214C331.21 206.601 319.623 194.707 305.383 194.707Z" fill="#040606"/>
<path d="M305.597 121.921C318.317 121.921 328.663 133.147 328.663 146.947C328.663 160.747 318.317 171.974 305.597 171.974C292.89 171.974 282.557 160.747 282.557 146.947C282.557 133.147 292.89 121.921 305.597 121.921ZM305.597 176.801C320.97 176.801 333.477 163.414 333.477 146.947C333.477 130.481 320.97 117.094 305.597 117.094C290.237 117.094 277.73 130.481 277.73 146.947C277.73 163.414 290.237 176.801 305.597 176.801Z" fill="#040606"/>
<path d="M172.757 197.401C175.61 194.667 179.49 193.467 184.357 193.787C189.797 194.161 193.717 196.307 198.263 198.787C202.917 201.334 208.197 204.214 215.73 205.187C219.503 205.681 223.37 204.387 227.823 202.881C234.317 200.707 241.677 198.241 251.21 200.441C255.05 201.321 257.837 203.121 259.504 205.801C262.357 210.401 261.237 216.441 260.823 218.174C258.783 226.827 250.597 231.454 242.223 233.947C247.863 228.907 247.143 223.334 246.73 220.161L246.717 220.054C245.303 211.614 234.503 205.387 226.61 206.201C221.703 206.721 217.09 208.707 213.583 210.654C211.17 207.707 205.077 201.627 196.797 203.014C190.45 204.081 185.29 207.414 181.89 212.667C179.65 216.107 178.317 220.294 177.85 224.961C171.73 220.334 168.517 214.921 168.357 208.787C168.237 204.414 169.877 200.161 172.757 197.401ZM229.143 235.427C227.81 235.854 226.544 236.134 225.304 236.414C224.77 236.534 224.237 236.667 223.704 236.787L223.65 236.801C223.29 236.801 222.957 236.907 222.65 237.067C218.037 238.307 212.917 240.601 205.304 249.267C202.277 252.707 197.837 256.614 193.863 255.667C189.97 254.747 186.477 249.081 184.023 239.681C181.437 229.841 182.117 221.174 185.93 215.281C188.57 211.201 192.61 208.601 197.597 207.774C198.13 207.681 198.65 207.641 199.157 207.641C203.85 207.641 207.597 211.134 209.45 213.241C208.09 214.187 207.263 214.867 207.157 214.961C206.13 215.814 205.997 217.334 206.863 218.361C207.703 219.374 209.237 219.507 210.25 218.654C210.33 218.587 218.397 211.907 227.117 211.001C232.797 210.414 240.983 215.067 241.957 220.827C242.517 225.081 243.223 230.894 229.143 235.427ZM177.77 230.734C177.93 233.974 178.437 237.374 179.357 240.907C182.37 252.427 186.877 258.974 192.757 260.361C193.543 260.547 194.343 260.641 195.143 260.641C199.517 260.641 204.143 257.894 208.93 252.454C215.943 244.454 220.144 242.667 224.437 241.574C247.397 240.707 262.37 232.601 265.517 219.294C266.183 216.467 267.33 209.267 263.597 203.254C261.237 199.454 257.423 196.921 252.29 195.734C241.437 193.241 233.037 196.054 226.29 198.321C222.397 199.614 219.037 200.761 216.343 200.401C209.717 199.547 205.077 197.014 200.583 194.561C195.957 192.027 191.183 189.414 184.69 188.974C178.503 188.547 173.237 190.267 169.423 193.921C165.583 197.601 163.383 203.214 163.53 208.921C163.757 217.401 168.704 224.921 177.77 230.734Z" fill="#040606"/>
<path d="M233.29 315.841C222.556 315.841 213.823 307.481 213.823 297.227C213.823 286.961 222.556 278.614 233.29 278.614C244.023 278.614 252.756 286.961 252.756 297.227C252.756 307.481 244.023 315.841 233.29 315.841ZM233.29 273.801C219.903 273.801 209.01 284.307 209.01 297.227C209.01 310.147 219.903 320.654 233.29 320.654C246.676 320.654 257.57 310.147 257.57 297.227C257.57 284.307 246.676 273.801 233.29 273.801Z" fill="#040606"/>
</svg>
