<svg width="24" height="24" viewBox="0 0 24 24" fill="none" xmlns="http://www.w3.org/2000/svg">
<path fill-rule="evenodd" clip-rule="evenodd" d="M5.22001 5.22C5.36064 5.07955 5.55126 5.00066 5.75001 5.00066C5.94876 5.00066 6.13939 5.07955 6.28001 5.22L12 10.94L17.72 5.22C17.7887 5.14631 17.8715 5.08721 17.9635 5.04622C18.0555 5.00523 18.1548 4.98319 18.2555 4.98141C18.3562 4.97963 18.4562 4.99816 18.5496 5.03588C18.643 5.0736 18.7278 5.12974 18.799 5.20096C18.8703 5.27218 18.9264 5.35701 18.9641 5.4504C19.0019 5.54379 19.0204 5.64382 19.0186 5.74452C19.0168 5.84523 18.9948 5.94454 18.9538 6.03654C18.9128 6.12854 18.8537 6.21134 18.78 6.28L13.06 12L18.78 17.72C18.8537 17.7887 18.9128 17.8715 18.9538 17.9635C18.9948 18.0555 19.0168 18.1548 19.0186 18.2555C19.0204 18.3562 19.0019 18.4562 18.9641 18.5496C18.9264 18.643 18.8703 18.7278 18.799 18.799C18.7278 18.8703 18.643 18.9264 18.5496 18.9641C18.4562 19.0018 18.3562 19.0204 18.2555 19.0186C18.1548 19.0168 18.0555 18.9948 17.9635 18.9538C17.8715 18.9128 17.7887 18.8537 17.72 18.78L12 13.06L6.28001 18.78C6.13784 18.9125 5.94979 18.9846 5.75549 18.9812C5.56119 18.9777 5.3758 18.899 5.23839 18.7616C5.10098 18.6242 5.02226 18.4388 5.01884 18.2445C5.01541 18.0502 5.08753 17.8622 5.22001 17.72L10.94 12L5.22001 6.28C5.07956 6.13938 5.00067 5.94875 5.00067 5.75C5.00067 5.55125 5.07956 5.36063 5.22001 5.22Z" fill="black"/>
</svg>
